/* XPM */
static char *brick_wall_1_png1736886798[] = {
/* columns rows colors chars-per-pixel */
"85 85 256 2 ",
"   c #05111E",
".  c #0B1629",
"X  c #141C2C",
"o  c #1C1C2C",
"O  c #161828",
"+  c #0D1836",
"@  c #141D34",
"#  c #1B1D33",
"$  c #141D3A",
"%  c #171A37",
"&  c #231D2C",
"*  c #251B2A",
"=  c #2F1F2F",
"-  c #1A212C",
";  c #162135",
":  c #1C2235",
">  c #15213B",
",  c #1B233B",
"<  c #1C2A3A",
"1  c #0E2134",
"2  c #22212E",
"3  c #29232E",
"4  c #232333",
"5  c #2C2334",
"6  c #23253B",
"7  c #2C2C3C",
"8  c #272839",
"9  c #372838",
"0  c #362B34",
"q  c #22111D",
"w  c #6D2E1A",
"e  c #482B38",
"r  c #542D3A",
"t  c #5B2E3B",
"y  c #572936",
"u  c #47323D",
"i  c #55323D",
"p  c #5B333D",
"a  c #543C3F",
"s  c #52292D",
"d  c #6A2929",
"f  c #632C3B",
"g  c #692D37",
"h  c #792C37",
"j  c #63333D",
"k  c #6D343D",
"l  c #693537",
"z  c #73333C",
"x  c #7B333B",
"c  c #783638",
"v  c #74302A",
"b  c #4E1C24",
"n  c #774637",
"m  c #5B4927",
"M  c #101C43",
"N  c #1B2443",
"B  c #192745",
"V  c #262A44",
"C  c #293248",
"Z  c #363344",
"A  c #302F4C",
"S  c #4C3543",
"D  c #483745",
"F  c #533442",
"G  c #5B3441",
"H  c #573A46",
"J  c #513145",
"K  c #6B3442",
"L  c #673844",
"P  c #753B43",
"I  c #783844",
"U  c #643E56",
"Y  c #374554",
"T  c #5B4249",
"R  c #544B58",
"E  c #694248",
"W  c #784549",
"Q  c #795558",
"!  c #6E4F55",
"~  c #73665D",
"^  c #575B65",
"/  c #465564",
"(  c #726F71",
")  c #5F6366",
"_  c #3D403F",
"`  c #9A2E2D",
"'  c #97372B",
"]  c #882D35",
"[  c #952D34",
"{  c #84353C",
"}  c #8B343A",
"|  c #843B3D",
" . c #8C3B3B",
".. c #8A3334",
"X. c #943434",
"o. c #9C3334",
"O. c #943A3B",
"+. c #9B3C3B",
"@. c #973837",
"#. c #89302A",
"$. c #A9372C",
"%. c #B8382D",
"&. c #A43A34",
"*. c #AC3B34",
"=. c #A43C3A",
"-. c #A83637",
";. c #B43533",
":. c #BB3432",
">. c #B33C34",
",. c #BB3C33",
"<. c #B53A3A",
"1. c #AC2D30",
"2. c #8D3C1C",
"3. c #C43A2E",
"4. c #C43933",
"5. c #C6322E",
"6. c #87441B",
"7. c #9A423B",
"8. c #8F4D31",
"9. c #AB452A",
"0. c #B8452D",
"q. c #AB433B",
"w. c #A94638",
"e. c #B44334",
"r. c #BC4333",
"t. c #BC4B3B",
"y. c #B74838",
"u. c #B95439",
"i. c #AB5733",
"p. c #B66A33",
"a. c #9F6D35",
"s. c #C5452E",
"d. c #C34333",
"f. c #CB4334",
"g. c #C44A34",
"h. c #CC4B35",
"j. c #C34B3A",
"k. c #C74639",
"l. c #D54B39",
"z. c #CC533A",
"x. c #C85738",
"c. c #D45637",
"v. c #C3562E",
"b. c #CA653B",
"n. c #D3643A",
"m. c #D1753A",
"M. c #E1793F",
"N. c #8C3D42",
"B. c #843A43",
"V. c #943C42",
"C. c #A93E41",
"Z. c #BC3E40",
"A. c #884446",
"S. c #964646",
"D. c #845757",
"F. c #94534C",
"G. c #A64844",
"H. c #B84A44",
"J. c #A75649",
"K. c #B75845",
"L. c #B35752",
"P. c #8F6C51",
"I. c #B96547",
"U. c #AA6757",
"Y. c #B46D51",
"T. c #8A5561",
"R. c #8D6D65",
"E. c #B27669",
"W. c #C54E41",
"Q. c #C65A45",
"!. c #D15945",
"~. c #C76646",
"^. c #D46945",
"/. c #C97448",
"(. c #D97747",
"). c #C86957",
"_. c #C77856",
"`. c #D57153",
"'. c #E47C47",
"]. c #E37349",
"[. c #C37968",
"{. c #F17A60",
"}. c #7F807B",
"|. c #E58B3C",
" X c #B39376",
".X c #B18452",
"XX c #DA8748",
"oX c #DC9647",
"OX c #DA8657",
"+X c #CE8F52",
"@X c #E4874B",
"#X c #E59849",
"$X c #E89B57",
"%X c #E98F57",
"&X c #DBA455",
"*X c #E6A44B",
"=X c #E8A956",
"-X c #EAB258",
";X c #F1AC57",
":X c #CD956C",
">X c #E69866",
",X c #E88F6F",
"<X c #DBAA70",
"1X c #E4A666",
"2X c #EAB768",
"3X c #F1B765",
"4X c #E8B577",
"5X c #EEAC74",
"6X c #EAC476",
"7X c #F1C571",
"8X c #7C848F",
"9X c #99989A",
"0X c #8C8D89",
"qX c #AF9989",
"wX c #B3B2AC",
"eX c #A2A19E",
"rX c #CDB38F",
"tX c #EDB98E",
"yX c #C9BBAE",
"uX c #DCC698",
"iX c #F6C889",
"pX c #F0CF91",
"aX c #DDD4B2",
"sX c #D1C8AF",
"dX c #E8CAA5",
"fX c #F5DBAA",
"gX c #EBDDBD",
"hX c #E9D9B6",
"jX c #F3DEB6",
"kX c #EDD3AC",
"lX c #F5E4AA",
"zX c #ECE4BC",
"xX c #EDE5BB",
"cX c #F3E4BC",
"vX c #F5E8B8",
"bX c #F2EDB0",
"nX c #F5E58E",
"mX c #CDD1CB",
"MX c #E7DBC4",
"NX c #E6DAD0",
"BX c #EDE4C4",
"VX c #ECE4CA",
"CX c #EDEACB",
"ZX c #E9E6C6",
"AX c #F3E6C3",
"SX c #F4EAC5",
"DX c #F3EBCB",
"FX c #F6E8C8",
"GX c #ECE8D3",
"HX c #F3ECD3",
"JX c #F5EED8",
"KX c #F7F3D7",
"LX c #F2F3D0",
"PX c #EFF2E8",
"IX c #D6E7EA",
"UX c None",
/* pixels */
"UXUXUXUXUXUXUXUXUXUXUXUXUXUXUXUXUXUXUXUXUXUXUXUXUXUXUXUXUXUXUXUXUXUXUXUXUXUXUXUXUXUXUXUXUXUXUXUXUXUXUXUXUXUXUXUXUXUXUXUXUXUXUXUXUXUXUXUXUXUXUXUXUXUXUXUXUXUXUXUXUXUXUXUXUX",
"UXUXUXUXUXUXUXUXUXUXUXUXUXUXUXUXUXUXUXUXUXUXUXUXUXUXUXUXUXUXUXUXUXUXUXUXUXUXUXUXUXUXUXUXUXUXUXUXUXUXUXUXUXUXUXUXUXUXUXUXUXUXUXUXUXUXUXUXUXUXUXUXUXUXUXUXUXUXUXUXUXUXUXUXUX",
"UXUXUXUXUXUXUXUXUXUXUXUXUXUXUXUXUXUXUXUXUXUXUXUXUXUXUXUXUXUXUXUXUXUXUXUXUXUXUXUXUXUXUXUXUXUXUXUXUXUXUXUXUXUXUXUXUXUXUXUXUXUXUXUXUXUXUXUXUXUXUXUXUXUXUXUXUXUXUXUXUXUXUXUXUX",
"UXUXUXUXUXUXUXUXUXUXUXUXUXUXUXUXUXUXUXUXUXUXUXUXUXUXUXUXUXUXUXUXUXUXUXUXUXUXUXUXUXUXUXUXUXUXUXUXUXUXUXUXUXUXUXUXUXUXUXUXUXUXUXUXUXUXUXUXUXUXUXUXUXUXUXUXUXUXUXUXUXUXUXUXUX",
"UXUXUXUXUXUXUXUXUXUXUXUXUXUXUXUXUXUXUXUXUXUXUXUXUXUXUXUXUXUXUXUXUXUXUXUXUXUXUXUXUXUXUXUXUXUXUXUXUXUXUXUXUXUXUXUXUXUXUXUXUXUXUXUXUXUXUXUXUXUXUXUXUXUXUXUXUXUXUXUXUXUXUXUXUX",
"UXUXUXUXUXUXUXUXUXUXUXUXUXUXUXUXUXUXUXUXUXUXUXUXUXUXUXUXUXUXUXUXUXUXUXUXUXUXUXUXUXUXUXUXUXUXUXUXUXUXUXUXUXUXUXUXUXUXUXUXUXUXUXUXUXUXUXUXUXUXUXUXUXUXUXUXUXUXUXUXUXUXUXUXUX",
"UXUXUXUXUXUXUXUXUXUXUXUXUXUXUXUXUXUXUXUXUXUXUXUXUXUXUXUXUXUXUXUXUXUXUXUXUXUXUXUXUXUXUXUXUXUXUXUXUXUXUXUXUXUXUXUXUXUXUXUXUXUXUXUXUXUXUXUXUXUXUXUXUXUXUXUXUXUXUXUXUXUXUXUXUX",
"UXUXUXUXUXUXUXUXUXUXUXUXUXUXUXUXUXUXUXUXUXUXUXUXUXUXUXUXUXUXUXUXUXUXUXUXUXUXUXUXUXUXUXUXUXUXUXUXUXUXUXUXUXUXUXUXUXUXUXUXUXUXUXUXUXUXUXUXUXUXUXUXUXUXUXUXUXUXUXUXUXUXUXUXUX",
"UXUXUXUXUXUXUXUXUXUXUXUXUXUXUXUXUXUXUXUXUXUXUXUXUXUXUXUXUXUXUXUXUXUXUXUXUXUXUXUXUXUXUXUXUXUXUXUXUXUXUXUXUXUXUXUXUXUXUXUXUXUXUXUXUXUXUXUXUXUXUXUXUXUXUXUXUXUXUXUXUXUXUXUXUX",
"UXUXUXUXUXUXUXUXUXUXUXUXUXUXUXUXUXUXUXUXUXUXUXUXUXUXUXUXUXUXUXUXUXUXUXUXUXUXUXUXUXUXUXUXUXUXUXUXUXUXUXUXUXUXUXUXUXUXUXUXUXUXUXUXUXUXUXUXUXUXUXUXUXUXUXUXUXUXUXUXUXUXUXUXUX",
"UXUXUXUXUXUXUXUXUXUXUXUXUXUXUXUXUXUXUXUXUXUXUXUXUXUXUXUXUXUXUXUXUXUXUXUXUXUXUXUXUXUXUXUXUXUXUXUXUXUXUXUXUXUXUXUXUXUXUXUXUXUXUXUXUXUXUXUXUXUXUXUXUXUXUXUXUXUXUXUXUXUXUXUXUX",
"UXUXUXUXUXUXUXUXUXUXUXUXUXUXUXUXUXUXUXUXUXUXUXUXUXUXUXUXUXUXUXUXUXUXUXUXUXUXUXUXUXUXUXUXUXUXUXUXUXUXUXUXUXUXUXUXUXUXUXUXUXUXUXUXUXUXUXUXUXUXUXUXUXUXUXUXUXUXUXUXUXUXUXUXUX",
"UXUXUXUXUXUXUXUXUXUXUXUXUXUXUXUXUXUXUXUXUXUXUXUXUXUXUXUXUXUXUXUXUXUXUXUXUXUXUXUXUXUXUXUXUXUXUXUXUXUXUXUXUXUXUXUXUXUXUXUXUXUXUXUXUXUXUXUXUXUXUXUXUXUXUXUXUXUXUXUXUXUXUXUXUX",
"UXUXUXUXUXUXUXUXUXUXwX: mX9XwXyXwXLX7 2 + HXKXMXNXyXyXwXmXmXwX}.) ( ( eX0X0X@ X ; 9X9X9X8X( / ^ ^ Y ^ ^ 8X0XwXeX9X9XmX0X) ( ^ ( : V eXKXwXeX0X) ( wXeX9XUXUXUXUXUXUXUXUXUX",
"UXUXUXUXUXUXUXUXUXUX  < PXSXSXvXSXbXY X X AXFXvXxXlXkXxXlXAXHXHXLXDXDXFXSX X. @ # xXAXAXCXDXDXDXDXFXHXSXSXSXAXAXMXMXFXFXAXjXfXkXO X lXSXKXFXvXFXFXFX+ . UXUXUXUXUXUXUXUXUX",
"UXUXUXUXUXUXUXUXUXUXO p.h.c.s.r.f.k.i.4 l ,.v.s = m.u.$X9.x.h.r.f.z.z.d.s.r.F.a.K.9.9.:.#.3.3.4.h.3.tX:.:.:.tX5.>.5.!.!.f.d.,.%.w.& 8.l.3.%.%.5.3.:.s . UXUXUXUXUXUXUXUXUX",
"UXUXUXUXUXUXUXUXUXUX. c.s.c.$.r.s.d.t.9 E t.x. .Z m.c.>Xp.d.r.,.,.c.!.g.f.s.L._./.,.4.5.] %.3.%.f.4.3X4.:.:.kX5.:.:.^.n.f.4.:.Z.G.O l.d.c.1.:.:.4.5.9 + UXUXUXUXUXUXUXUXUX",
"UXUXUXUXUXUXUXUXUXUX  %.1.f r.4.4.%.r 8 < A.$ 4X5X] ] <.>.;.r.,.v.y.} uX..l j Y.L.4.4.1.>.;.:.1.4.1.1.1.;.:.:.:.;.5.5.1.;.;.[ [ r # d.4.5.1.o.o.[ h d . UXUXUXUXUXUXUXUXUX",
"UXUXUXUXUXUXUXUXUXUXX k.` t :.:.4.%.p 5 < A.@ iX4XQ.#.>.>.,.,.,.u.y.l pXJ.j p [.Y.!.!.:.%.&.,.-.<.;.1.-.;.:.:.<.,.,.:.;.,.;.] ] j @ k.,.%.[ ` ` 1.h d . UXUXUXUXUXUXUXUXUX",
"UXUXUXUXUXUXUXUXUXUX: 9 A.r r r y f e X @ e J.~ I.e r f f j p f t i J.i y u 9 V N N.x { G 9 g g t r r t S !.e t g z y s 9 9 g y : # J t L V.L =.y h % + UXUXUXUXUXUXUXUXUX",
"UXUXUXUXUXUXUXUXUXUX; 8 P 9 e 0 = e 9 @ @ = l O w 3 0 0 e e G r r e s 3 3 = 4 : V b b e e 5 y = 0 e = = 3 q 4 y f f y f A 7 e e # ; F r s e 3 b f h A 9 UXUXUXUXUXUXUXUXUX",
"UXUXUXUXUXUXUXUXUXUX5 + PXCX, ZX% HXDXSXAXzXzXrX~ sXqX@ $ , BXxXxXSXC BXBXBXzXgXgXhXaXhX, ZXVX> @ Z ~ C uXR.:XrX% % sXaXZ 7 xXvXBXAXcXSXZXSX; B JXA N 5 UXUXUXUXUXUXUXUXUX",
"UXUXUXUXUXUXUXUXUXUX8XY PXLXC GX. AXDXCXVXVXxXP.:XyXqX~ O 9XSXxXxXSXB BXBXBXxXzXBXgXgXVXB LXAX> - D P.R uX.XrXdXM @ hXdXZ Y vXSXAXAXAXFXSXAXV C HXqX/ # UXUXUXUXUXUXUXUXUX",
"UXUXUXUXUXUXUXUXUXUX  m.K.2X=.@XK.g.+.c.c.XXlXv.^.$X#XS.& !.l.f.h.$.b.c.<.d.j.w.g.v G.4.*.j.r.U.6 Q.&.O.#...K.x.& X -.$.h.l.,.,.<.z.f.s.,.$.:.-.` ] f + UXUXUXUXUXUXUXUXUX",
"UXUXUXUXUXUXUXUXUXUX. M.5Xi.tX(.,Xr.`.h.'.v.p.(.,X=X#XF.O c.z.{.f.H.z.F.cX,X9.y.d.<.W.,.W.y.r.U.2 H.y.q.#.c _.^.* O -.*.3.3.,X1.Q.,.4.3.4.3.,.<.] ] g + UXUXUXUXUXUXUXUXUX",
"UXUXUXUXUXUXUXUXUXUXX 2Xo.2X1.%X$.(.>.b.n.u.e.w x g l D ; ..k.<.!.g k !.].%.,.,.>.g.r.-.4.,.@.D 8 1X[ C.j q.#.e * @ <.>...c [ cX1.<.Z.-.%.,.;.-.#.[ g + UXUXUXUXUXUXUXUXUX",
"UXUXUXUXUXUXUXUXUXUXO a.4Xw <Xd >X' 5X~.V.w.e.E.).).Y.T # L.9.&.&.S.O.G.<.`.j.o. .*.e.o.&.h +.T 8 v ^.W.p w.v K * # *.>.X.` *.:X-.Z.,.;.-.,.-.] ] ] j + UXUXUXUXUXUXUXUXUX",
"UXUXUXUXUXUXUXUXUXUX. @ P U.D OXD A.V. .8.z c e i L P $ # V G.j j j L L L k k K j j j j O.~.H @ > L z r ).A I P @ @ 3 5 z j f L z z B.e r G i P K K $ + UXUXUXUXUXUXUXUXUX",
"UXUXUXUXUXUXUXUXUXUX5 X + + + @ $ E 7 4 & # @ # : X 1 1 > > & 2 & & 2 4 & & & & & 4 & o 4 o O @ > X o # o M 4 5 @ ; 4 : & & & 4 o o & * o : # o % > IX3 UXUXUXUXUXUXUXUXUX",
"UXUXUXUXUXUXUXUXUXUX5 + V rXqX XR Z : : : gXZXVXVXZXMXMXBXZXSXZXMXwXaX9X: 6 < ( ( Z V 8 A > AXBXZXCXZXZXKX+ BXFXZXAXCXZXBXBXBXgX$ $ , aXaXsXuXqX X:XC 3 UXUXUXUXUXUXUXUXUX",
"UXUXUXUXUXUXUXUXUXUX  FXpX(.'.>X@X>XzX-  X1XiXt.y.xXjXu.u.K.I.Y.I.x.b.uXyXIX4Xb./.@X@X<X> BXOXI.b.Q.~.u.XXJXE.lXu.u.Q.~.x.j.w.4XY.+ kX.Xi.%X@X@XM.J.m + UXUXUXUXUXUXUXUXUX",
"UXUXUXUXUXUXUXUXUXUX. c.r.r.z.z.f.k.OX7 W XXj.$.-.` $.K.#XXXg.r.r.b.x.C.G.E.x.9.w.@.7.O.w.7.h.c.r.d.>.j.4.4.aX$.f.l.;.>.h.z.] } ).o ~.j.=X$.v.x.{ P L.+ UXUXUXUXUXUXUXUXUX",
"UXUXUXUXUXUXUXUXUXUX- $.j.XXr.f.3.-.S.7 9 Z.y.].^.*.*.,.f.r.r.0.0.s.#.O.a R.h.n.b.x.~...u.L ,.;.vXg.$.*.:.4.r.,.:.%.<.:.<.;.C.K.t o K.>.e.*.*.@.w.j.T.+ UXUXUXUXUXUXUXUXUX",
"UXUXUXUXUXUXUXUXUXUX- w.$.$.^.*.&.y A.5 # ( tXw g >.>.>.%.j.,.r.*.q./.K E D.g.=XOXh { S.7.O.-.'.*.-.*.j ,.;.>.e.*.%.-.-.&.&.N.j k = G.-.$Xp >.u.J.K t + UXUXUXUXUXUXUXUXUX",
"UXUXUXUXUXUXUXUXUXUX4 ~.#.~.P O.{ y I & E.U.rXJ.J.y.$.w.w.S.z t.&.o.o.x H F.e.i.i.B.I k c  .O.X.q.<.o.<.K m.*.e.' } %XOXc v y.X.K & G.&.1Xg y.u.g z = + UXUXUXUXUXUXUXUXUX",
"UXUXUXUXUXUXUXUXUXUX5 V U G e j i r R @ $ J H S J G L i t j K j j W i & $ V F Z u G F 6 ! D p L G G a 9 K S K K u F H u F F F F V # $ L k F L k L D % X UXUXUXUXUXUXUXUXUX",
"UXUXUXUXUXUXUXUXUXUX5 # o * O * 5 = o @ @ o 4 : 2 4 2 o - & & # : : : ; @ 8 o 5 5 = 5 2 * 4 6 & 2 3 * o o o 4 2 5 < 4 - : < o - > $ > , % o & & & # mX5 UXUXUXUXUXUXUXUXUX",
"UXUXUXUXUXUXUXUXUXUX5 $ PXHXHXHXZXDXDXDXHXGXDXDXVX% , , : ; GXBXFXZXBXCXHXDXDXAXBXAXDXCXBXAX: # ; gXjX, > MXyX6 # : B N CXBXDXDXDXAXDXZX+ NXGXM HXFX@ 5 UXUXUXUXUXUXUXUXUX",
"UXUXUXUXUXUXUXUXUXUX- PXGX=X2X3X3X7X2X2X-X6XiX6X7XhXlXrX# CX+X=X2X2X6X2X=X=X:XSXSX&X=X1X2X<XlXX ZXY..X XkXuXpXdX8 V SXKX-X*X=X-X6X6X6X3XPX&XLXPXlXDXaX$ UXUXUXUXUXUXUXUXUX",
"UXUXUXUXUXUXUXUXUXUX- &X;X=X#X-X*X#X*X*X*X|.#X#XXXu.K.J.; oXoX|.|.#X#XoX(.;XnX*XXX|.;X=X7XoX+X; ).o.7.u.*.b.z.S.& 4 p.~.;X=X#X3X^.;X;X@Xm.;X3XpXXX&XY.. UXUXUXUXUXUXUXUXUX",
"UXUXUXUXUXUXUXUXUXUXX XXp.#XoXoX*X#X#X*Xp.w 8.p.i.iXiXd ; 6.m.#X#X|.=XnXbXoX&XXXXX#X*X#X-Xi 8.; K.O.>Xe.~.Q.~.U.o # v c n 8.7XoXoX-X-X-X@X*X+X$X&XoXY.+ UXUXUXUXUXUXUXUXUX",
"UXUXUXUXUXUXUXUXUXUX  6X-X-X$X=Xt.^.=Xy.-Xm.7X3X3Xw.Q.E + +X~.S.*X#X-X(.#X=X*X#XoX*X*X5 7 lX<X< S.W.<.>XO.K.x x o X #X#XnXlXXXXX*X#X#X#X*X#X#X#Xw.-X8.+ UXUXUXUXUXUXUXUXUX",
"UXUXUXUXUXUXUXUXUXUX  XXXXI.K.w.w.&X*XG.K.i.=XoXoX(./.L X J.w.7.N.g OX(./.oXoX#X=Xi.q.p pXi.E.> W { V. ._.8.8.I X X #X#X.X+XXXm.7.I.I.G.#X#X(.=X9.p.d . UXUXUXUXUXUXUXUXUX",
"UXUXUXUXUXUXUXUXUXUX. $ F.c A.8.7.| B.8.S.7.7.A.S.A.A.@ @ + G.Z z p G S.7.| x P B.c c F.F.S.T , ; H N.9 J G L F $ > S.I N.8.`.8.7.7.7.z c W n 7.F.8.@ B UXUXUXUXUXUXUXUXUX",
"UXUXUXUXUXUXUXUXUXUX5 + @ @ : 7 X X # , $ % 6 4 6 # : # + @ $ @ ; , % : O ; ; , N @ @ . ; , : : . X X C C > > , > , , ; B > @ X @ $ $ + 1 T - , ; 1 sX5 UXUXUXUXUXUXUXUXUX",
"UXUXUXUXUXUXUXUXUXUX5 + sXhXA < NXxXR.> > DXFXAXjXcXAXFXSXAXDXAXAXDXFXFXFX> : / R cXjXjXxXcX) C DXDXB VXC M JXHXHXHXDXDXjXfXDXDX@ + $ hXzXgX^ A uXdX. 5 UXUXUXUXUXUXUXUXUX",
"UXUXUXUXUXUXUXUXUXUXY nXU./.{ uX<X).J.#  Xt.j.x.v.0.9.z.z.z.z.c.n.' 9.K.I.n ( iXpX9.0.x.' 8._.J.u./.w xXH &Xb.|.@X(.^.~.(.M.I.~.:Xq 6Xw.q.c.].m.w./.P.+ UXUXUXUXUXUXUXUXUX",
"UXUXUXUXUXUXUXUXUXUX2 ~./.XX/.5 j.^.J.< T 8.h.s.3.1.#.c.n.e.e.x.M.e w.n.n...~ K.G. . .x.i Z J.W I.~.8.-Xb.t.K.7X9.u.(.M.@X@Xw.i.F.* /.w.t.y.^.7.{ X.I + UXUXUXUXUXUXUXUXUX",
"UXUXUXUXUXUXUXUXUXUX- G.Q.@Xu.@.=. .V.@ rX) $ # o -.#.k.t.<.y.Q.-.V.O.=.S.L T S.+.L.w.9 1XI C.< T y.8.I O.y.&.z.0.%.X.#.$X=X{ S.G & y.r.t.Q.!.z i H.W @ UXUXUXUXUXUXUXUXUX",
"UXUXUXUXUXUXUXUXUXUXo S.Q.q.-.I q.{ B.B uXj <XO % &.O.I G.z.*.y.O.O.G.c L K T I I C.7.e 1XK C.> pXG.L C.XXX.&.=.e.w.,X%Xe.~.h  .F o G.e.q.q.Q.z W V.G + UXUXUXUXUXUXUXUXUX",
"UXUXUXUXUXUXUXUXUXUX2 F.c S.X.V.I S.L N , I K D.D.W I I N.G K P I K L S.G.0 Z N.N.f p t I I | $ Y.P _.OXG W A.S.7.w.W I  .V.K F.L o D.B.S.L H.I  .U ! M UXUXUXUXUXUXUXUXUX",
"UXUXUXUXUXUXUXUXUXUX5 $ V V A V 6 % # , ; : , V A D S D D D D H D D 9 S H V , : , , , 6 6 < , Q H R E 6 H W H G G H D D P ! A T.: # , 6 , 6 6 6 V V 8 5 UXUXUXUXUXUXUXUXUX",
"UXUXUXUXUXUXUXUXUXUX5 % X gX# FX, GXVXVXMXgXMXN , 6 Z > ; N N % 6 V < : 8 6 < VXGX, , B cX< 7 > N # ~ > $ , , : : , N 6 $ # $ # : < 8 V 5 9X, sX> > wX9 UXUXUXUXUXUXUXUXUX",
"UXUXUXUXUXUXUXUXUXUXX N FXcXAXFX, @ VXtXtXpXfXjXvXvXlX> ; 0XfXAXFXFXDXDXLXSXSXxXfX).I.lXjXzXvXB B gXkXcXSX:XvXvX# , vXFXFXFXcXSXcXvXjXfXfXjX$ MXvXSX& $ UXUXUXUXUXUXUXUXUX",
"UXUXUXUXUXUXUXUXUXUX; nXv.c.3Xy fXrXg.c.l.s.r.+X8.+X/.U.# 6X~.8.v.n.n.c.c.0.u.^.^.vXuXx.n.x.u.uX8.b.t.v.#.7.Q.H.& % ` ` t.0.g.j.s.g.e.r.z.q.zXn -.*.F.$ UXUXUXUXUXUXUXUXUX",
"UXUXUXUXUXUXUXUXUXUX- z y.x.x.z lXy.j.0.%.g.k.h c w.=.W & (.x.E c.n.c.x.v.' X.>.$.v.x.c.w.x.7.Q W x.t.u.@ XXx.S.4 # >.;.j.k.h.d.g.h.c.d.*.L sX=.&.!.V.$ UXUXUXUXUXUXUXUXUX",
"UXUXUXUXUXUXUXUXUXUXX } *.` ` 5X} X.#.Q.n.=.h.OX(.l c 8 : ~.o.y.b.*.$X-.=.*.t.=X1Xr.e.f OXh Y.a 7 Z D Q <.-.y.K.& , ,.,.o.-.$.=.] o.[ o.-.j , ] K.z B.$ UXUXUXUXUXUXUXUXUX",
"UXUXUXUXUXUXUXUXUXUXO (.(.o.-.[ ..@.[ ..X.O.} o.q.i z 9 , /.=.L } } q.H.^.e.t.] B.N.V.h w.@.I.a H 1Xk +.@.V.B.L.X % e.<.G.-.B.H.Q.c >Xk I P , W.x A.k $ UXUXUXUXUXUXUXUXUX",
"UXUXUXUXUXUXUXUXUXUX+ H I I I h I k P K k j G G G L.G.> > ; V.K I k S.I z P l P I A.I I p t W 7 > A.G.Z S.G P H : , L G G r A.f K K P W D ! % L W E V M UXUXUXUXUXUXUXUXUX",
"UXUXUXUXUXUXUXUXUXUX5 : 6 # # , : < Z 7 8 , # : , , , $ , > > > , $ N $ , 8 8 8 6 6 : % ; > ; > > < < < > , # @ , # , @ % $ # , : < < ; 8 6 4 < < 6 / 5 UXUXUXUXUXUXUXUXUX",
"UXUXUXUXUXUXUXUXUXUX5 1 N V D Z V  X; > 4 mXBXMXhXgXgXDXCXDXGXVXZXrX XqX7 O - ; 1 zXMXDXVX@ GXLXHXHXHXZXDXJXGXHXDXHXFXhX. . ZXZX< : ; R 9 5 7 7 D C IX8 UXUXUXUXUXUXUXUXUX",
"UXUXUXUXUXUXUXUXUXUX. MXjXpXiXfXpX5XdX6 qXfXfXlXfXG.q.H.j.x.n.M.^.3X7XpXpXMXaXhXdX>X1Xr.VXhX^.c.h.l.h.FX5X$Xl.l.l.l.FXFXPXPXt.dXQ + GXiX;X7X3X3X4X5Xj + UXUXUXUXUXUXUXUXUX",
"UXUXUXUXUXUXUXUXUXUX0 1X~.(.&.*.b.Q.`.V m e.r.L.J.@X%Xi.i.*.*.~.Q.%.%.y.u.8.W U.J.s.h.v.f.:.Y.e.f.3.kX5.%.z.k.%.4.4.#.6.qXE.w.0.u.& '.'.@.*.q.j.9.&.@.+ UXUXUXUXUXUXUXUXUX",
"UXUXUXUXUXUXUXUXUXUX_ _.*Xu.o.=.u.n.OX6 : *.$.J.t.'.|.u.$.+.w.x.x.&.*.K.K.W W U.J.y.e.g.d.,.-.c.f.s.hX:.*.c.r.<.d.W. .h rXrXy.%.V : (.`.w.e.e.r.V.O.z + UXUXUXUXUXUXUXUXUX",
"UXUXUXUXUXUXUXUXUXUX0 /.@.&.<.h h O.I.@ E.J.XXL.H.n.z.g.t.n.} A.h g OXt w.S.D.:XY.] o.o.H.r.&.h tX#.&.o.@.O.C.W.| | kXkX<X:X].+.[.o ).{ o.,.} x V.Q.e + UXUXUXUXUXUXUXUXUX",
"UXUXUXUXUXUXUXUXUXUX) v X.h d [.0 } l , W d d v #.v ..} @.w.{ B.z g s D.g P a U.Y.`.^.H.x `.+.F.w h o.g z z g x z c  X<XtX1XG.7.F.2 V.{ v z K ).g j 9 + UXUXUXUXUXUXUXUXUX",
"UXUXUXUXUXUXUXUXUXUX8 + R H L ; ! H D $ > i G u 9 i F F i G G G i 4 Q u D * @ : : S.S.U S H p K E W 0 D.G p j P P L p r :XD.S.I X @ ; Z H W V H 2 ! N B UXUXUXUXUXUXUXUXUX",
"UXUXUXUXUXUXUXUXUXUX5 + + . X @ @ - : : < 4 2 2 * # : ; < ; @ : 4 4 : o : < : : 4 o # * - 2 : < : X < , : - 4 2 - - o # < # - - @ X < # # o # # # 6 5 5 UXUXUXUXUXUXUXUXUX",
"UXUXUXUXUXUXUXUXUXUX5 M IXCXHXGXHXLXHXHXKXHXHXFXDXGXJXB > > MXSXFXSXcXcXSX- B CXDXSXrXBXBXBXV < < gXkX$ FXFXBXCXZXBXBXxX4XtXHXHXGXZXMXhXdXuX# gXhXyX. 6 UXUXUXUXUXUXUXUXUX",
"UXUXUXUXUXUXUXUXUXUX, JX9.&X` %.g.r.d.h.c.s.3.2...@.&.:X@ uX>.&X*.y.j.&.>.g.z.w.e.*.$.$.>.e.Y.: <XS.7 DXFX*.>.H.I.y.$.1.%.>.-.=.!.e.L [ :X#./.).] 5X_.M UXUXUXUXUXUXUXUXUX",
"UXUXUXUXUXUXUXUXUXUX@ y.w.u ..v @.] nXO. .tXpXh g z k A.# 9 t.[ =.>.w.e.t.@.V.[ g $.o.7.w.r L : S.>XA.hX{ 4XH.<.o.X.H.y.l W &.H.h h F pXh K.{  .z H.I M UXUXUXUXUXUXUXUXUX",
"UXUXUXUXUXUXUXUXUXUXX z X./.y ~.y H.....} ..} { h x k # % U.' `.(.y @XX.~.k 8.}  .z z c.L G.G , 7.O.K.:X$ h { ] r e y.K.O.{ ] { B.B.: Z  .] G.N.y I e + UXUXUXUXUXUXUXUXUX",
"UXUXUXUXUXUXUXUXUXUX. J. .k h G.s f I &.7.G.y k k 8 9 U - W l i r Q 9 K j D.S.{ { x K r H T.L @ n ! { g AXL z k j k j i z x L p J J % [.z g g y B.K . . UXUXUXUXUXUXUXUXUX",
"UXUXUXUXUXUXUXUXUXUX. S.N.K k t F.N I e P j k P I A.A.! - Q F A.D Q.$ K L D.U.K k t f J.H G.H , W F. .{ Z S.L f L j k k N.B.S.O.S.J > N.z A.5 J.9 W O + UXUXUXUXUXUXUXUXUX",
"UXUXUXUXUXUXUXUXUXUX3 6 9 u u u Z W V e 7 6 8 & o 3 5 < < B D i 4 6 2 7 7 7 9 9 9 5 = i 5 9 V V < 6 9 Z D V 9 7 A V 5 9 9 u 9 D < B > R < # 9 4 4 5 = 5 UXUXUXUXUXUXUXUXUX",
"UXUXUXUXUXUXUXUXUXUX5 C N N N N N N 8XV B B B B N N , C C C C A V B V V V V V N V N N B M N B V B V B V B A B B V B B B N $ N B B B M B N B N N $ $ 5 5 UXUXUXUXUXUXUXUXUX",
"UXUXUXUXUXUXUXUXUXUXUXUXUXUXUXUXUXUXUXUXUXUXUXUXUXUXUXUXUXUXUXUXUXUXUXUXUXUXUXUXUXUXUXUXUXUXUXUXUXUXUXUXUXUXUXUXUXUXUXUXUXUXUXUXUXUXUXUXUXUXUXUXUXUXUXUXUXUXUXUXUXUXUXUXUX",
"UXUXUXUXUXUXUXUXUXUXUXUXUXUXUXUXUXUXUXUXUXUXUXUXUXUXUXUXUXUXUXUXUXUXUXUXUXUXUXUXUXUXUXUXUXUXUXUXUXUXUXUXUXUXUXUXUXUXUXUXUXUXUXUXUXUXUXUXUXUXUXUXUXUXUXUXUXUXUXUXUXUXUXUXUX",
"UXUXUXUXUXUXUXUXUXUXUXUXUXUXUXUXUXUXUXUXUXUXUXUXUXUXUXUXUXUXUXUXUXUXUXUXUXUXUXUXUXUXUXUXUXUXUXUXUXUXUXUXUXUXUXUXUXUXUXUXUXUXUXUXUXUXUXUXUXUXUXUXUXUXUXUXUXUXUXUXUXUXUXUXUX",
"UXUXUXUXUXUXUXUXUXUXUXUXUXUXUXUXUXUXUXUXUXUXUXUXUXUXUXUXUXUXUXUXUXUXUXUXUXUXUXUXUXUXUXUXUXUXUXUXUXUXUXUXUXUXUXUXUXUXUXUXUXUXUXUXUXUXUXUXUXUXUXUXUXUXUXUXUXUXUXUXUXUXUXUXUX",
"UXUXUXUXUXUXUXUXUXUXUXUXUXUXUXUXUXUXUXUXUXUXUXUXUXUXUXUXUXUXUXUXUXUXUXUXUXUXUXUXUXUXUXUXUXUXUXUXUXUXUXUXUXUXUXUXUXUXUXUXUXUXUXUXUXUXUXUXUXUXUXUXUXUXUXUXUXUXUXUXUXUXUXUXUX",
"UXUXUXUXUXUXUXUXUXUXUXUXUXUXUXUXUXUXUXUXUXUXUXUXUXUXUXUXUXUXUXUXUXUXUXUXUXUXUXUXUXUXUXUXUXUXUXUXUXUXUXUXUXUXUXUXUXUXUXUXUXUXUXUXUXUXUXUXUXUXUXUXUXUXUXUXUXUXUXUXUXUXUXUXUX",
"UXUXUXUXUXUXUXUXUXUXUXUXUXUXUXUXUXUXUXUXUXUXUXUXUXUXUXUXUXUXUXUXUXUXUXUXUXUXUXUXUXUXUXUXUXUXUXUXUXUXUXUXUXUXUXUXUXUXUXUXUXUXUXUXUXUXUXUXUXUXUXUXUXUXUXUXUXUXUXUXUXUXUXUXUX",
"UXUXUXUXUXUXUXUXUXUXUXUXUXUXUXUXUXUXUXUXUXUXUXUXUXUXUXUXUXUXUXUXUXUXUXUXUXUXUXUXUXUXUXUXUXUXUXUXUXUXUXUXUXUXUXUXUXUXUXUXUXUXUXUXUXUXUXUXUXUXUXUXUXUXUXUXUXUXUXUXUXUXUXUXUX",
"UXUXUXUXUXUXUXUXUXUXUXUXUXUXUXUXUXUXUXUXUXUXUXUXUXUXUXUXUXUXUXUXUXUXUXUXUXUXUXUXUXUXUXUXUXUXUXUXUXUXUXUXUXUXUXUXUXUXUXUXUXUXUXUXUXUXUXUXUXUXUXUXUXUXUXUXUXUXUXUXUXUXUXUXUX"
};
