/* XPM */
static char *_40_5404023_exit_pixel_art_hd_png_download_1_png__1_1736948213[] = {
/* columns rows colors chars-per-pixel */
"85 85 19 1 ",
"  c #008F3E",
". c #008F3F",
"X c #009142",
"o c #009143",
"O c #009345",
"+ c #009448",
"@ c #00964B",
"# c #139D58",
"$ c #22A463",
"% c #8FCEAF",
"& c #95D1B3",
"* c #A2D6BC",
"= c #F6F7F7",
"- c gray97",
"; c #F8F7F8",
": c #FBF8FA",
"> c #FBF9FA",
", c #FDF9FB",
"< c #FFFEFF",
/* pixels */
"-------------------------------------------------------------------------------------",
"-------------------------------------------------------------------------------------",
"-------------------------------------------------------------------------------------",
"---@@@@@@@@@@@@@@@@@@@@@@@@@@@@@@@@@@@@@@@@@@@@@@@@@@@@@@@@@@@@@@@@@@@@@@@@@@@@@@@---",
"---@@@@@@@@@@@@@@@@@@@@@@@@@@@@@@@@@@@@@@@@@@@@@@@@@@@@@@@@@@@@@@@@@@@@@@@@@@@@@@@---",
"---@@@@@@@@@@@@@@@@@@@@@@@@@@@@@@@@@@@@@@@@@@@@@@@@@@@@@@@@@@@@@@@@@@@@@@@@@@@@@@@---",
"---@@@@@@@@@--------------------------------------------------------@@@@@@@@@@@@@@---",
"---@@@@@@@@@--------------------------------------------------------@@@@@@@@@@@@@@---",
"---@@@@@@@@@--------------------------------------$$$$$$$-----------@@@@@@@@@@@@@@---",
"---@@@@@@@@@--------------------------------------@@@@@@@-----------@@@@@@@@@@@@@@---",
"---@@@@@@@@@--------------------------------------@@@@@@@-----------@@@@@@@@@@@@@@---",
"---@@@@@@@@@--------------------------------------@@@@@@@-----------@@@@@@@@@@@@@@---",
"---@@@@@@@@@--------------------------------------@@@@@@@-----------@@@@@@@@@@@@@@---",
"---@@@@@@@@@--------------------------------------------------------@@@@@@@@@@@@@@---",
"---@@@@@@@@@--------------------------------------------------------@@@@@@@@@@@@@@---",
"---@@@@@@@@@--------------------------------------------------------@@@@@@@@@@@@@@---",
"---@@@@@@@@@------------------;##########################-----------@@@@@@@@@@@@@@---",
"---@@@@@@@@@------------------;@@@@@@@@@@@@@@@@@@@@@@@@@@-----------@@@@@@@@@@@@@@---",
"---@@@@@@@@@----------------;;;@@@@@@@@@@@@@@@@@@@@@@@@@@;;;;-------@@@@@@@@@@@@@@---",
"---@@@@@@@@@----------------@@@@@@@@@@@@@@@@@@@@@@@@@@@@@@@@@-------@@@@@@@@@@@@@@---",
"---@@@@@@@@@----------------@@@@@@@@@@@@@@@@@@@@@@@@@@@@@@@@@-------@@@@@@@@@@@@@@---",
"---@@@@@@@@@------------+@@@@@@--------@@@@@@@@@@@@@@@@@@@@@@-------@@@@@@@@@@@@@@---",
"---@@@@@@@@@------------+@@@@@@--------@@@@@@@@@@@@@@@@@@@@@@-------@@@@@@@@@@@@@@---",
"---@@@@@@@@@------------O@@@@@@--------@@@@@@@@@@@@@@@@@@@@@@-------@@@@@@@@@@@@@@---",
"---@@@@@@@@@------------@@@@@@@----@@@@@@@@@@@@@@@@@@@---@@@@@@@@@@@@@@@@@@@@@@@@@---",
"---@@@@@@@@@------------O@@@@@@----@@@@@@@@@@@@@@@@@@O---@@@@@@@@@@@@@@@@@@@@@@@@@---",
"---@@@@@@@@@------------@@@@@@@----@@@@@@@@@@@@@@@@@@O---@@@@@@@@@@@@@@@@@@@@@@@@@---",
"---@@@@@@@@@-----------------------@@@@@@@@@@@@@@@-----------@@@@@@@@@@@@@@@@@@@@@---",
"---@@@@@@@@@-----------------------@@@@@@@@@@@@@@@-----------@@@@@@@@@@@@@@@@@@@@@---",
"---@@@@@@@@@-----------------------@@@@@@@@@@@@@@@------------------@@@@@@@@@@@@@@---",
"---@@@@@@@@@-----------------------@@@@@@@@@@@@@@@------------------@@@@@@@@@@@@@@---",
"---@@@@@@@@@-----------------------@@@@@@@@@@@@@@@------------------@@@@@@@@@@@@@@---",
"---@@@@@@@@@-----------------------@@@@@@@@@@@@@@@------------------@@@@@@@@@@@@@@---",
"---@@@@@@@@@-----------------------@@@@@@@@@@@@@@@------------------@@@@@@@@@@@@@@---",
"---@@@@@@@@@-----------------------@@@@@@@@@@@@@@@------------------@@@@@@@@@@@@@@---",
"---@@@@@@@@@-----------------------@@@@@@@@@@@@@@@@@@+--------------@@@@@@@@@@@@@@---",
"---@@@@@@@@@-----------------------@@@@@@@@@@@@@@@@@@+--------------@@@@@@@@@@@@@@---",
"---@@@@@@@@@-----------------------@@@@@@@@---@@@@@@@+--------------@@@@@@@@@@@@@@---",
"---@@@@@@@@@-----------------------@@@@@@@@---@@@@@@@O--------------@@@@@@@@@@@@@@---",
"---@@@@@@@@@-----%%%%%%%%%%%%%%%%%%@@@@@@@@---@@@@@@@@%%%-----------@@@@@@@@@@@@@@---",
"---@@@@@@@@@-----@@@@@@@@@@@@@@@@@@@@@@@@@@---@@@@@@@@@@@-----------@@@@@@@@@@@@@@---",
"---@@@@@@@@@-----@@@@@@@@@@@@@@@@@@@@@@@@@@---@@@@@@@@@@@-----------@@@@@@@@@@@@@@---",
"---@@@@@@@@@-----@@@@@@@@@@@@@@@@@@@@@@@@@@---@@@@@@@@@@@-----------@@@@@@@@@@@@@@---",
"---@@@@@@@@@-&@@@@@@@@@@@@@@@@@@@@@@@@@-----------@@@@@@@-----------@@@@@@@@@@@@@@---",
"---@@@@@@@@@;&@@@@@@@@@@@@@@@@@@@@@@@@@-----------@@@@@@@-----------@@@@@@@@@@@@@@---",
"---@@@@@@@@@-;,,,,,,,,,,,,,,,,,,,,,,,,,-----------@@@@@@@-----------@@@@@@@@@@@@@@---",
"---@@@@@@@@@--------------------------------------@@@@@@@-----------@@@@@@@@@@@@@@---",
"---@@@@@@@@@-------------------------------------- X  @@@<<<<-------@@@@@@@@@@@@@@---",
"---@@@@@@@@@-----------------------------------------,@@@@@@@-------@@@@@@@@@@@@@@---",
"---@@@@@@@@@-----------------------------------------,@@@@@@@-------@@@@@@@@@@@@@@---",
"---@@@@@@@@@-----------------------------------------;@@@@@@@-------@@@@@@@@@@@@@@---",
"---@@@@@@@@@-----------------------------------------,@@@@@@@-------@@@@@@@@@@@@@@---",
"---@@@@@@@@@-----------------------------------------;@@@@@@@-------@@@@@@@@@@@@@@---",
"---@@@@@@@@@----------------------------------------;;,;,;,;,-------@@@@@@@@@@@@@@---",
"---@@@@@@@@@----------------------------------------;---;-----------@@@@@@@@@@@@@@---",
"---@@@@@@@@@--------------------------------------------------------@@@@@@@@@@@@@@---",
"---@@@@@@@@@--------------------------------------------%%%%--------@@@@@@@@@@@@@@---",
"---@@@@@@@@@-------------------------------------------%@@@@%-------@@@@@@@@@@@@@@---",
"---@@@@@@@@@-------------------------------------------@@@@@@-------@@@@@@@@@@@@@@---",
"---@@@@@@@@@-------------------------------------------@@@@@@-------@@@@@@@@@@@@@@---",
"---@@@@@@@@@-------------------------------------------@@@@@@-------@@@@@@@@@@@@@@---",
"---@@@@@@@@@@@@@@@@@@@@@@@@@@@@@@@@@@@@@@@@@@@@@@@@@@@@@@@@@@@@@@@@@@@@@@@@@@@@@@@---",
"---@@@@@@@@@@@@@@@@@@@@@@@@@@@@@@@@@@@@@@@@@@@@@@@@@@@@@@@@@@@@@@@@@@@@@@@@@@@@@@@---",
"---@@@@@@@oooooooooooooo@@@@ooo@@@@@@@@@@@@ooO@@@@XXOX@@@XOXXXXX+XXXXX+XXXX@@@@@@@---",
"---@@@@@@@--------------O@@@---@@@@@@@@@@@@---@@@@---;@@@------------------@@@@@@@---",
"---@@@@@@@--------------@@@@--;@@@@@@@@@@@@---@@@@---,@@@------------------@@@@@@@---",
"---@@@@@@@---&@@@@@@@@@@@@@@@@@---;@@@@----@@@@@@@---,@@@@@@@@@@*---@@@@@@@@@@@@@@---",
"---@@@@@@@---&@@@@@@@@@@@@@@@@@---;@@@@----@@@@@@@---,@@@@@@@@@@*---@@@@@@@@@@@@@@---",
"---@@@@@@@---&@@@@@@@@@@+@@@@@@OXXO,<,,OOXX@@@@@@@---;@@@@@@@@@@*---@@@@@@@@@@@@@@---",
"---@@@@@@@--------------+@@@@@@@@@@-;;;@@@@@@@@@@@---,@@@@@@@@@@*---@@@@@@@@@@@@@@---",
"---@@@@@@@--------------+@@@@@@@@@@;--;@@@@@@@@@@@---:@@@@@@@@@@*---@@@@@@@@@@@@@@---",
"---@@@@@@@---&@@@@@@@@@@@@@@@@@O+@@,;;;+@@@@@@@@@@---,@@@@@@@@@@*---@@@@@@@@@@@@@@---",
"---@@@@@@@---&@@@@@@@@@@@@@@@@@----@@@@----@@@@@@@---:@@@@@@@@@@*---@@@@@@@@@@@@@@---",
"---@@@@@@@---&@@@@@@@@@@@@@@@@@----@@@@----@@@@@@@---:@@@@@@@@@@*---@@@@@@@@@@@@@@---",
"---@@@@@@@--------------+@@@---@@@@@@@@@@@@---@@@@---:@@@@@@@@@@*---@@@@@@@@@@@@@@---",
"---@@@@@@@--------------+@@@--;@@@@@@@@@@@@---@@@@---:@@@@@@@@@@*---@@@@@@@@@@@@@@---",
"---@@@@@@@ooooo XXXXXXXX@@@@XXX@@@@@@@@@@@@XXX@@@@XXXX@@@@@@@@@@@ XX@@@@@@@@@@@@@@---",
"---@@@@@@@@@@@@@@@@@@@@@@@@@@@@@@@@@@@@@@@@@@@@@@@@@@@@@@@@@@@@@@@@@@@@@@@@@@@@@@@---",
"---@@@@@@@@@@@@@@@@@@@@@@@@@@@@@@@@@@@@@@@@@@@@@@@@@@@@@@@@@@@@@@@@@@@@@@@@@@@@@@@---",
"-------------------------------------------------------------------------------------",
"-------------------------------------------------------------------------------------",
"-------------------------------------------------------------------------------------",
"-------------------------------------------------------------------------------------",
"-------------------------------------------------------------------------------------",
"-------------------------------------------------------------------------------------"
};
