/* XPM */
static char *floor11736886731[] = {
/* columns rows colors chars-per-pixel */
"85 85 77 1 ",
"  c #6E3E1D",
". c #713E1E",
"X c #6D3E22",
"o c #723F21",
"O c #6C401F",
"+ c #724016",
"@ c #73421D",
"# c #7D491F",
"$ c #664127",
"% c #6D4125",
"& c #6C422A",
"* c #734324",
"= c #7A4625",
"- c #7B4A26",
"; c #74452B",
": c #794729",
"> c #76492C",
", c #7B4C2B",
"< c #7D502D",
"1 c #764730",
"2 c #764A30",
"3 c #794B31",
"4 c #7F5431",
"5 c #824B25",
"6 c #824E2B",
"7 c #894F2B",
"8 c #855125",
"9 c #8C5423",
"0 c #84512C",
"q c #8B542D",
"w c #8D592C",
"e c #915726",
"r c #91562D",
"t c #945A2E",
"y c #995E2F",
"u c #824D31",
"i c #855332",
"p c #8B5532",
"a c #8E5933",
"s c #8F5738",
"d c #8D5A39",
"f c #925731",
"g c #945A32",
"h c #995E33",
"j c #955E3A",
"k c #9A5F39",
"l c #9D612F",
"z c #966136",
"x c #9C6134",
"c c #96613A",
"v c #9B633A",
"b c #9E683E",
"n c #A26535",
"m c #A66A35",
"M c #A86C37",
"N c #A26639",
"B c #A4693A",
"V c #A96B3B",
"C c #AC723D",
"Z c #AC783F",
"A c #B0753E",
"S c #B67C3D",
"D c #B97F3D",
"F c #946341",
"G c #9C6641",
"H c #9D6942",
"J c #A36A41",
"K c #AE7641",
"L c #AE7942",
"P c #B17642",
"I c #B47C42",
"U c #B87E41",
"Y c #B67D49",
"T c #B97E4A",
"R c #BA813D",
"E c #B68047",
"W c #BA8141",
/* pixels */
"Vrakxhh.5hh7uPPSSffgtkntfhhkc30DU<4rfhkgh70hhhk,,,UIS9ffjzxhqiphtxh00PSSSttfhhk::vNN5",
"Vaqkhllo:hhuuPSSSttttnhyyhhnj30RW<,tthhhh00hxlh,1,IIIeffhxyhq00ztyh7,YSSSrffkhz=:BNn5",
"Vrrkxlh.:hl5,YSZDtgggknyfhkkc39DW3<grhhgh70klxh,>,ISIwafhzyxq0ahyhh00LISUefgzhc=;JNm5",
"Vrqhhxx.1kl74YSSPtgttkk55o==*>8DW4,gtkkzh77khxh,>,IDSeffhggxi7phyyh0<LUSYefgcxx::bNB5",
"Vrqkhhx.:xy63ISSDtffgkx=:ooXX1qDW><gf0piu=:gxhz=2>IESegakgyh0iphyyh6<LSSSeffkhk:;JNN-",
"Vrrhlhxo;hh66YISPtfhfxx6uooo11qRW4<tf&&X&&&gxhxa><ISIeaghxxxa07hyyh6<ZSSStffhhk::JNm5",
"Vwwklxx.:hh6,YSSDtgftxk77kkkp39DW43gf*&&&%*flhhs2>EISerfjxxh0uphyyx<<LSSDtthkhk=*JBn5",
"Vffklxxo;kx66YISPtghfxh6ukgkp19UW,<grghNNffyxlhs2<WSEegghghhp7qhyhz0<LSSDtffhhk,*Jnm=",
"Vrfhxxhookh60IISSrffhhx76khhp>9RU34fthhNNtygxxyf2-IDUeafckhh0p0hyhh60PSSSrgghhz:*JBB5",
"nrrhxxxo;hk6,YSSStggghh76khgi2qRU4<ftxhNVfftxxhf2-ESUeascgzhq07hyyh0<PSSStfghkz:=JBn5",
"mrrkxxhoohh6<ISSItfjfxxu6jhhp>qRE3>gttxmVtgghxts3>ESUrsskkxh0iqhhhz0<LSSSeffkhz:;JnN5",
"mfrxhhho1kh7<YSSSfffghx56khga39RW<<gtxhNVtfgxxxr3<ESE@1&*&%%&%&*%*%><LSRSttfhhc-*JNN-",
"nrrhhxxo;hh60PISSfffhhz66khhd>qRW<<agzhNVfgghlh73-EIIO**&%%%&&&&&%%4-LSSStffkhz::NNN5",
"mtrkknx.;kh84ISSStthfnh76khga>9RE,<atxhNNrgfxhhp3:ESR#=;====.*@**%%<<LRSSrfhhhh:;JNN5",
"mrf5==:Xoky66KSSSffgskh6,khha>9RW,,trhhmNrffhnh73,ESStfgJJJJrrfggzc0-LISItffhhz:;JNN5",
"mrfX&&&X;hx,4PSSIgggfhk6uhhgd>qRW<,afhymVfftlxl73-RSIyffBMVMtzgggyz<<LSSSeggkxz-;;%@o",
"Mrf@o*@*okh5<YSSS.*Xooo*Xjhgs,qRR-3fthhBBfffhnh03,RSUytfJVVNrygtgyz<<LSSStfggxz:1;&o*",
"Vrfrhnxrphh5,ISSS.%%X;***jhhs38RW<>hryyNBtfghhx73;ESUettJVVNtfgtryz<<LSSSwfgxhk:>GHG,",
"mtfrznnrrkx0<PSSSfsgsJGsfkhgs,qRW,>grhynBrffylhq2,ZRUytgNNJVygthgyh<<LSSStgghhz::BBB5",
"mtgtxnxrwlg-0PISSffgtNnffhhhd>8RR,,rrhyhhewrhnn02>WSSyttNNVVttfggyc8<ZSSIeffkhv,,NBB5",
"mtffknnwryh56PSSStfktnvgfhhgs,8RR-<arhyxhepfnhn02,WWIttgNNVNethgtzz<,ZSSSefgkhz:,BNN7",
"mftfgxlrqhy06SSSSttttnntggyhd38RR,,wrhyxxtprhlhp2,LRRzgtNNVNtgtfytg<-ZSSSgfgyhc:5NBB5",
"Mtttxnnerkh6uISSAytttnntghhgd,8WR,,afhhnhrpryyh02,WSSzegJNVNgttttzz<<RZRIegfhhh;,bMn5",
"Vgtwyvnrrgx6<KSSUtttfnxrrhygs38RR,<arhhhx9frnyxa3>ESSlgtNNVVfhttzwz-<ZRZItggyhh,6VnN7",
"Vttgyxnrrhh5<PSSPfttrnnrrhyfd>8RR,,atzllxrffhhha1,UPDltfJVBVfgtygyz<<SRRSygrgxk,6NMN8",
"Mytfzxnrfzx06PSSDtttynnrrllhs,8RR-<awxyxxrffhyxp1,UDStkyNNBNfgtfygk-<LZSIegahgk,,NNN0",
"Vttfyxnrrxg8uYSSUfgtylnrfhrhs:8RR><aeytxxrffyhnw3:PDPlttNBJVtgtttyz,<LSSSegggxj,5BNm9",
"Vftfylnergx67PPSUgggtnlrfhlfj=8DR<>wryzxhqfqnhhf3:DSDyttNNNmtthtyyz<<ZSSItfryzj,0NNm7",
"Vytrgnlrfgh50PSSPtrfynnrfyyfk:8DR>>gfyyxlfffxxxa>:ISStttNNNNtgtkygk0<LISIrfgyxh,6BmBq",
"Vtggtnnrrzx64YSSDtyffnnrfhhfs:7DE,<arzyxhrfqxxxa3>IUDtytNNNNtgttyyg<<LSSUefgzgh>0NNN7",
"Vtfttnxrrhx66TUSPffffnnrfhyfs17DR<,gryyxxtawxlxa2-SWSytfVNnnytgyehz<,LSSEegghxj,0NBB7",
"Ayfftnnrfhg8,EISDffyfnnrffyks17DR,>fryyxhqrqxlxa2:ISDxtfNnVntgggyzz-<ZSSSrraghk,iBNN7",
"Ctgttxnrrhh66TSSUtggfnlffhyjd>8RR<,atxyxxffqhhxg2;ERDyttvmnNthfhyxh<<LSSUrfggzz,7NnNq",
"Cftgtnn7rhh66TSSPtftglnrrgghd>wRW-<awxyxhrrfhnxd2,ISSzttvnmmgghtgxh<<LSSSrgfhhz,qbNNq",
"Cttrtnnerhk5uTSSUtfthxnffzygd>8RW<>arhyxhrffxlxg>,SESlgtnxBnfhtfggh<<PSSSrgwxhc>iBNN0",
"Pttrylnrrhk5uTSSPtfffnlfrhtzd>9RW<>wtyyxh5,6xxxg2=IRSytgkkxk07fhygh<<ZSSSrgfgzh=*BNN8",
"Kfttyxnerhh63TUSUtfffnlrfghhd;8RW,>fthynh563xxza2;RSRyrgkhhx7ihfhhg0<CSSIefgzzg*=JNNw",
"Cttftnnrrgh6uTISUtgftnlrrhghd>wRW<>gthhhh5u,zxxz>,IESyyghkxhu0fhtyk,<SSSUggfghz=;BNNq",
"Ptfgtnnrrhh86TSSUfgghyhrtkghd;9SE,:fyyhxh6,<xxxz>-EIRttghhhk76hffhz<<LSSStgfzhg;*JNNq",
"Atgtynlrrhh66TSSUgfffynrrzgzd>wRR-:fthhxn,3<xxzd>;IRSyftghhk67kgthz<<PSSIhgfhxg;;BNNp",
"Arttynnrfhg66TSSUffffnnrrkyjd>wRE<>jshccv,63xxzc3:IDSygthhhh77jftxk<<ISSIggahhg;;JNNf",
"Pffftnlrrhh66YSSDfhffnhrshyhd>wSR-3$&$&$&3,uxxxz3=IUSygfghhk00hggxk<<KSSIyggghz;*VnN0",
"Attyylnrrhhq,TSSPrfffhnfrhgcd>wRW>4X&&XX&33uzxva>:SUSyttxkyx6igfhhk<<YSSSggtzhz**HBN7",
"Ptftlllrthy03TSSDryffnhrahyhd;wDW>2djddGb6,uxxzc>:IDDehfgzhx06hgthz4>ISSIyffzgg;*BMNa",
"Pfggynltfhy86YSSPhksfhnrakyjd>wRW,3gggymm56ukxxg>:IRDegghhhh76gftxz,<ISSIyffhjj*;BnNw",
"Pttgyxnfrhh6,USSSffsynyrfzyhd3wRW-,fhttmN5,uvvzg3:WIDyhfhxxz0igftxh0<ZSSStffhhg;;bNNp",
"Prffjoofthyq,YSSS51XXXooXgghd;tRW<,hgtyBN566. %%3:ESSegthhhk00zahhc<<LSSR@*%***%;JNN0",
"PtfghX1fthy0,YSSI61XXXXo%cjhs;gRR5,hhgymM7,6%%%$>-EDDttghhxc00gtgxz<4PZRR+;&;&&;>JNN0",
"Pgtgs&;gfgy83YSDPr7spsfp7kthp>sRU=1ktttVV65u%%X%>-EWRehgkhhx7ihfhxk<<LSSS+OO%%%;:JBn0",
"Prggh&&gthh06EISDffgfNNrfkthd>aRW,ufgytNNgggcccG3;ESWefgghhk0ugrhxk-<PSSSegghzj,,JNB0",
"Pttfj&;ftygq6YSSUffftNNytxhhp>hRD5ufktyNntttzxkc2-ESDegghhhh00gatxc<<LRSSwggggk,,BmB7",
"Ptfyg&&sthg8,USSUfyytVVfftthp>xRD,5ttytnnfgflxhj3-IRSttghhhh0igfhxk<<LSSI9gaggh,GNBB6",
"Pftgfo1ffhh0,YSSDyryynmrthhgs;zRW6,tytyNVgtrlxxk>>IRIttghxhh00gfgxz,-ISSS9gggzj6cvMN5",
"Pftts11sgghw,YSSPttfrmVyfhhhp1zRW6,ftttNnttgxlxk,<IRRegthhhk00gfhhh6<LDDS9gafyc,GbMB6",
"AfgtkX1sghg06ISSPyyfrVVrtghxp;jRR-,hthtNVtffnykh2,WIWefgkhhh00gshhz<<LDSI9fggyj-cNnN5",
"PtgtfXXdfhh73SSSDtfftVmrthhkd1cRW-,fhhtNnyfthxhj>,LRWwfghhhk0igtyxv><PSDS9gggyj-cNBB,",
"Pfgtsooffhgq,YSSSttfrVVrthxzd>zRW--hgghnmgtthxxk>,SEUwsjhjcji7sfyhk,<PSIS9ggtyc,cVNN=",
"Pgtgjpffffk7,YSSPrtgfVVergxgi<zRR-:gghhnnhftxlkg>,WII-***%**%*grhhz6<PDSI9atygj>cNMN=",
"Pgfgfnxffhtp6YSSItffrNmrrkhhd>zRW->gfhfnngtgxxxk>,LRI0*;&*&**%jfyhc,<PERS9agryj-bBBB*",
"Pfthfxntfttr,UASStygfnNrrhzzi>xRR->hhhtnngffvxxh>-WSR-****@@@*ztyxc0<LSSU9ggryc-cbMN=",
"Ptfgtlnfftfq,YSSPttfgnnrrkyxi>zRR,>fthtxntffxxxz2,RRUttfnBBBrttwhhz,<PSSI9frytg-jNNm5",
"Pfgggxxrfhkq,TSSSttffnxefcyka>zRR,>hghyxxgrrzxxd2,LRUtrrvBVVrggfhxj,<LISW9ggwtc-cNmB5",
"Pfggtnlgfhh9,TSSSttgfnnefzyhi>zRR=,fhfgxngrrxlxz>,EZUtfgvBBBtrtgkxc><LSRI9ggztg-jbBm0",
"Pyfttxxgftgw3UASStfffnnrrxghi,zRE-,fthhxxfawhxxd>=RRUgrfnJBMagwthxc<<PSSW9ggtgj=zNmB6",
"Pggggnxtgghp6YSSSethfnnerxyhq>kRR=,agghxxgwfhxhh3;ZRIyfrkVVVffffhhz6,ISII9ggtzz=zbnmq",
"Pgtttxntfffq,YASAetftlnrrhhhu1zRR-,gykgxntwfhxxc3-RSEegrNVJVffffhhc,0ISSS9fgtta=zbNBq",
"Yhfttxhfghhq,YSSSttffnnrrhhgi>gRS,,gghgxxtqfxhvc3:SSEtffNJNVfrffhxk,,IDSI9ggztz-cbmNq",
"Pffgtxxffgtq6YSSStfgtnlrrhhhi>zRE:3fgggxnfqrhxxc3;WSSyrfNNVNrfffhxz,,YRSI9gftta-cBMBf",
"Pttgtlxffhgq-USSSfffglnrrkhhi;zRR,:hhghxxrrrkhxc2-RSEtrfNJVVafwgzxv,,YSDU9hsgta-dbnN8",
"Tfggklnfgtga,SSSSttggllrrhhki;aRD,>hggyxxrqwhhzc>-ZSSeffnVVNwgffhxv<<YSSU9gggwz--bnn8",
"Pftgyynrfhgq-TSSSttgtxnraczvi;aRS,,jhhgxntwa. O%>;ZRRtrgNBBBwfwfhxc,-IDSI9wgztz=-bxN6",
"Pfttfxnfghga-WSSAgfggll=*=**>>zRD,>sgglxxtqaOOX$>,RSStracnNnqaragxc<,ISDI9gatta=-HnN6",
"Pfgggnhrggyf<ESADtfffxh=;****;gRR-:jfhgxxf77jjjF>;RSZetgzNvnwqafxxc,,ISDI9rfgga->JnN5",
"Vgkfghnrthta<ESSAtfhthx5>jcGi>dRE--hhggxxfrfthkF2=ZRRtwgznvnwiarzxc<<IDSU9ffgtz=:JvN6",
"Pgtfgnxfryhf0YSSDhttfxxo;khhq>zRE->gfghxnr9phhzG;-RSZyrazNmbwqwakxv<<YSRI9ggggz-:GkG,",
"Vfyfhvvffhga-PSSSfftfxx:;khx0,aRW:,jhfgxxrqfhhvc>,SSRlftxNvnwaftkxv<<SSSI9wggga;>;;;o",
"Pftjo&1;6ths0YSSPtfhhhx:;hhz0>zRE-;ghghxxwqqhhzc1>ZRRtagvNvNwwarhlv4,ISSUgggagg,:;*&;",
"VtgsX1;:6hgg0YASDtffghx::cxz0>cRR>-gtgylvlqwhxhc;,SSRtravvnNqpargxc<<ISRIfggggg-:NJH,",
"VttfjNGwfyta-IISUtggflh=;cxh<>zRS-:hhggxnfqpxhkF2-WRZtwgxbNvqwafxxz<4IRSIfggggg;;HxN-",
"VfffknBrttgf0ISSUttfhhh,;xxz0>zSR::gghhxxf7qxhxc1;LIRtfgxBvNwiarhxc<4ESSUgfgagg>=NNN-",
"VfgfyBngryyf5YSSAhfffxh,:knh6,cSR=,gghyxzfqqhlhc3>ISRtffvNxnqfafgxc44WSSIgggggg->NNb-",
"BttfynBrggga0YAADthfgxh,*khhp;cDS-,gggtxxtqqxhxc3-ZSItgfzNvb00frzhc<4LRSIgagagg*>bxN5",
"MrtftnNrgygs0PSSPhfffhk:>cxkw;zRS,>ggzgxhrqpxhkc;>ISSwffxNvNwqawhxz44LSRI9agggz*;bNN-",
"MttfyBMrryyf<ISSSgfggqr:;kxkq;zDD<>ggggxnfq7hkzc3:SSEefsxbbvqwfpklc44WSSU9ggrzt*-bNB-",
"nttfynNrgyta0ISSSgtgg=:>;zzzi>zRS->zggtxxr0phlhj;>ISIeghxNvBqawrhhz0iERSI9yfytz*>HNN-"
};
