/* XPM */
static char *floor31736886780[] = {
/* columns rows colors chars-per-pixel */
"85 85 87 1 ",
"  c #160E05",
". c #1B0E04",
"X c #150E09",
"o c #190F09",
"O c #171006",
"+ c #1B1106",
"@ c #16110A",
"# c #1B120A",
"$ c #1A1B09",
"% c #181510",
"& c #220F03",
"* c #231305",
"= c #2B1305",
"- c #251805",
"; c #2C1A06",
": c #23150A",
"> c #29160A",
", c #25190C",
"< c #2C1B0C",
"1 c #331C06",
"2 c #331C0B",
"3 c #391E0A",
"4 c #251A10",
"5 c #2C1D12",
"6 c #321E11",
"7 c #391F10",
"8 c #36210D",
"9 c #3A220D",
"0 c #2D2115",
"q c #342312",
"w c #3C2413",
"e c #372811",
"r c #3D2914",
"t c #3D2B19",
"y c #442A0E",
"u c #402710",
"i c #442C15",
"p c #4A2E16",
"a c #442D19",
"s c #4A2E19",
"d c #473217",
"f c #4D3215",
"g c #46311B",
"h c #4C321B",
"j c #4F391B",
"k c #503416",
"l c #553A17",
"z c #5B3F16",
"x c #52351C",
"c c #583718",
"v c #553A1D",
"b c #5A3C1E",
"n c #603F1C",
"m c #443120",
"M c #4C3522",
"N c #4E3C24",
"B c #513720",
"V c #553B21",
"C c #5B3E21",
"Z c #603F20",
"A c #5E411E",
"S c #5F481E",
"D c #61421D",
"F c #574125",
"G c #5E4122",
"H c #554129",
"J c #5D4428",
"K c #5F4A2D",
"L c #614424",
"P c #694622",
"I c #654925",
"U c #6A4C26",
"Y c #644629",
"T c #68462A",
"R c #66492A",
"E c #6A4D2B",
"W c #714F29",
"Q c #6E512D",
"! c #71522C",
"~ c #6B4E30",
"^ c #6E5131",
"/ c #735532",
"( c #795733",
") c #775935",
"_ c #7A5A34",
"` c #7C5E38",
"' c #7D6038",
/* pixels */
"GLLY#hJCGCCCCCCCCLCCGCvCZLCCCYYLVxGCGGGGCbbbbd#hC$vvvcvCCCCZ#CCCDuCCLL>GCLh%AvAAbbGGA",
"CLGY#sLGGLCLZLLGLYLLYYRTRYYTRTRRxhGGGGGubbvbbv@hhhvvvvvvCvBx:CbLb=CvLCsGCGx+bvAAbbGYG",
"AGLY@ahhhsssspsMsshhhxhhMBhshMhVVhGGGCGwCbvbAb#tawaaaaapasaa#GADD=vvGGCCCGs#AvbnAvLGC",
"VGGJ@ahhBMhxhhxhfhhfhsssssssahad<hGGCGGavADA`G#YeLzTUIDGZLCY+LAGbfCCGGJCGGh@ApAAbbhLG",
"bGGY@VACbAGAZYIIDIIDIIRUTUQ)!YCsapCGZGGhvDGA)CoEKGACLIYLGYYR+GbLbfcbGGbCGGj@AsAACC3CG",
"jGGC@RGGAAbAnbDbAbbDADD!C:;AACLhshGGCGGUbbGAIt+EAeAbbbGYGLYY+YADDpbbCGGAGGh@GlGACV3GG",
"hCCb@KADAAADAAAADDAzzAbDLDbDADLR8aGCbGGTvGbARt#Eb:lbnDYLLGYYodbLnyCCbGLbCGh@AzADbvsGG",
"fCCF@xLbbAbAzbbu3&=ffppCbGAbbvblhpGCbGGGbAdGQb#xxlhCbhGLGLYI+vADCCvvCLCCbbh@GnAbZvwGG",
"xCCG#CUCCCCCCbbAbbCZCDCCCZCCCbvBsfCbCGGvbbkDLG:xfAWbCCLLGYJI.bAAZCCCCCFCCCp@DGGACb9LC",
"vCvYXVUF69ruVULbCbbvCvvCbbvCbVvvahCCbGGbvLlCvs:VGbDDCbZLGCGJ#xAGnCvCGCCCVbh@GbAbCC3ZG",
"vCVJ#VILLLLYLLLLhfCTYIZCvbvbcC3:asGCCCCbvACGbp:vdAbbvCLLGGGG#sAGnCCCCGGCbbs@GbAAbbwGC",
"vCCG#hGLLYLGLLLLLGYLLLZZZZZCCvvvpsLCbbCvCCCbGi:x9ALnvVGLCbAA@pbAbbbvVCCCVbh#AbbCCbwCC",
"vCvY@YLYTbLnDLLLGGLGLGCLZLCCCvvvshGGvCCvvCbZbs:x2DAAvbLLVbVY@sCGCbCCvCvVCCh#AbAbCCqCC",
"vZGT#ILLLLLLLGLCGGGCCCLCCCCCCCCCspLCGvvqvbvbvxosADAACvCCGGVL#fhbbbbvbCvCCGh#bbACbv=vv",
"CGCYXYLYLLLLLLLGGCGCCCCCCCCCCCCVhsLGGvv#vvvbbxoyAFCbCvCCbbvG@sAbVvbvvvCCCCh@bbLbvvNcC",
"VGYh#~TYYYYYYYYYYLLLGYLCCvCVCZCChpsxxvV=vcxhshofA:bbvvvbCCHL#pGvCZYYYZGJLYh@xxvCYLYLC",
"hhha+hYYYYLYIYTIYRYYLLCLLLGLLYZvs4hfhaphshfhhdohf9vcvvvvvClVohsshsxhsssxhhs#asvhsx5sh",
"#O++####+#####+o##:%%55qqwwrwtt6+:aphpppspsffhhhhxhMxxvxxxxv##:,##+:#++:&++###++:++::",
"/YYa#LGLYphxfhspshhqssthss<sshhsawhbAADLGGAAbbLAbbvbblbbVvv/o:xCYLEYTE~EQT~E~TCGETET^",
"GCGh4CLGbkcTVB=nbACsvDbCcvYvCCLLsuhDAAn&:EWAbDCnDbDDAAbbnZDZ#mCxLLLYYYYLLLLGJLCGvVvvv",
"CCGh6GDAnZDbAAAAUVasLDbbvbCVvGGGhtKLLDnDDADAnbDDDAnCDADCDGGU#MLLCLCVVVCCLGGGCGCCCCvCb",
"CCGh4bbvn;2sAbxcbCvpTDAbbv<CCCCGaavVvbvbbbxvvvww=22vDbCnbCGj%7LZLLCGGZLLGGGGCCCVvCCCb",
"vvbs<DGbbCCbbAZGCbbp!bACCv7bvCCGaavvbCbLGGAAnZbbCbnCbbCDCCbh#u:*aMBVu>>:xGCGGGCGCCCCb",
"CvVs<AFriIbvCbbvCvvpQ>ACCvwCCCCLsicvvbvvvvCvbbbbbbCCDDIDAg=5@aLLLCJLJLGLGGGGGGGGGLCvv",
"wCvt4ILZLLLhYILvCxXpI+AAAV9GGbbLaiVcbvCbCvCCCCbLSvVLYGGLGJLx+tLDGGGLGLGGCLLLbCh2122>2",
"vvvs,CLLLJLLLGLLCvbpISAAAv8LGCbJsivbbCCCCLZLZZLLGLLGGGYLYYL/+aCCCGCCbvvCCCvCvCvCvvvvC",
"Cvvx4sq,qGLGGCGGCvCpIQAAZvwGGCbGsivvCCCCGGGLJLZLLLLLYGYLLYL/#aLbCGbCbbCCCbCvCbbbCbbbC",
"bbvs4GLGGLLCGCCCbCLsDAAAGvwLGCCLsiCCvcVCCvVCCJLCGCJGGGGGLLLbOgLCbbbAnb+3EvzCbnLCpkbbV",
"Cvvs4LYCbCLCCCCCCLLpLbbACbaLCCbYsavGZVCCCCCCGCGGCLLGGLGLLLLLoapuxJEUbAAAZbDAAAAbbGGAv",
"xCCs4YRYYYYYLYLGCvPpDDbbZv7DCGGLhaxCCCbvvvvCGGAGLLLYYYYYYYvY#MLnDbAADzAAnAALAAASLDbbC",
"ZCCs4BhhhhxhhhhhhxshAbbAbC1LGGGGsaVGZCZvbGCLGGGYYYYYYYYYTIYYoMZnLbGAAGGGGAbGGLDLAGbLL",
"sss>#sashdsa<dasssasAADbbbvLbGCYh+5><6666585656628q8qq7qqqqq+%hshhsfphhsGLGIGGjGbYppi",
"+  X#hfNvvvvcvbxxChpDAAzbbLLbAGGhqsaaspqppaMrwo#o455qqahshhhhhMMsagt<,,,:##%++&..+.++",
"LYYjOAAWvvvcDVvGGGTfSAADbCALGGGYhpCCCvvvvvvCCFa0CCGCAAbGAAAAGACCLCGGGGSGGE#xbniDbkLLP",
"GbYh#IAIvCvbEbvGGGTpbADbbGGLGGGYhsLCbvCIvCbbnbr0vbCGbAh&aJDIYIAGvfkvDASAGb#xD:ebC1YYI",
"GYYf#QAICbCvgCbbCG/hAADDbIGG8JVYhhGCCLCSvbGAvGs+CvbbAGAAbASAAAAACDnLUWIJjE#hbDVbbaGYn",
"GLYh#!ADCCCveVGbvCExAzAzbCLL<LCYhaJVCLGbvCGA&LpwYlbbCvkfbLbAbGAQq*vDbbbGCv@xCbQzbYLGL",
"GGLh#UAACnCC2GCCCvEhAzAbbhGL*LCTxfGbCbGDvbbDQGswEvCvbCbbbCbbbbbbCvvCbCCGGh#xGDAxvvLLB",
"CCYs#UAnbCCv8GGbCC~cbADbbvYG>GCRhhGGGGGAbCAADAstTvVCvCCbbvbvbbbCbbGLDDGg-5#hGDA9bGGL=",
"CGns#IbDDZbb<GGCCC^hbbAbbbLJjLCRhhGbGbGYIbbALAh:RCRExVVFJGDLGJGGALLYYULYLl#xDbAfbvGLY",
"CGDa#UADACbb;GGCCCEhCbAbbYGYhYCRMxLvC2LGvbbbAAhaYvvCCCLCLLGLLLLGLLJLLLYLY)@hDAAfvCCLL",
"CCva#DAADbbbuLGbCGLxCbAAbLJLfGbYhsLYJGLGLCbDbAhuZCvvCCCCCCLCbbw=hJLLZZYLGC+hADGbCbLZG",
"CCvi+DbADAbbFLGbCGYMbAAbCDJYaIYIhhLLCLGLLbCbvGhiLCCCCCCCCCLCCGCGGGCLJJLGLb:sARAAvCLZL",
"CCaa#SDGbAbbLLGGGL^hbLDbbDLG2JJRhsYYLLLLLCCUGGurYCCCvCCCCCCCGCvbLYYLYLCTYG@fArbbvCCbC",
"CGEh:AAbDbbbGLGGGJ/h/GLQII`Y:LZTVhYYYLDLYbCq+AttLLLLGJLLJGGGYLTYYTTYYYYEYR#pbDbbbCvvv",
"CGGa+YAbDbbbALGGbG)<xxVGVbCC=VCVvxYYLDLGAAAeDbw,ssmssssssshshhhMxxMhhBhMvx#pvvGYLYLLZ",
"xhxh+AADAbbEGLGGGL)+####oo######o#%#+##+#+##+#:aasssssassssshssxhxhxhBhhhx#hpppphxfxh",
"bCVQrAAADbbGGLAGAY)@vvxxvBvxxxxV6ussapaiafaaiitaLGLLLLLLLYLLYYYYTYYYTYTERY@hIQDLZZZbb",
"CADAaAAGAbb9LL3GLY) EDLAbDLD ZLYhVLGGCbgvlvGbxqhCGCCCvCCCGGCGGCCvVCVGbYYYv+kDaIIADnLD",
"DLDLtSAAAbvGLL5GGY_OEADbCLLY&LZLxVGGGvv#vvbJCCqhLCCCCCCCbCCGGGGGYGGGGJLYLC#lLAADbbAnG",
"bCb/tAAAACvLJL*GGY) EAAbbJAGiCCLhCGCbvbbvbbAbGqdCCCvCCGCGAGGGbGVr*:trr0::*#vbCLbDADDb",
"bbCQtbGADbbLLL>LCY/ /bbbCGGGsZVJMCGbbCbVbCVGAQ8hvvvCCGLDLLDGLLLJGYGJYLILLVovbCbGbbbCb",
"IZG/<bAAQCbLLLsJCY!+UAAbbvYGhGJZhVCCCCGvCCCDA/q:Ta7pppipxx33xCLLGLJGLYYJLv#xvvCvbCbEF",
"LLL)<bASSbbGLChLbY/ /AAbCxGGhGLLhVCCbGGbvZbAG/<hvvCvCvbvCvCCvbbDYycbGJZYLC#vhq>;vLLLG",
"LYYneCGAqCCLGLrGYYQOGbAAbyLG*LYJhVCCCGLCbGbDGQ4hvvCCCCCLGAAbbbCCbbCvvCbCLC#lvbGGLLLGY",
"LLPv5bGA<CCGYYrJYR/ObAAAbaGL.GGLBVLCbGGGvGGDbQ4hvbbCCCLbAblbkxbCbnDnbbAbAxOvbbGGbbx*G",
"LLLZqbbA#AGLLL=GYYY+VAAhbGGGqLCLxBCCCCLEvLxAA!#4ADCZDbALAbbzDADAAAAADAALGY#vCvbCGGCGL",
"LYVL5cLLqIURLL:GYRbovAA7bbLGhGvGsBYCCJLTbAkbAQ#fDbDDr.jUIAADnDnCAGGAAbAAGYovCCCbGCCGY",
"UYRC:VVBlVvCVGxCVvv.VAA=bbYGCCCGsVZCGGLbbbfbAQ ivCR))!QQQQETRUUTEETTYGYLIC@xYLYLLLTER",
"sagg@#@@@##@#@###@#ohAA=bbVGCGCGxCYCGGGhbbfbbU#+aauuapfppsxsfhhhxhhhdagtt8%waaatatadh",
"TLYa+SAAAbGAGAAADbbobAbkbb9ZbCGAhVLGGGGabb8GAR@MRRxCFCVh/^~C#mCR^/!/((/)/Q//EEYREETRE",
"GGGs#,AbGAvkwfDbbbbXAbDfnv6ZGCCGaCLbCCLkbb3AAU+RCLY/UQLYCLCI@gRRYTYYLIYYYYYGJGLGCCCvC",
"CGGh,GbDAAAAGDAACLb jADpbVpZGGCCfbLLGLLYbCfAGUXEALAbCYLLLYYI#NLYYLLLLLLGGGCGCGGbCCCCC",
"bGGh:DDr.IADAbDACCc NADpnCBLGCCGdVYLLGGAAbvAGEOYAAbAbLLLLLYR@vLLLLCJLZGLGGCGGGCGCbCCV",
"vVCs#GCbbbCbCCGAbbc+vGAbGbVGGbCGdVYLLaGLAbDAGEO/bAAbDYLLLLYIOvGIxxaVJJLDCGGCGGCCLbCbb",
"bvCs#vZCbbbbvCbbbvv#AAAGGvhGGCCGdCYvGrGYibAAAR EAAbbbYLGGLYY#FbLLYGYJLGLLYYYLLLLLLLCC",
"v*0u+LLLYGLifULbv9g hADDbChGGCbGpxYbL#YGibbAAI:^bAvbbAGYGLYY#M'LYJJJJYLYGVphYTEECbvnC",
"vbCs#LYGGLDLLCLCCvv@pGbbAvhGCCCCavYvG=GYfbADDT:LvAdbbAYGGLYI@H(SGAuhyuUSbCbbvvbvvCvCv",
"Cvvs#LvVFLLGGGCGCvvosZLbCvxCbCCGavYLG*YGvbCAAI,jvA;bbLGYGYYI+h_bCbbbbCCCbbbCbbAAZCGbC",
"Cvvs#LLLGGL2rCLCCbC.pbbbCbhbbvCGaxRYY#JYAbbAAJ,xvDibCJGGGYYY@h(bnbbbbZbDAvsflvbbCCACC",
"ZLG4#LLLALLCCGCCbCCohCbbvv>vvGGJpVRYG*LLAbAAAG$fxAQbbvLLGGYR$gbLLAAAAADDAAGAbbbAnbDGA",
"DnDs#YvLYYYCvvvCCCLosCbvvvavvGCYhvYYL;LLAAAAAY,vGAPAbLGLGGLR@hLCAAAbADDbAADDDAZD!Y+;C",
"Lbbs#YGCLZZCCLCZCYG#ssphxh;shshssChRFrVGFVGxxj,bRbAACLZLCGLY%MLvcCbbvCbbbbLLCGGLLILTY",
"sshu#VxVxvBVhhhMhhg#+wew3wr9riwqo#oo###@@#@#@O,VLAbACCLLCGGL@#xxxxhhxxxhxhfkxhhhpppss",
"hxVC@hhhssssxkjvxbbbvxxxVE/~ER~VhvC~Qg^EETRRRV-blAbAvvLGCGGY4qxx;xVVvV.xxxv#VhVaVCVF8",
"LLYB+avbZGGCbLbGGAGAGGAGCZGLLLLEvvYYL*JDGGALGV#vjAAACbGLGCGL@lTYtYYGLYFLLCV#QGIEFv/':",
"YYCC#h,:0YQDbAbDAAAbbAbbbAADALCIvsZZC:GLCCbGbv:vuAAAvVGLGCGG@vDArbbvYGLLLCh#CCDAbCLYo",
"GYRC@svCCCbGbDDAAADbAADDADZEUW!TvxYLC,GGVCbAAx#f2AGCbbGLCCCYoxbDrbbjGGLGZLMXCGGACCLLX",
"GYYG@hLCCCCZAAGAAAbAbnnbbbbCCGChVxLCL4GGlbAbAh:k<AAAVCLGCCbG#xCb#bAkGGGLCJs@CACLCCGL*",
"YCLG#hLvbCvCbGbbbbbbbCCCvCbbCCCVVxJCL>GLfbbAbh*xhLAGvbGGVACG#sLbObbxGGGGCLhXGAAbCCLL>",
"GCYC#hYlvCvvCVCCCCbGICiLASLLJLJBCsYLG>LCxCAAbh+pbnCZVCZZCCCY#pAlGDCCGGGGLLh@CAb;vCLL:",
"GlYLosIYGgqe638JJGGGYGGLLLLLLLLxChLCJ:LCvCDbAh+hnLCbCCCCCCVL#pAl!bvCLLCGGYh@CGD vCLL=",
"LCYL#sGbbbCCGGGLLLLLGGJGGLGLLYL)CxLCL<LZIb;AGpopbDCCVvCCCCCC#pAGAACDGGYGGYM#AAASVCLL,",
"LCYYXhGvvCCGGCGGACGAA<=rFGLLLZCeoxZCCMLCDb*Abp#pblCCvbvCvvCZ#pADAzCLGLGGGYh@GbAWvCLGw",
"GGYY#hGGGbbVCCCCCCGGGGLLLGGLLLYLvxGvLFGGbAaAbh#hG:bbVCCvvCZL#pbAbfbbGG9GvLx#CbGAbbLLC"
};
