/* XPM */
static char *floor21736886760[] = {
/* columns rows colors chars-per-pixel */
"85 85 71 1 ",
"  c #34251C",
". c #3A271C",
"X c #3C2A1E",
"o c #352620",
"O c #3A2720",
"+ c #362920",
"@ c #3D2C22",
"# c #3E3024",
"$ c #3F322A",
"% c #422C1F",
"& c #422E23",
"* c #412F28",
"= c #443125",
"- c #493426",
"; c #453429",
": c #4A362B",
"> c #47382A",
", c #4D392C",
"< c #523827",
"1 c #50372F",
"2 c #523C2D",
"3 c #593E2D",
"4 c #4C3730",
"5 c #4E3C32",
"6 c #4E3F38",
"7 c #503730",
"8 c #533E33",
"9 c #593F31",
"0 c #553F38",
"q c #5C402E",
"w c #4D423B",
"e c #554235",
"r c #594436",
"t c #5D4837",
"y c #564339",
"u c #5A463A",
"i c #57493D",
"p c #5D493B",
"a c #624634",
"s c #644936",
"d c #6B4B37",
"f c #634738",
"g c #634C3C",
"h c #694E3D",
"j c #714F3C",
"k c #67503E",
"l c #6A513E",
"z c #72533E",
"x c #524641",
"c c #5E4741",
"v c #564A43",
"b c #5C4C42",
"n c #594F48",
"m c #595048",
"M c #634D41",
"N c #6A4F40",
"B c #655142",
"V c #6C5342",
"C c #645349",
"Z c #6A5549",
"A c #6C5B4D",
"S c #725542",
"D c #785743",
"F c #755945",
"G c #7B5A45",
"H c #735A49",
"J c #7C5D49",
"K c #645650",
"L c #7F604B",
"P c #84634C",
"I c #88664F",
/* pixels */
"p,pprttppg%hkkkkka-tuptpe,ttpMfV;uuyiuyiuip6euuytupt,<kVlkkl=sprppg&rugpgg,8uu0yu0uuu",
"u:gpeeeuuVXhhhhkga-uuuyte,utuMpV;uuuyueuuiu8eptyeepf<2kVglsl=kyiytgXetuppg:8uu0c0uuuc",
"u;tpeytuuV%hskgkhs,tytey8:tuuttH:uuuyyyiuit52tuyyyuf,3kVglkl:ktyepgXetiutf,0u0yy0cyuy",
"p:tueyeueh%hggkkks-ttyeye-tuptpJ;uwerweuippw,uteyeug,qgVkkkd:kreetgX3utiug2800yy0uyuu",
"u:rurreueh%hsgkkhd-preeee-pyuupH=yyerwyriiu05tuetyef,rhgpkhz-lteeygXeyuppB2100y00yyyc",
"r:trurtutk-hkkkskz;srrerr-pepvgH;pweierruig48uuyytus,ahgkkkl,atretk@tyeppZ88080y0uuuu",
"u:gruruetM=lgkktkz=treeer=MptshV=geiieiiiup;etrretyt,akgkkgk<ete8yM&tbpgpC,8ryycyccyu",
"0:g0reu8fM=lgkkklz=ke,eet.-,:::-@Ceeiryyipp=tereyttr,ahhkgkk<ere8eh@@===== 6r0ryyyuuy",
"y:keyttepM&hhkkkkl%ky,eee%ssllFP-Me5uiupuii;rrrrettu:thhkdlg,<peees#,>upMZ4:y00uuuuyy",
"r,kyeeyytB=zgkhhkz%gtyeee=FySLbG;Myipiuiiui5tryryuus,qkkkklp<<tieetXtwiMMv44cyucuuyuu",
"y:VuprptKH=zkkkgkl@ge2yee=FFlHFF;kypiuuiiuu8tMCuuupV,rkhkkkp,:teeet@iepigu480ycyuyuuy",
"y:kklllqFl%lgVkhkSXte,eee-llllVF>Byyyyupiiy8ehVhVkkF<qltVllk<,reeep@yeiubu;0M0yc0y0cc",
"y;@;=;$@=#@lsSkhkF=gr,eee-llhgVF-Zeuyyuiuyu0@@=;=$#= elglkkpq,teeet#yeiuup;0c00ucu0yc",
"u:gZ,kggt:=lgVskkJ@teee2q-llhhVF=Beyyyuiiuu68F0hhfpr@ahhlllhe>te8et@8yyyuu;8u00uyycuy",
"u;NM,tpiSe=FhlkskGXeeeeey-lkggNG;Cyuyeiuuiu5rZ8tpuMZ&skkllkk<,eeeet$8uyuyi;50crrcyyyu",
"u;Nuetypke=VgllkkF&eteeet-lkhhNF=Nuuiepiucg5reetettk=skklllke,eteeh@5eyyyi44Myy0yMyMy",
"r;Meeueup3&VdNhBkS=,tyeer-dghhNS=kitiubcppp>eeeerrrh&adhhNVk2,yteeh#eeeyyp>,ccv00Miii",
"r=heutytt8&dgNfVhd@,yeeep:shhghS&McvuprViib;eetyrprM&ahVhsks:<eeeekX5eieei;;fMxu0cfcb",
"8=Metyter3&shNfVgh@teeeep-hhhhNV&p5yypeMNbu=eqytyu0f&<hkffBl,,ue8yB@eewrri$;01iyr9NMy",
"@@hetyuer8Xshshhhs&eeeerp&hhNkhh@-&@@@@@#@#.eeyuypef&2hhhghl-,eeeuV@5eriyi$O&@&@@@@&&",
"e;teutter2XskskkkaXereeyt=dhkhhh&HN-pgertrt;eeeurtet=<ksghhl-eereuh$86iuyy=,Zttgp1rau",
"p=tyyyyye2%lVhlklq%eteert:hhVhhd=hb2futVMpg:2eytteyt=<Hfkhhz%<rreeg@8euiyr=,gttppgggC",
"f:tuyttyte&zShlklq=tteeet:ggVkhz=hpupuptpppr3ettyees=3Dggkgz%qtietg=5eupuy;:ppppugtpu",
"p-getytett&SShVkza=preere,khSlhG-spgputtpttre8eytyrt-rGslkhG=etyept=weippu>,gwtpuptpt",
"t;feytyett&JBklpVd&gt8ee2,lhVlkG=tpppypppptu2eeeryuf-aHNVkMJ-9pueyt@eeipiu,,ppppupppi",
"t=teuuutpt&GrGGGGd&Myeyee,kgSlkG-tpppytppppt,eetpuuf;3fJGGGG-8tyeutXyeiiuu>,gpppupprp",
"f;tyeeutttX<;,,22:@gyeeee2hhlFlz-huppyppputf8eyyrirf;;-:,:,:X9uuept@eeiuyi>,tpppppppp",
"g;tetyueppXssgVBV2%tutete,dhlFlP-Vppppuppppt8eettttp=:McMCNC@3pieuh&8uuuup,,gMpppppup",
"p;perepurp&gygpfne@tyteeq2lhllkz=Bpupppppitt8ueeyptt;,b60Mnr*3eueug@eyuuip,,pppppupip",
"f-Veettupg&guuuerp@uyeuye,zllzhL-kptppppputu8peeuptt:5gyy00u&0tyruM&yyyuiu:,gppptpppt",
"g-Beeeputh@gprryut@ututee:zlllkL-ppypyppppf1epetpuut,:M000yy&8eurrp&0uuppu,,spptuppti",
"M-hetyuuuNOgtrrru2@peeee22zFlFkz=gpetpptupk23peeuutp,:cr0rri@euuert&uibppe:,typypuypt",
"g-pyyypypV@tytytt,=tyeeee2SHSShz-ptytppippB,etettput::irry0cO9peeegXppMpie;:tupeuptpp",
"f=gtetpttZ@trpyuu,&teerer8SGVhhj:pirpptpppg;8ueyupug5:u00cy0OrteyehXppguie::tupippupp",
"t;gyetpypN&ttpytp,@gretyr3SFSlsh:ptppuupppt,euetppug48u0yuycXepetyh=ppbuye4,puptupppp",
"t=gteypppV=ttpuus,Xgtryia3zFlVsj,pptpeuuppp>8ttyuptf8fucyccfX8teyuB%upbeyy:8pppiepptu",
"f-kurtpptM:gtpptg<=ktuuprqlFklsD,ppppytpppk-epypppph,Buy0MuMO3gutuB&eupyyy,8ppptupppu",
"p-gieypppg,fytypp2=kbeBwqshSSlfJ,uppppppppg,etyttypt:Myy0uuM&9Cibvp=euMiyy,8tpppupppp",
"t=gpytppgp;tytppp3Xg:e802VdHSlhD:upptiipppg-etu,tupg:Muy0uuM@8,r,p8=uupgyu;eppppppppp",
"p-guyuppgg;fpuuMp3 .oOO@@sllVVgG,tppptptpif,8tu,pppg:Mur0Mig@ o.@@$=rpupiu:eppMppuppu",
"t:guuuppgp;gputpge&0y0MC0hhzVzhG;gppppppppp,2pttpppg:CuyrcuM@0iyuNM;0cuMir=epgkppuupp",
"t5tupupgpt;gppipt2*xyy060sVVSVhG:ppkppppptteetipppgf:fuyrpyMOycxyxv;cbuvit=epppppptpp",
"p:fpyypppf@tppytt2=iyicc0alVVVVF,tpttptppppeertiupuf:4ucycyc@uiriub@rubppp,eppttuuppp",
"t:gpeupptMXeupepu8;ryyyc83lSVFSG:tirypeuptreepyrytrf1*yu0yyu&MiyiiM@yybuig,eppyyuupup",
"t:tpeyrtuZXtrrru08:0yu0y8qlkVSVP,putuyytppte<prryetg8-0c0c00@Miyeip@yyirik,etueuueupp",
"p:tteeyttMXuyrruu0:Myy008<hhllkP,aettyyurpreepeeyrtt::0i0yyu*Niyeup@epiyip,eetuttuupp",
"p:tyeetyeg@reruuu9:uy00082hhVllI:teetetupppe<ryiyyef:40yry0u*Myy6up@eeiiik5eeryyeutpp",
"a:tttyyttB@ueypu0a:uyyr083lsklSG,aereeuuipgeerrrytyg74ry0cyf*MxyeuM@eyriib,,eetteuupp",
"t:futytetk%rrureuf&uy80002VpVVZP,tettetippp:ettrrtpt780yyy0f*ru0eei@iiupvZ52teytytupp",
"r:feteyetBXtruuyug&M0580y:HHSzhd=hyuutyprps:eyyyetet:7yyy00u*0i05eB#yMMMue;,yututyppt",
"r,gyrryetk@pyutuuuOM84080@-::,qeXke5utitpit-rreyyrtr:8yyuyy0=8i85yp@==:,2r=,teyupypup",
"r,kyyetypM@pyutyuuOM05y88@tMVHCV=geeppppptt,rrettutt:7cyc0u0$4pyyypou;ZhVg,,tytpptppu",
"r:VytyripZ@ptpuyup@M08088OVupBpZ=kyptpptppt,tbeyeutk,,yyiyr0*5ueywu@tepgCb:ertppptppu",
"r:kyptppmHXtepptufOu04050@MpptgB=ByttrypitperSktipvZ8:y8uuy0*:uw0ep@typpkg-etyuupyiup",
"t=eeeee:t2XuutyyuM@u05850@fppyth=Vytyyipprte:,ee8e,r@:y0uur0;>u668p@eepypp;ettyutytup",
"r>>>#-=-;=XtypetyN@c88058@puuutM&Vrytyttirtw=,=>;->=@4y0yyyy4,yeyepXettyrp-etpttppupt",
"t=VZ,hghb8@gyprrpVOy08058@ptyyuh#Vyytetuppp2eHekhgVM&0c0uuy04:yy8ep$3yuupt=8tutuyttpp",
"p,Bp5uypBr@hyttrpMO8008y0XttyuuV=Vpptepuppt8rberyiBV&0yy0uc04:eyw8b@<yetut>8puuuppupi",
"t=MyetrtpeXpetrpugO8y880r@rrtyuk@kuiueptput,reqeeuuN&8yyuucf=,eyy6b#eetyup;5gppetgppt",
"t=heeuyut2Xteirpuu@5y808y*ryyyug$kpeitthgfp>reeyyurg&70y0yy0=,wyeyM#8eytyt=5ggutegtgp",
"t=keuytet2XyrteprrO00800y*uruutf@kuhtVtFVMi>e8tyyueg@:0c00yy$,yeeeM+8euutt;,g0pffgSNb",
":=geuytet8.eiyepreOry800u&urupepo8::,,=,852#reeutueg&-0y00uu@4yewyB@e8tuyu$=8:5::-878",
";=teteuee8Xeteytp8O808ry0@fyuurr@iy&48:=4,,#eetueuet&*yy0ryu@4yyeyB@3eturp=&07*74*-4:",
"e;teutuye, pteyti8O8y0000@uriurt@ZM;NMrZBpt;<eyuuuytO*M0yyyi@>eywub$2eupeu=:MfMMM7MMM",
"u-gyuuter8Opptupp<@0y00er*0tppuf&Ci0fupMvbp08ettyeet=;M8ry0MO8yywuM&8euttr=;byM00Mccc",
"u:grryuepp@gueupg2*ur8e00*rrutug@cibpyuuppiy3eyytetp;:M00c0NO0uueyM*8etptt4;ccucyficc",
"u;feetutup@Nyuupc9@uy0008&uyppuV&Mppiyiiipui88tytrit;4McyucN&8iu6iu&eepbpt::uuuc0uric",
"f:ueuyueuu@FetftN0@My5008-frptuS*uiupeiuucuy2eeeyryg;4MiccbZ&0uy8ii@eypguf11uiuuyuuuu",
"p=seueutpu.2=ee3e:&M08y88-prptuk=biuiupuuiM08retpurf;*;88888XepweipXeetpuu1:Muucucuuy",
"u=teetuepa&3e33t92*u00e00=repgpV=Buipuiipuuu,eeyriut:59399r8&8iiyub@qyptuu2:uuuuuuycc",
"f=tetepupp&HAlSFAs&r00000-triftS&Buibuiuiupu5tertuut:aVgSJHN-8yy8yp=eypuuf1:Muuyuucyi",
"i;geeypyua-Fthhhpd@0r0y00-prugrV&Vpuiuuiuibu8teeuprt:tVyNNps-eyyyikXeyutrf::MuMyuuycu",
"u-N0tyttuh=zkhsghhOryye08=pttguS=bpuiyuiuib8etetuuuf:qFhsfgk-,uyyyp@rtytpt,:M0Murucyu",
"M*NryyuutM%Skhhghs&c0y0e8=gitgyh=pi8iuiuuuM:epeetuuf23zhhhkl-eueyyu$tttptt2:uu0ricycc",
"f;gyeuputV-zhhhghr&uy0008=hBpgeh=pueuuiiiuM:etyyipif23lhdkhh=euy8ep@tpgpte-:uyu0uyuuy",
"u=greupupV%zhVhhkq&r08000-hMpget&vuuuiuuuiM-8tetuppf3rlhkkkj=eyweyg@kpbpte::uyc0uuuyu",
"c-greupuuV&jhVhhkq&pe00yy>hBkpes@puiuuiuiuM:8ueypptfeezhlkkl=eieyyb@fpgpte>-pucyurucu",
"r;MreutupV-hhlkhzq&ur0ery,gBpiet:iuicyruiib:etetyppg<dlklVlz%eiyeyg#tpkyee:,yuuc0cuui",
"u*NretuppN3SklhhSq@Mu0ri0,tBtpes;piupyiiubu;etytpppp2GVkkVVz%2piyuM@ttgeer,euiuyyucir",
"u-MruupppM8SVVkVSa*Mi0iyr<tpttek;uiuiuippub:etyypupf2JVkhVlG=qbpiyM$etkurq,,uiuucyupy",
"u&Bueupppg2SllkVSs&N5uy00argfpyV-iiuuiiucuM;eptepupt8GkhhVVD=e8MeCp$tppprr:8uuuurucyc",
"u;hueuppgf2llklVjaO2&;*:*urpgftk=iiuMiuuubb:epu,puMg:DlhhFVD-;;-=,;$tpggrp:8uubuyucuu",
"f;grutpppg2zVlllSsO982rp2rpppptN=bpuuuiiptp48tu8ptbs1JVhhVhD-:8,ept-tppptp:8uMucycuuu",
"u:tupuMppp1SVhkSVa&fxppvr0ppgttM=cpMMiuyiiu68uugpppf2FShkVVD&txtupb-pppppa:8uuMucuiuu",
"u4fuputMpf-hVhkVNa=aiuuieytppbfh;vpupiupiiu8rruppppg2dVllVkz-ruuuiM&ttpMpf:8ucubyuuuy"
};
