/* XPM */
static char *player1736886817[] = {
/* columns rows colors chars-per-pixel */
"85 85 236 2 ",
"   c #020301",
".  c #0D0B00",
"X  c #040606",
"o  c #100700",
"O  c #0B1200",
"+  c #071000",
"@  c #14130C",
"#  c #171703",
"$  c #070A15",
"%  c #0B131C",
"&  c #04151A",
"*  c #1A1A12",
"=  c #131A1D",
"-  c #1B1C1E",
";  c #151417",
":  c #140F13",
">  c #361419",
",  c #2F1317",
"<  c #09211F",
"1  c #282416",
"2  c #322C0E",
"3  c #020F21",
"4  c #061A23",
"5  c #1B1722",
"6  c #151C25",
"7  c #1A1C24",
"8  c #161D29",
"9  c #1A1D29",
"0  c #161625",
"q  c #1A1932",
"w  c #0E0B36",
"e  c #231A26",
"r  c #341A22",
"t  c #231F30",
"y  c #132123",
"u  c #1C2124",
"i  c #15202B",
"p  c #1D222B",
"a  c #1F282F",
"s  c #14212E",
"d  c #22232B",
"f  c #232A2E",
"g  c #272428",
"h  c #382726",
"j  c #252B34",
"k  c #2A2C34",
"l  c #262B36",
"z  c #342432",
"x  c #3D2D3C",
"c  c #372B37",
"v  c #2D323C",
"b  c #2A363E",
"n  c #30353D",
"m  c #39383D",
"M  c #37313A",
"N  c #2A302E",
"B  c #4D111D",
"V  c #5E1E1F",
"C  c #591D28",
"Z  c #481B2A",
"A  c #631D24",
"S  c #6C1E29",
"D  c #751B29",
"F  c #4B252A",
"G  c #492A2A",
"H  c #54222A",
"J  c #5B252A",
"K  c #4C312B",
"L  c #52332B",
"P  c #523327",
"I  c #412D3B",
"U  c #4A2D3F",
"Y  c #592E37",
"T  c #45363E",
"R  c #4A363A",
"E  c #5B3C33",
"W  c #543332",
"Q  c #6B212B",
"!  c #7B232A",
"~  c #6B2434",
"^  c #7A2733",
"/  c #623E34",
"(  c #693632",
")  c #66392D",
"_  c #3E4100",
"`  c #3F4030",
"'  c #7A7210",
"]  c #434334",
"[  c #594438",
"{  c #5D5C38",
"}  c #5B522D",
"|  c #635C2D",
" . c #6F4932",
".. c #654239",
"X. c #625C34",
"o. c #645739",
"O. c #775035",
"+. c #2F3643",
"@. c #323643",
"#. c #333943",
"$. c #3B3C49",
"%. c #3A3B45",
"&. c #322C44",
"*. c #463B42",
"=. c #5F3F41",
"-. c #3B4348",
";. c #3F4461",
":. c #4B494A",
">. c #594645",
",. c #59544A",
"<. c #444C55",
"1. c #494C56",
"2. c #464C59",
"3. c #464650",
"4. c #515457",
"5. c #6E4F43",
"6. c #614848",
"7. c #764B44",
"8. c #6D5043",
"9. c #655449",
"0. c #715143",
"q. c #73544D",
"w. c #6D5255",
"e. c #736A51",
"r. c #4E5267",
"t. c #494E74",
"y. c #4D557B",
"u. c #53547B",
"i. c #515765",
"p. c #676565",
"a. c #79776C",
"s. c #797572",
"d. c #767879",
"f. c #6F737E",
"g. c #841E2D",
"h. c #8B1C2D",
"j. c #871D35",
"k. c #9A1F3C",
"l. c #83212D",
"z. c #842227",
"x. c #832131",
"c. c #9D2D33",
"v. c #8B3D33",
"b. c #943E34",
"n. c #9D3A35",
"m. c #8E312F",
"M. c #A6272E",
"N. c #A22A33",
"B. c #AC322D",
"V. c #D52029",
"C. c #8E7914",
"Z. c #B16100",
"A. c #8B433C",
"S. c #944036",
"D. c #99463B",
"F. c #8E5433",
"G. c #AA5A3C",
"H. c #B15B3C",
"J. c #897827",
"K. c #90722B",
"L. c #AC6D3B",
"P. c #DE4C3D",
"I. c #E2473D",
"U. c #C2730A",
"Y. c #8F2D40",
"T. c #8D4E4B",
"R. c #874643",
"E. c #934547",
"W. c #92514C",
"Q. c #955C49",
"!. c #9A5653",
"~. c #89544F",
"^. c #AA5D41",
"/. c #B65E49",
"(. c #AE6244",
"). c #B16245",
"_. c #837E60",
"`. c #9D5266",
"'. c #DC4C43",
"]. c #D64743",
"[. c #DB5247",
"{. c #E44A44",
"}. c #E64947",
"|. c #EB5045",
" X c #C1724B",
".X c #9E9B00",
"XX c #8C891B",
"oX c #93852D",
"OX c #A49E35",
"+X c #B49732",
"@X c #BB942B",
"#X c #A3A22D",
"$X c #A4A231",
"%X c #B18E0E",
"&X c #C39713",
"*X c #D8AE38",
"=X c #E9D318",
"-X c #EBEC00",
";X c #F5ED00",
":X c #EEF104",
">X c #F5F501",
",X c #F9F501",
"<X c #F7F900",
"1X c #F9F901",
"2X c #F1F40F",
"3X c #E9E019",
"4X c #989350",
"5X c #B89B5C",
"6X c #AB9644",
"7X c #B49C61",
"8X c #A79A6A",
"9X c #D7B84A",
"0X c #CDAB47",
"qX c #E59665",
"wX c #E59967",
"eX c #DC9D5E",
"rX c #E6D353",
"tX c #DCE057",
"yX c #E5E24C",
"uX c #E7E553",
"iX c #F3F146",
"pX c #E0E06C",
"aX c #4C5581",
"sX c #757B82",
"dX c #787C85",
"fX c #7E8188",
"gX c #838586",
"hX c #949A9D",
"jX c #9E9BA2",
"kX c #B3B2B4",
"lX c #A5A096",
"zX c #DDCEB1",
"xX c #F9F9F8",
"cX c #E9EDF0",
"vX c #DDD3DE",
"bX c None",
/* pixels */
"bXbXbXbXbXbXbXbXbXbXbXbXbXbXbXbXbXbXbXbXbXbXbXbXbXbXbXbXbXbXbXbXbXbXbXbXbXbXbXbXbXbXbXbXbXbXbXbXbXbXbXbXbXbXbXbXbXbXbXbXbXbXbXbXbXbXbXbXbXbXbXbXbXbXbXbXbXbXbXbXbXbXbXbXbX",
"bXbXbXbXbXbXbXbXbXbXbXbXbXbXbXbXbXbXbXbXbXbXbXbXbXbXbXbXbXbXbXbXbXbXbXbXbXbXbXbXbXbXbXbXbXbXbXbXbXbXbXbXbXbXbXbXbXbXbXbXbXbXbXbXbXbXbXbXbXbXbXbXbXbXbXbXbXbXbXbXbXbXbXbXbX",
"bXbXbXbXbXbXbXbXbXbXbXbXbXbXbXbXbXbXbXbXbXbXbXbXbXbXbXbXbXbXbXbXbXbXbXbXbXbXbXbXbXbXbXbXbXbXbXbXbXbXbXbXbXbXbXbXbXbXbXbXbXbXbXbXbXbXbXbXbXbXbXbXbXbXbXbXbXbXbXbXbXbXbXbXbX",
"bXbXbXbXbXbXbXbXbXbXbXbXbXbXbXbXbXbXbXbXbXbXbXbXbXbXbXbXbXbXbXbXbXbXbXbXbXbXbXbXbXbXbXbXbXbXbXbXbXbXbXbXbXbXbXbXbXbXbXbXbXbXbXbXbXbXbXbXbXbXbXbXbXbXbXbXbXbXbXbXbXbXbXbXbX",
"bXbXbXbXbXbXbXbXbXbXbXbXbXbXbXbXbXbXbXbXbXbXbXbXbXbXbXbXbXbXbXbXbXbXbXbXbXbXbXbXbXbXbXbXbXbXbXbXbXbXbXbXbXbXbXbXbXbXbXbXbXbXbXbXbXbXbXbXbXbXbXbXbXbXbXbXbXbXbXbXbXbXbXbXbX",
"bXbXbXbXbXbXbXbXbXbXbXbXbXbXbXbXbXbXbXbXbXbXbXbXbXbXbXbXbXbXbXbXbXbXbXbXbXbXbXbXbXbXbXbXbXbXbXbXbXbXbXbXbXbXbXbXbXbXbXbXbXbXbXbXbXbXbXbXbXbXbXbXbXbXbXbXbXbXbXbXbXbXbXbXbX",
"bXbXbXbXbXbXbXbXbXbXbXbXbXbXbXbXbXbXbXbXbXbXbXbXbXbXbXbXbXbXbXbXbXbXbXbXbXbXbXbXbXbXbXbXbXbXbXbXbXbXbXbXbXbXbXbXbXbXbXbXbXbXbXbXbXbXbXbXbXbXbXbXbXbXbXbXbXbXbXbXbXbXbXbXbX",
"bXbXbXbXbXbXbXbXbXbXbXbXbXbXbXbXbXbXbXbXbXbXbXbXbXbXbXbXbXbXbXbXbXbXbXbXbXbXbXbXbXbXbXbXbXbXbXbXbXbXbXbXbXbXbXbXbXbXbXbXbXbXbXbXbXbXbXbXbXbXbXbXbXbXbXbXbXbXbXbXbXbXbXbXbX",
"bXbXbXbXbXbXbXbXbXbXbXbXbXbXbXbXbXbXbXbXbXbXbXbXbXbXbXbXbXbXbXbXbXbXbXbXbXbXbXbXbXbXbXbXbXbXbXbXbXbXbXbXbXbXbXbXbXbXbXbXbXbXbXbXbXbXbXbXbXbXbXbXbXbXbXbXbXbXbXbXbXbXbXbXbX",
"bXbXbXbXbXbXbXbXbXbXbXbXbXbXbXbXbXbXbXbXbXbXbXbXbXbXbXbXbXbXbXbXbXbXbXbXbXbXbXbXbXbXbXbXbXbXbXbXbXbXbXbXbXbXbXbXbXbXbXbXbXbXbXbXbXbXbXbXbXbXbXbXbXbXbXbXbXbXbXbXbXbXbXbXbX",
"bXbXbXbXbXbXbXbXbXbXbXbXbXbXbXbXbXbXbXbXbXbXbXbXbXbXbXbXbXbXbXbXbXbXbXbXbXbXbXbXbXbXbX#.+.+.bXbXbXbXbXbXbXbXbXbXbXbXbXbXbXbXbXbXbXbXbXbXbXbXbXbXbXbXbXbXbXbXbXbXbXbXbXbXbX",
"bXbXbXbXbXbXbXbXbXbXbXbXbXbXbXbXbXbXbXbXbXbXbXbXbXbXbXbXbXbXbXbXbXbXbXbXbXbXbXbX6 6 6 6 4.sXsXi bXbXbXbXbXbXbXbXbXbXbXbXbXbXbXbXbXbXbXbXbXbXbXbXbXbXbXbXbXbXbXbXbXbXbXbXbX",
"bXbXbXbXbXbXbXbXbXbXbXbXbXbXbXbXbXbXbXbXbXbXbXbXbXbXbXbXbXbXbXbXbXbXbXbXbXbXbX8 sXsXsXsX8 r.q i.i bXbXbXbXbXbXbXbXbXbXbXbXbXbXbXbXbXbXbXbXbXbXbXbXbXbXbXbXbXbXbXbXbXbXbXbX",
"bXbXbXbXbXbXbXbXbXbXbXbXbXbXbXbXbXbXbXbXbXbXbXbXbXbXbXbXbXbXbXbXbXbXbXbXbXbX6 sXxXsXdXd.7 9 0X6 f.% bXbXbXbXbXbXbXbXbXbXbXbXbXbXbXbXbXbXbXbXbXbXbXbXbXbXbXbXbXbXbXbXbXbXbX",
"bXbXbXbXbXbXbXbXbXbXbXbXbXbXbXbXbXbXbXbXbXbXbXbXbXbXbXbXbXbXbXbXbXbXbXbXbXp sXd.sXsXsXk 9.dX0X9. .fXbXbXbXbXbXbXbXbXbXbXbXbXbXbXbXbXbXbXbXbXbXbXbXbXbXbXbXbXbXbXbXbXbXbXbX",
"bXbXbXbXbXbXbXbXbXbXbXbXbXbXbXbXbXbXbXbXbXbXbXbXbXbXbXbXbXbXbXbXbXbXbXbXbXa f.sXsXd.sXf @X8X&.0X9X= <.bXbXbXbXbXbXbXbXbXbXbXbXbXbXbXbXbXbXbXbXbXbXbXbXbXbXbXbXbXbXbXbXbXbX",
"bXbXbXbXbXbXbXbXbXbXbXbXbXbXbXbXbXbXbXbXbXbXbXbXbXbXbXbXbXbXbXbXbXbXbXbX4 -X>X>X1X2X2Xf +X;.sX,.9XO p.bXbXbXbXbXbXbXbXbXbXbXbXbXbXbXbXbXbXbXbXbXbXbXbXbXbXbXbXbXbXbXbXbXbX",
"bXbXbXbXbXbXbXbXbXbXbXbXbXbXbXbXbXbXbXbXbXbXbXbXbXbXbXbXbXbXbXbXbXbXbXbX0 XXXXoXXXoXJ.g 9.9.w.9.9XO :.bXbXbXbXbXbXbXbXbXbXbXbXbXbXbXbXbXbXbXbXbXbXbXbXbXbXbXbXbXbXbXbXbXbX",
"bXbXbXbXbXbXbXbXbXbXbXbXbXbXbXbXbXbXbXbXbXbXbXbXbXbXbXbXbXbXbXbXbXbXbXbX% y.aXaXaXy.u.%X&X&X&X&X#.$ p bXbXbXbXbXbXbXbXbXbXbXbXbXbXbXbXbXbXbXbXbXbXbXbXbXbXbXbXbXbXbXbXbXbX",
"bXbXbXbXbXbXbXbXbXbXbXbXbXbXbXbXbXbXbXbXbXbXbXbXbXbXbXbXbXbXbXbXbXbX9 p u 7 7 7 7 u - 7 y 6 7 7 7 - 7 7 7 7 bXbXbXbXbXbXbXbXbXbXbXbXbXbXbXbXbXbXbXbXbXbXbXbXbXbXbXbXbXbXbX",
"bXbXbXbXbXbXbXbXbXbXbXbXbXbXbXbXbXbXbXbXbXbXbXbXbXbXbXbXbXbXbXbXbX8 sXdXfXgXfXfXfXfXfXfXfXdXfXdXfXfXu.u.aXu.u bXbXbXbXbXbXbXbXbXbXbXbXbXbXbXbXbXbXbXbXbXbXbXbXbXbXbXbXbXbX",
"bXbXbXbXbXbXbXbXbXbXbXbXbXbXbXbXbXbXbXbXbXbXbXbXbXbXbXbXbXbXbXbX$ sXsX8 7 7 9 u u u u 9 u 7 7 7 7 6 7 7 5 u.t.9 bXbXbXbXbXbXbXbXbXbXbXbXbXbXbXbXbXbXbXbXbXbXbXbXbXbXbXbXbX",
"bXbXbXbXbXbXbXbXbXbXbXbXbXbXbXbXbXbXbXbXbXbXbXbXbXbXbXbXbXbXbX9 r.r.8 8 7 P L 6 u H.^.(.(.).).).v.( r.7 - n 7 7 bXbXbXbXbXbXbXbXbXbXbXbXbXbXbXbXbXbXbXbXbXbXbXbXbXbXbXbXbX",
"bXbXbXbXbXbXbXbXbXbXbXbXbXbXbXbXbXbXbXbXbXbXbXbXbXbXbXbXbXbXbXbX  cXL L 3 L P 6 (.H.% 3 qXqXqXqX$ & 7 5 g bXbXbXbXbXbXbXbXbXbXbXbXbXbXbXbXbXbXbXbXbXbXbXbXbXbXbXbXbXbXbXbX",
"bXbXbXbXbXbXbXbXbXbXbXbXbXbXbXbXbXbXbXbXbXbXbXbXbXbXbXbXbXbXbXbXbXbXbXM n.O.r = (.(.wXwXwXqXwXqXqXF.K 7 7 bXbXbXbXbXbXbXbXbXbXbXbXbXbXbXbXbXbXbXbXbXbXbXbXbXbXbXbXbXbXbXbX",
"bXbXbXbXbXbXbXbXbXbXbXbXbXbXbXbXbXbXbXbXbXbXbXbXbXbXbXbXbXbXbXbXbXbXbXy S.S.p - (.(.wX3.xXqXwXxX1 cXP 0 a bXbXbXbXbXbXbXbXbXbXbXbXbXbXbXbXbXbXbXbXbXbXbXbXbXbXbXbXbXbXbXbX",
"bXbXbXbXbXbXbXbXbXbXbXbXbXbXbXbXbXbXbXbXbXbXbXbXbXbXbXbXbXbXbXbXbXbXbXy v.v.a - (.(.wX,.xXwXqXxX1 xXP 7 p bXbXbXbXbXbXbXbXbXbXbXbXbXbXbXbXbXbXbXbXbXbXbXbXbXbXbXbXbXbXbXbX",
"bXbXbXbXbXbXbXbXbXbXbXbXbXbXbXbXbXbXbXbXbXbXbXbXbXbXbXbXbXbXbXbXbXbXbX7 W L 7 G.^.(.wXvX~.wXqXF.xXQ.7 7 7 bXbXbXbXbXbXbXbXbXbXbXbXbXbXbXbXbXbXbXbXbXbXbXbXbXbXbXbXbXbXbXbX",
"bXbXbXbXbXbXbXbXbXbXbXbXbXbXbXbXbXbXbXbXbXbXbXbXbXbXbXbXbXbXbXq 9 bXbX2.h P u G.).).wXwXwXwXH.qXqXwX7 F C & bXbXbXbXbXbXbXbXbXbXbXbXbXbXbXbXbXbXbXbXbXbXbXbXbXbXbXbXbXbXbX",
"bXbXbXbXbXbXbXbXbXbXbXbXbXbXbXbXbXbXbXbXbXbXbXbXbXbXbXbXbX7 =.=.=...9 2.;.y - (.H.). XwXwXq d qXqXwX8 F A l.7 bXbXbXbXbXbXbXbXbXbXbXbXbXbXbXbXbXbXbXbXbXbXbXbXbXbXbXbXbXbX",
"bXbXbXbXbXbXbXbXbXbXbXbXbXbXbXbXbXbXbXbXbXbXbXbXbXbXbXbX1.*XxX7X5X5XU.-.7 6 P L H.).H.qXwXwXqXqXqXwX1.0 r x.l.0 bXbXbXbXbXbXbXbXbXbXbXbXbXbXbXbXbXbXbXbXbXbXbXbXbXbXbXbXbX",
"bXbXbXbXbXbXbXbXbXbXbXbXbXbXbXbXbXbXbXbXbXbXbXbXbXbXbXbX3.>X0X7X7XL.oXZ.7 7 ~.T.- : : D.G.H.  o o D.% 2.1.e Z ! % bXbXbXbXbXbXbXbXbXbXbXbXbXbXbXbXbXbXbXbXbXbXbXbXbXbXbXbX",
"bXbXbXbXbXbXbXbXbXbXbXbXbXbXbXbXbXbXbXbXbXbXbXbXbXbXbXbX$.+X5X7XoXoXg 7 n @.9 T.T.W.5 .. . . .= )./.3 2.2.<.6 l.^ bXbXbXbXbXbXbXbXbXbXbXbXbXbXbXbXbXbXbXbXbXbXbXbXbXbXbXbX",
"bXbXbXbXbXbXbXbXbXbXbXbXbXbXbXbXbXbXbXbXbXbXbXbXbXbXbXbX%.+X5X7XoXF.!.!.f @.7 T.T.W.6.W  . . .- G./.% v v <.i l.( %.bXbXbXbXbXbXbXbXbXbXbXbXbXbXbXbXbXbXbXbXbXbXbXbXbXbXbX",
"bXbXbXbXbXbXbXbXbXbXbXbXbXbXbXbXbXbXbXbXbXbXbXbXbXbXbXbXr k.j.k.$ cX[.[.7 @.0 7 6.>.T.T.i  .4 A.R.~.i lXhX6 2.G C 4 bXbXbXbXbXbXbXbXbXbXbXbXbXbXbXbXbXbXbXbXbXbXbXbXbXbXbX",
"bXbXbXbXbXbXbXbXbXbXbXbXbXbXbXbXbXbXbXbXbXbXbXbXbXbXbXbXr kXkXu xX|.[.[.; 8 #.0 9 y E T.6 6 7 E.T.8 n e > S.0 7 H l.9 v bXbXbXbXbXbXbXbXbXbXbXbXbXbXbXbXbXbXbXbXbXbXbXbXbX",
"bXbXbXbXbXbXbXbXbXbXbXbXbXbXbXbXbXbXbXbXbXbXbXbXbXbXbXbX1 jXM cX[.{.[.A.W 6 6 7 u >.@ p.p.e.e.0.i p.n zXkXD.S.7 ; l.9 k bXbXbXbXbXbXbXbXbXbXbXbXbXbXbXbXbXbXbXbXbXbXbXbXbX",
"bXbXbXbXbXbXbXbXbXbXbXbXbXbXbXbXbXbXbXbXbXbXbXbXbXbXbXbX> -.cX].P.{.A.E R 6 d g R T ] v - 5 ; 7 O.8.v sX8XS.S.h e j.j n bXbXbXbXbXbXbXbXbXbXbXbXbXbXbXbXbXbXbXbXbXbXbXbXbX",
"bXbXbXbXbXbXbXbXbXbXbXbXbXbXbXbXbXbXbXbXbXbXbXbXbXbXbXbXy [.[.{.E E W m T 6 - ! z.P.5 8.7 7 @ e 5.9.8 hXlX$ b.n.7.C x.Y bXbXbXbXbXbXbXbXbXbXbXbXbXbXbXbXbXbXbXbXbXbXbXbXbX",
"bXbXbXbXbXbXbXbXbXbXbXbXbXbXbXbXbXbXbXbXbXbXbXbXbXbXbXbXu '.I.I.E E / m T 7 7 ! g.|.- 5.8 7 @ 7 5.9.8 jX7X$ b.b.R.C l.U 1.bXbXbXbXbXbXbXbXbXbXbXbXbXbXbXbXbXbXbXbXbXbXbXbX",
"bXbXbXbXbXbXbXbXbXbXbXbXbXbXbXbXbXbXbXbXbXbXbXbXbXbXbX5 `.B.Y *.b h :.:.*.7 9 , , > - 1 9 7 @ 7 * - 8 gXlX$ b.S.R.r h.M.$ bXbXbXbXbXbXbXbXbXbXbXbXbXbXbXbXbXbXbXbXbXbXbXbX",
"bXbXbXbXbXbXbXbXbXbXbXbXbXbXbXbXbXbXbXbXbXbXbXbXbXbXbXa P.n.A./ / 7 1.T 7 C.0 6 7 f -X-X9 8 * 7 -X;Xw 6X6XX S.S.R.l h.B.& 2.bXbXbXbXbXbXbXbXbXbXbXbXbXbXbXbXbXbXbXbXbXbXbX",
"bXbXbXbXbXbXbXbXbXbXbXbXbXbXbXbXbXbXbXbXbXbXbXbXbXbXbXu '.'.A./ ( T R R J.J.7 V.=Xa ,X>X8 7 * - ,X1X*.=X=XX v.S.R.l C S '.q bXbXbXbXbXbXbXbXbXbXbXbXbXbXbXbXbXbXbXbXbXbXbX",
"bXbXbXbXbXbXbXbXbXbXbXbXbXbXbXbXbXbXbXbXbXbXbXbXbXbXbXu I.I.v.( ( T *.8 K.C.7 7 = t >X;X7 7 * - -X;X;X$.@.( S.b.7.l 5 S '.9 bXbXbXbXbXbXbXbXbXbXbXbXbXbXbXbXbXbXbXbXbXbXbX",
"bXbXbXbXbXbXbXbXbXbXbXbXbXbXbXbXbXbXbXbXbXbXbXbXbXbXbX6 + . . . .     7 7 5 5 - @ @ @ @ 8 q * 7 ; ; ; 6 # + + +   t.- V }.9 bXbXbXbXbXbXbXbXbXbXbXbXbXbXbXbXbXbXbXbXbXbXbX",
"bXbXbXbXbXbXbXbXbXbXbXbXbXbXbXbXbXbXbXbXbXbXbXbXbXbXbXN >X1X,X,X;X$X$Xu m x I I | } | | 8 q * 5 0.0.0.7 _ $X<X<XiXt.7 V }.8 bXbXbXbXbXbXbXbXbXbXbXbXbXbXbXbXbXbXbXbXbXbXbX",
"bXbXbXbXbXbXbXbXbXbXbXbXbXbXbXbXbXbXbXbXbXbXbXbXbXbXbXN >X1X,X,X,X$X#Xu m I I I | | | | 8 q * 7 0.0.0.9 _ $X1X1XiXt.7 V }.9 bXbXbXbXbXbXbXbXbXbXbXbXbXbXbXbXbXbXbXbXbXbXbX",
"bXbXbXbXbXbXbXbXbXbXbXbXbXbXbXbXbXbXbXbXbXbXbXbXbXbXbXk uXuXuXuXrX4X4Xe # # o # O + O O 6 q * 7 + + O . 2 4XyXyXpXt.7 Q }.7 bXbXbXbXbXbXbXbXbXbXbXbXbXbXbXbXbXbXbXbXbXbXbX",
"bXbXbXbXbXbXbXbXbXbXbXbXbXbXbXbXbXbXbXbXbXbXbXbXbXbXbX7 [.}.E./ E I x d J.#XOX$X$X6X<X,X9 0 * 7 >X<X<X,XtXS.D.D.7.t.7 V }.- bXbXbXbXbXbXbXbXbXbXbXbXbXbXbXbXbXbXbXbXbXbXbX",
"bXbXbXbXbXbXbXbXbXbXbXbXbXbXbXbXbXbXbXbXbXbXbXbXbXbXbXbX< [.R./ [ I T f J.#X#X#X#XOX1X,X9 7 * 7 >X1X>X,XtXb.S.S.~.l 7 A }.7 bXbXbXbXbXbXbXbXbXbXbXbXbXbXbXbXbXbXbXbXbXbXbX",
"bXbXbXbXbXbXbXbXbXbXbXbXbXbXbXbXbXbXbXbXbXbXbXbXbXbXbXbX& P.A.E ) I x 6 6 6 9 9 8 6 0 0 8 0 1 7 8 0 8 8 7 W v.b.( l 8 A }.7 bXbXbXbXbXbXbXbXbXbXbXbXbXbXbXbXbXbXbXbXbXbXbX",
"bXbXbXbXbXbXbXbXbXbXbXbXbXbXbXbXbXbXbXbXbXbXbXbXbXbXbXl -.g 1 1 2 e 9 j x x x x x m m 9.6 7 2 i 6.5.5.5.,.7 8 0 1 8 H S W.f bXbXbXbXbXbXbXbXbXbXbXbXbXbXbXbXbXbXbXbXbXbXbX",
"bXbXbXbXbXbXbXbXbXbXbXbXbXbXbXbXbXbXbXbXbXbXbXbXbXbXbXl 7 a.| | | $.i j &.I I x x x c e 7 I } 7 8.5.8.5.,.@.@.+.{ u H D 4 bXbXbXbXbXbXbXbXbXbXbXbXbXbXbXbXbXbXbXbXbXbXbXbX",
"bXbXbXbXbXbXbXbXbXbXbXbXbXbXbXbXbXbXbXbXbXbXbXbXbXbXbXk - s.s.| } | | 6 x x I I c I I I x u 5 | u 8.8.8 2 | | v n 6 H D 4 bXbXbXbXbXbXbXbXbXbXbXbXbXbXbXbXbXbXbXbXbXbXbXbX",
"bXbXbXbXbXbXbXbXbXbXbXbXbXbXbXbXbXbXbXbXbXbXbXbXbXbXbXl e.e.e.| ,.,.| 7 z z z z z z z z R M T G K K K W ] | X.| ] Z l.z.= bXbXbXbXbXbXbXbXbXbXbXbXbXbXbXbXbXbXbXbXbXbXbXbX",
"bXbXbXbXbXbXbXbXbXbXbXbXbXbXbXbXbXbXbXbXbXbXbXbXbXbXv 7 a.| | | +.6 v 7 0 7 7 7 7 7 7 - 6 7 6 6 6 6 8 6 & | X.| %.H l.W bXbXbXbXbXbXbXbXbXbXbXbXbXbXbXbXbXbXbXbXbXbXbXbXbX",
"bXbXbXbXbXbXbXbXbXbXbXbXbXbXbXbXbXbXbXbXbXbXbXbXbXbXv 7 o.{ s.| +.i 7 j x x x x x I 8 7 8 7 7 7 I x x 8 9 @.| @.n J z.W bXbXbXbXbXbXbXbXbXbXbXbXbXbXbXbXbXbXbXbXbXbXbXbXbX",
"bXbXbXbXbXbXbXbXbXbXbXbXbXbXbXbXbXbXbXbXbXbXbXbXbX;.6 F 0 { #.| +.8 6 7 7 8 8 8 8 8 9 e j I T 5 7 [ / q 8 @.0 @.= j.0 v bXbXbXbXbXbXbXbXbXbXbXbXbXbXbXbXbXbXbXbXbXbXbXbXbX",
"bXbXbXbXbXbXbXbXbXbXbXbXbXbXbXbXbXbXbXbXbXbXbXbXbX, ! D 7 v v v b v 6 d I 0.q.5.0.q.q.u j I I - x 5.5. .w.0 8 > ^ 0 bXbXbXbXbXbXbXbXbXbXbXbXbXbXbXbXbXbXbXbXbXbXbXbXbXbXbX",
"bXbXbXbXbXbXbXbXbXbXbXbXbXbXbXbXbXbXbXbXbXbXbXbX7 g.x.x.6 6 6 9 u u k u x 8.0.0.8.O.q.e j x x - I 5.5.5.w.7 y ! ~ bXbXbXbXbXbXbXbXbXbXbXbXbXbXbXbXbXbXbXbXbXbXbXbXbXbXbXbX",
"bXbXbXbXbXbXbXbXbXbXbXbXbXbXbXbXbXbXbXbXbXbXbX6 C g.g.8 bXbXbXbXbX7 x p I 8.0.0.5.O.w.9 j *.I 8 x 5.5.5.5.% ! l.0 bXbXbXbXbXbXbXbXbXbXbXbXbXbXbXbXbXbXbXbXbXbXbXbXbXbXbXbX",
"bXbXbXbXbXbXbXbXbXbXbXbXbXbXbXbXbXbXbXbXbXbXz ^ ! l bXbXbXbXbXbXbX7 m s ~ %.m m m %.q.9 j I I 7 x 5.5.8.7.3 c #.bXbXbXbXbXbXbXbXbXbXbXbXbXbXbXbXbXbXbXbXbXbXbXbXbXbXbXbXbX",
"bXbXbXbXbXbXbXbXbXbXbXbXbXbXbXbXbXbXbXbXbX6 ~ ! 0 bXbXbXbXbXbXbXbX9 B.4 Q ~ Q Q Q Q E.9 l x I 7 x 5.W.W.!.& bXbXbXbXbXbXbXbXbXbXbXbXbXbXbXbXbXbXbXbXbXbXbXbXbXbXbXbXbXbXbX",
"bXbXbXbXbXbXbXbXbXbXbXbXbXbXbXbXbXbXbXbX7 F x.4 bXbXbXbXbXbXbXbXbXp N.8 0 N.N.N.c.c.~ 7 j x x x u W.W.W.q.9 bXbXbXbXbXbXbXbXbXbXbXbXbXbXbXbXbXbXbXbXbXbXbXbXbXbXbXbXbXbXbX",
"bXbXbXbXbXbXbXbXbXbXbXbXbXbXbXbXbXbXbXbXu g.B bXbXbXbXbXbXbXbXbXbX9 c.N.M.M.M.M.M.N.c.8 l C A A Q c.I.I.].4 bXbXbXbXbXbXbXbXbXbXbXbXbXbXbXbXbXbXbXbXbXbXbXbXbXbXbXbXbXbXbX",
"bXbXbXbXbXbXbXbXbXbXbXbXbXbXbXbXbXbXbXj F l.B bXbXbXbXbXbXbXbXbXbXp 7 - u 7 9 9 9 9 7 7 8 q 8 7 6 u d e q 0 bXbXbXbXbXbXbXbXbXbXbXbXbXbXbXbXbXbXbXbXbXbXbXbXbXbXbXbXbXbXbX",
"bXbXbXbXbXbXbXbXbXbXbXbXbXbXbXbXbXbXbXg g.h.B bXbXbXbXbXbXbXbXbXbX9 #X$XOX>X>X>X>X>X2Xm [ ' ' $X$X.X>X-XrX1.bXbXbXbXbXbXbXbXbXbXbXbXbXbXbXbXbXbXbXbXbXbXbXbXbXbXbXbXbXbXbX",
"bXbXbXbXbXbXbXbXbXbXbXbXbXbXbXbXbXbXbXz g.D B bXbXbXbXbXbXbXbXbXbXu $X$X$X1X1X1X>X,X>X] R J.' OX#X.X>X,XyX2.bXbXbXbXbXbXbXbXbXbXbXbXbXbXbXbXbXbXbXbXbXbXbXbXbXbXbXbXbXbXbX",
"bXbXbXbXbXbXbXbXbXbXbXbXbXbXbXbXbXbXbX-.j g.j.D k j k l f a a a f 8 -.2.;.a.a.a.a.a.s.k M #.$.2.2.3.a._._.2.bXbXbXbXbXbXbXbXbXbXbXbXbXbXbXbXbXbXbXbXbXbXbXbXbXbXbXbXbXbXbX",
"bXbXbXbXbXbXbXbXbXbXbXbXbXbXbXbXbXbXbXbXbX7 g.g.g.g.g.].].P.].].0 #.$.+.` { o.o.X.X.+.@.#.#.@.+.+.X.X.X.o.$ bXbXbXbXbXbXbXbXbXbXbXbXbXbXbXbXbXbXbXbXbXbXbXbXbXbXbXbXbXbXbX",
"bXbXbXbXbXbXbXbXbXbXbXbXbXbXbXbXbXbXbXbXbX$.Y g.g.g.j.! ^ g.! g.6 v b | a.f.a.s.a.a.X.+.#.@.@.@.o.,.s.s.s.s.9 bXbXbXbXbXbXbXbXbXbXbXbXbXbXbXbXbXbXbXbXbXbXbXbXbXbXbXbXbXbX",
"bXbXbXbXbXbXbXbXbXbXbXbXbXbXbXbXbXbXbXbXbX$.j 7 0 7 5 9 0 7 7 0 i k b -.{ | { { X.X.X.j j f 8 @.#.| | | | #.9 bXbXbXbXbXbXbXbXbXbXbXbXbXbXbXbXbXbXbXbXbXbXbXbXbXbXbXbXbXbX",
"bXbXbXbXbXbXbXbXbXbXbXbXbXbXbXbXbXbXbXbXbXbXbXbXbXbXbXbXbXbXbXbX9 9 j @.+.#.+.#.@.@.#.9 8 7 0 9 k | | | ,.#.7 bXbXbXbXbXbXbXbXbXbXbXbXbXbXbXbXbXbXbXbXbXbXbXbXbXbXbXbXbXbX",
"bXbXbXbXbXbXbXbXbXbXbXbXbXbXbXbXbXbXbXbXbXbXbXbXbXbXbXbXbXbXbXbXbXbXbX9 6 9 u 7 e 7 7 bXbXbXbXbX7 7 g - u 7 bXbXbXbXbXbXbXbXbXbXbXbXbXbXbXbXbXbXbXbXbXbXbXbXbXbXbXbXbXbXbX",
"bXbXbXbXbXbXbXbXbXbXbXbXbXbXbXbXbXbXbXbXbXbXbXbXbXbXbXbXbXbXbXbXbXbXbXbXbXbXbXbXbXbXbXbXbXbXbXbXbXbXbXbXbXbXbXbXbXbXbXbXbXbXbXbXbXbXbXbXbXbXbXbXbXbXbXbXbXbXbXbXbXbXbXbXbX",
"bXbXbXbXbXbXbXbXbXbXbXbXbXbXbXbXbXbXbXbXbXbXbXbXbXbXbXbXbXbXbXbXbXbXbXbXbXbXbXbXbXbXbXbXbXbXbXbXbXbXbXbXbXbXbXbXbXbXbXbXbXbXbXbXbXbXbXbXbXbXbXbXbXbXbXbXbXbXbXbXbXbXbXbXbX",
"bXbXbXbXbXbXbXbXbXbXbXbXbXbXbXbXbXbXbXbXbXbXbXbXbXbXbXbXbXbXbXbXbXbXbXbXbXbXbXbXbXbXbXbXbXbXbXbXbXbXbXbXbXbXbXbXbXbXbXbXbXbXbXbXbXbXbXbXbXbXbXbXbXbXbXbXbXbXbXbXbXbXbXbXbX",
"bXbXbXbXbXbXbXbXbXbXbXbXbXbXbXbXbXbXbXbXbXbXbXbXbXbXbXbXbXbXbXbXbXbXbXbXbXbXbXbXbXbXbXbXbXbXbXbXbXbXbXbXbXbXbXbXbXbXbXbXbXbXbXbXbXbXbXbXbXbXbXbXbXbXbXbXbXbXbXbXbXbXbXbXbX",
"bXbXbXbXbXbXbXbXbXbXbXbXbXbXbXbXbXbXbXbXbXbXbXbXbXbXbXbXbXbXbXbXbXbXbXbXbXbXbXbXbXbXbXbXbXbXbXbXbXbXbXbXbXbXbXbXbXbXbXbXbXbXbXbXbXbXbXbXbXbXbXbXbXbXbXbXbXbXbXbXbXbXbXbXbX",
"bXbXbXbXbXbXbXbXbXbXbXbXbXbXbXbXbXbXbXbXbXbXbXbXbXbXbXbXbXbXbXbXbXbXbXbXbXbXbXbXbXbXbXbXbXbXbXbXbXbXbXbXbXbXbXbXbXbXbXbXbXbXbXbXbXbXbXbXbXbXbXbXbXbXbXbXbXbXbXbXbXbXbXbXbX",
"bXbXbXbXbXbXbXbXbXbXbXbXbXbXbXbXbXbXbXbXbXbXbXbXbXbXbXbXbXbXbXbXbXbXbXbXbXbXbXbXbXbXbXbXbXbXbXbXbXbXbXbXbXbXbXbXbXbXbXbXbXbXbXbXbXbXbXbXbXbXbXbXbXbXbXbXbXbXbXbXbXbXbXbXbX",
"bXbXbXbXbXbXbXbXbXbXbXbXbXbXbXbXbXbXbXbXbXbXbXbXbXbXbXbXbXbXbXbXbXbXbXbXbXbXbXbXbXbXbXbXbXbXbXbXbXbXbXbXbXbXbXbXbXbXbXbXbXbXbXbXbXbXbXbXbXbXbXbXbXbXbXbXbXbXbXbXbXbXbXbXbX",
"bXbXbXbXbXbXbXbXbXbXbXbXbXbXbXbXbXbXbXbXbXbXbXbXbXbXbXbXbXbXbXbXbXbXbXbXbXbXbXbXbXbXbXbXbXbXbXbXbXbXbXbXbXbXbXbXbXbXbXbXbXbXbXbXbXbXbXbXbXbXbXbXbXbXbXbXbXbXbXbXbXbXbXbXbX",
"bXbXbXbXbXbXbXbXbXbXbXbXbXbXbXbXbXbXbXbXbXbXbXbXbXbXbXbXbXbXbXbXbXbXbXbXbXbXbXbXbXbXbXbXbXbXbXbXbXbXbXbXbXbXbXbXbXbXbXbXbXbXbXbXbXbXbXbXbXbXbXbXbXbXbXbXbXbXbXbXbXbXbXbXbX",
"bXbXbXbXbXbXbXbXbXbXbXbXbXbXbXbXbXbXbXbXbXbXbXbXbXbXbXbXbXbXbXbXbXbXbXbXbXbXbXbXbXbXbXbXbXbXbXbXbXbXbXbXbXbXbXbXbXbXbXbXbXbXbXbXbXbXbXbXbXbXbXbXbXbXbXbXbXbXbXbXbXbXbXbXbX"
};
