/* XPM */
static char * player2_xpm[] = {
"85 85 305 2",
"  	c #A96B3B",
". 	c #91562D",
"+ 	c #8E5933",
"@ 	c #9A5F39",
"# 	c #9C6134",
"$ 	c #995E33",
"% 	c #713E1E",
"& 	c #824B25",
"* 	c #894F2B",
"= 	c #824D31",
"- 	c #B17642",
"; 	c #B67C3D",
"> 	c #925731",
", 	c #945A32",
"' 	c #945A2E",
") 	c #A26535",
"! 	c #96613A",
"~ 	c #794B31",
"{ 	c #84512C",
"] 	c #B97F3D",
"^ 	c #B87E41",
"/ 	c #7D502D",
"( 	c #7F5431",
"_ 	c #7B4C2B",
": 	c #B47C42",
"< 	c #8C5423",
"[ 	c #955E3A",
"} 	c #966136",
"| 	c #8B542D",
"1 	c #855332",
"2 	c #8B5532",
"3 	c #794729",
"4 	c #9B633A",
"5 	c #A26639",
"6 	c #9D612F",
"7 	c #723F21",
"8 	c #995E2F",
"9 	c #BA813D",
"0 	c #BA8141",
"a 	c #764730",
"b 	c #915726",
"c 	c #B67D49",
"d 	c #7A4625",
"e 	c #A4693A",
"f 	c #AC783F",
"g 	c #76492C",
"h 	c #8D592C",
"i 	c #AE7942",
"j 	c #74452B",
"k 	c #A36A41",
"l 	c #A66A35",
"m 	c #734324",
"n 	c #855125",
"o 	c #9E683E",
"p 	c #824E2B",
"q 	c #6D3E22",
"r 	c #764A30",
"s 	c #B68047",
"t 	c #7B4A26",
"u 	c #6C422A",
"v 	c #6D4125",
"w 	c #8F5738",
"x 	c #333943",
"y 	c #2F3643",
"z 	c #151C25",
"A 	c #515457",
"B 	c #757B82",
"C 	c #15202B",
"D 	c #73421D",
"E 	c #8D5A39",
"F 	c #161D29",
"G 	c #4E5267",
"H 	c #1A1932",
"I 	c #515765",
"J 	c #6C401F",
"K 	c #F9F9F8",
"L 	c #787C85",
"M 	c #767879",
"N 	c #1A1C24",
"O 	c #1A1D29",
"P 	c #CDAB47",
"Q 	c #6F737E",
"R 	c #0B131C",
"S 	c #7D491F",
"T 	c #AE7641",
"U 	c #1D222B",
"V 	c #2A2C34",
"W 	c #655449",
"X 	c #6F4932",
"Y 	c #7E8188",
"Z 	c #1F282F",
"` 	c #232A2E",
" .	c #BB942B",
"..	c #A79A6A",
"+.	c #322C44",
"@.	c #D7B84A",
"#.	c #131A1D",
"$.	c #444C55",
"%.	c #A86C37",
"&.	c #061A23",
"*.	c #EBEC00",
"=.	c #F5F501",
"-.	c #F9F901",
";.	c #F1F40F",
">.	c #B49732",
",.	c #3F4461",
"'.	c #59544A",
").	c #0B1200",
"!.	c #676565",
"~.	c #161625",
"{.	c #8C891B",
"].	c #93852D",
"^.	c #897827",
"/.	c #272428",
"(.	c #6D5255",
"_.	c #4B494A",
":.	c #9C6641",
"<.	c #9D6942",
"[.	c #4D557B",
"}.	c #4C5581",
"|.	c #53547B",
"1.	c #B18E0E",
"2.	c #C39713",
"3.	c #070A15",
"4.	c #1C2124",
"5.	c #1B1C1E",
"6.	c #132123",
"7.	c #838586",
"8.	c #1B1722",
"9.	c #494E74",
"0.	c #B0753E",
"a.	c #523327",
"b.	c #52332B",
"c.	c #B15B3C",
"d.	c #AA5D41",
"e.	c #AE6244",
"f.	c #B16245",
"g.	c #8B3D33",
"h.	c #693632",
"i.	c #30353D",
"j.	c #020301",
"k.	c #E9EDF0",
"l.	c #020F21",
"m.	c #E59665",
"n.	c #04151A",
"o.	c #37313A",
"p.	c #9D3A35",
"q.	c #775035",
"r.	c #341A22",
"s.	c #E59967",
"t.	c #8E5433",
"u.	c #4C312B",
"v.	c #944036",
"w.	c #464650",
"x.	c #282416",
"y.	c #543332",
"z.	c #AA5A3C",
"A.	c #DDD3DE",
"B.	c #89544F",
"C.	c #955C49",
"D.	c #464C59",
"E.	c #382726",
"F.	c #4B252A",
"G.	c #591D28",
"H.	c #5F3F41",
"I.	c #654239",
"J.	c #C1724B",
"K.	c #22232B",
"L.	c #631D24",
"M.	c #83212D",
"N.	c #B97E4A",
"O.	c #494C56",
"P.	c #D8AE38",
"Q.	c #B49C61",
"R.	c #B89B5C",
"S.	c #C2730A",
"T.	c #3B4348",
"U.	c #832131",
"V.	c #AC6D3B",
"W.	c #B16100",
"X.	c #8D4E4B",
"Y.	c #140F13",
"Z.	c #99463B",
"`.	c #100700",
" +	c #231A26",
".+	c #481B2A",
"++	c #7B232A",
"@+	c #AC723D",
"#+	c #3B3C49",
"$+	c #323643",
"%+	c #92514C",
"&+	c #B65E49",
"*+	c #7A2733",
"=+	c #3A3B45",
"-+	c #9A5653",
";+	c #614848",
">+	c #2D323C",
",+	c #9A1F3C",
"'+	c #871D35",
")+	c #DB5247",
"!+	c #594645",
"~+	c #8B433C",
"{+	c #874643",
"]+	c #A5A096",
"^+	c #949A9D",
"/+	c #492A2A",
"(+	c #B3B2B4",
"_+	c #EB5045",
":+	c #151417",
"<+	c #5B3C33",
"[+	c #934547",
"}+	c #361419",
"|+	c #54222A",
"1+	c #9E9BA2",
"2+	c #E44A44",
"3+	c #14130C",
"4+	c #736A51",
"5+	c #715143",
"6+	c #DDCEB1",
"7+	c #D64743",
"8+	c #DE4C3D",
"9+	c #4A363A",
"0+	c #45363E",
"a+	c #434334",
"b+	c #6D5043",
"c+	c #252B34",
"d+	c #39383D",
"e+	c #842227",
"f+	c #6E4F43",
"g+	c #943E34",
"h+	c #764B44",
"i+	c #592E37",
"j+	c #DC4C43",
"k+	c #E2473D",
"l+	c #623E34",
"m+	c #841E2D",
"n+	c #4A2D3F",
"o+	c #9D5266",
"p+	c #AC322D",
"q+	c #463B42",
"r+	c #2A363E",
"s+	c #2F1317",
"t+	c #1A1A12",
"u+	c #8B1C2D",
"v+	c #A6272E",
"w+	c #8E7914",
"x+	c #F5ED00",
"y+	c #0E0B36",
"z+	c #AB9644",
"A+	c #040606",
"B+	c #262B36",
"C+	c #D52029",
"D+	c #E9D318",
"E+	c #F9F501",
"F+	c #6C1E29",
"G+	c #90722B",
"H+	c #231F30",
"I+	c #071000",
"J+	c #0D0B00",
"K+	c #171703",
"L+	c #5E1E1F",
"M+	c #E64947",
"N+	c #2A302E",
"O+	c #A4A231",
"P+	c #3D2D3C",
"Q+	c #412D3B",
"R+	c #635C2D",
"S+	c #5B522D",
"T+	c #3E4100",
"U+	c #F7F900",
"V+	c #F3F146",
"W+	c #A3A22D",
"X+	c #E7E553",
"Y+	c #E6D353",
"Z+	c #989350",
"`+	c #322C0E",
" @	c #E5E24C",
".@	c #E0E06C",
"+@	c #6B212B",
"@@	c #724016",
"#@	c #A49E35",
"$@	c #DCE057",
"%@	c #09211F",
"&@	c #594438",
"*@	c #66392D",
"=@	c #79776C",
"-@	c #372B37",
";@	c #5D5C38",
">@	c #751B29",
",@	c #797572",
"'@	c #342432",
")@	c #625C34",
"!@	c #645739",
"~@	c #5B252A",
"{@	c #73544D",
"]@	c #6B2434",
"^@	c #14212E",
"/@	c #A22A33",
"(@	c #9D2D33",
"_@	c #4D111D",
":@	c #7A7210",
"<@	c #9E9B00",
"[@	c #837E60",
"}@	c #3F4030",
"|@	c #946341",
"  . + @ # $ $ % & $ $ * = - - ; ; > > , ' @ ) ' > $ $ @ ! ~ { ] ^ / ( . > $ @ , $ * { $ $ $ @ _ _ _ ^ : ; < > > [ } # $ | 1 2 $ ' # $ { { - ; ; ; ' ' > $ $ @ 3 3 4 5 5 & ",
"  + | @ $ 6 6 7 3 $ $ = = - ; ; ; ' ' ' ' ) $ 8 8 $ $ ) [ ~ { 9 0 / _ ' ' $ $ $ $ { { $ # 6 $ _ a _ : : : b > > $ # 8 $ | { { } ' 8 $ * _ c ; ; ; . > > @ $ } d 3 e 5 ) & ",
"  . . @ # 6 $ % 3 $ 6 & _ c ; f ] ' , , , @ ) 8 > $ @ @ ! ~ < ] 0 ~ / , . $ $ , $ * { @ 6 # $ _ g _ : ; : h + > $ } 8 # | { + $ 8 $ $ { { i : ; ^ b > , } $ ! d j k 5 l & ",
"  . | $ $ # # % a @ 6 * ( c ; ; - ' , ' ' @ @ & & 7 d d m g n ] 0 ( _ , ' @ @ } $ * * @ $ # $ _ g _ : ] ; b > > $ , , # 1 * 2 $ 8 8 $ { / i ^ ; c b > , ! # # 3 3 o 5 e & ",
"  . | @ $ $ # % 3 # 8 p ~ : ; ; ] ' > > , @ # d 3 7 7 q q a | ] 0 g / , > { 2 1 = d 3 , # $ } d r g : s ; b , + @ , 8 $ { 1 2 $ 8 8 $ p / i ; ; ; b > > @ $ @ 3 j k 5 5 t ",
"  . . $ 6 $ # 7 j $ $ p p c : ; - ' > $ > # # p = 7 7 7 a a | 9 0 ( / ' > u u q u u u , # $ # + g / : ; : b + , $ # # # + { * $ 8 8 $ p / f ; ; ; ' > > $ $ @ 3 3 k 5 l & ",
"  h h @ 6 # # % 3 $ $ p _ c ; ; ] ' , > ' # @ * * @ @ @ 2 ~ < ] 0 ( ~ , > m u u u v m > 6 $ $ w r g s : ; b . > [ # # $ { = 2 $ 8 8 # / / i ; ; ] ' ' $ @ $ @ d m k e ) & ",
"  > > @ 6 # # 7 j @ # p p c : ; - ' , $ > # $ p = @ , @ 2 a < ^ 0 _ / , . , $ 5 5 > > 8 # 6 $ w r / 0 ; s b , , $ , $ $ 2 * | $ 8 $ } { / i ; ; ] ' > > $ $ @ _ m k ) l d ",
"  . > $ # # $ 7 7 @ $ p { : : ; ; . > > $ $ # * p @ $ $ 2 g < 9 ^ ~ ( > ' $ $ 5 5 ' 8 , # # 8 > r t : ] ^ b + > ! @ $ $ { 2 { $ 8 $ $ p { - ; ; ; . , , $ $ } 3 m k e e & ",
") . . $ # # # 7 j $ @ p _ c ; ; ; ' , , , $ $ * p @ $ , 1 r | 9 ^ ( / > ' # $ 5   > > ' # # $ > r t s ; ^ b + w ! , } $ | { * $ 8 8 $ { / - ; ; ; ' > , $ @ } 3 d k e ) & ",
"l . . @ # # $ 7 7 $ $ p / : ; ; : ' > [ > # # = p [ $ $ 2 g | 9 s ~ g , ' ' # l   ' , x y y ' w ~ g s ; ^ . w w @ @ # $ { 1 | $ $ $ } { / i ; ; ; b > > @ $ } 3 j k ) 5 & ",
"l > . # $ $ $ 7 a @ $ * / c ; ; ; > > > , $ # & p @ $ , + ~ < 9 0 / / , ' # $ 5 z z z z A B B C ~ / s ; s D a u m u v v u v u m v m v g / i ; 9 ; ' ' > $ $ ! t m k 5 5 t ",
") . . $ $ # # 7 j $ $ p { - : ; ; > > > $ $ } p p @ $ $ E g | 9 0 / / + , } $ F B B B B F G H I C t s : : J m m u v v v u u u u u v v ( t i ; ; ; ' > > @ $ } 3 3 5 5 5 & ",
"l ' . @ @ ) # % j @ $ n ( : ; ; ; ' ' $ > ) $ * p @ $ , + g < 9 s _ / + ' # z B K B L M N O P z Q R s ; 9 S d j d d d d % m D m m v v / / i 9 ; ; . > $ $ $ $ 3 j k 5 5 & ",
"l . > & d d 3 q 7 @ 8 p p T ; ; ; > > , w @ $ p _ @ $ $ + g < 9 0 _ _ ' . U B M B B B V W L P W X Y s ; ; ' > , k k k k . . > , , } ! { t i : ; : ' > > $ $ } 3 j k 5 5 & ",
"l . > q u u u q j $ # _ ( - ; ; : , , , > $ @ p = $ $ , E g | 9 0 / _ + > Z Q B B M B `  ...+.P @.#.$.; : 8 > > e %.  %.' } , , , 8 } / / i ; ; ; b , , @ # } t j j v D 7 ",
"%.. > D 7 m D m 7 @ $ & / c ; ; ; % m q 7 7 7 m q [ $ , w _ | 9 9 t ~ > &.*.=.=.-.;.;.` >.,.B '.@.).!.; ^ 8 ' > k     5 . 8 , ' , 8 } / / i ; ; ; ' > , , # } 3 a j u 7 m ",
"  . > . $ ) # . 2 $ $ & _ : ; ; ; % v v q j m m m [ $ $ w ~ n 9 0 / g $ ~.{.{.].{.].^./.W W (.W @.)._.; ^ b ' ' k     5 ' > , ' . 8 } / / i ; ; ; h > , # $ @ 3 g :.<.:._ ",
"l ' > . } ) ) . . @ # { / - ; ; ; > w , w k :.w > @ $ , w _ | 9 0 _ g , R [.}.}.}.[.|.1.2.2.2.2.x 3.U 9 ^ 8 ' , 5 5 k   8 , ' $ , 8 $ / / i ; ; ; ' , , $ $ } 3 3 e e e & ",
"l ' , ' # ) # . h 6 , t { - : ; ; > > , ' 5 ) > > $ $ $ E g n 9 9 _ O U 4.N N N N 4.5.N 6.z N N N 5.N N N N ' ' 5 5     ' ' > , , 8 ! n / f ; ; : b > > @ $ 4 _ _ 5 e e & ",
"l ' > > @ ) ) h . 8 $ & p - ; ; ; ' > @ ' ) 4 , > $ $ , w _ n 9 9 F B L Y 7.Y Y Y Y Y Y Y L Y L Y Y |.|.}.|.4., 5 5   5 b ' $ , ' } } / _ f ; ; ; b > , @ $ } 3 _ e 5 5 * ",
"l > ' > , # 6 . | $ 8 { p ; ; ; ; ' ' ' ' ) ) ' , , 8 $ E ~ n 9 3.B B F N N O 4.4.4.4.O 4.N N N N z N N 8.|.9.O 5 5   5 ' , ' > 8 ' , / t f ; ; ; , > , 8 $ ! 3 & 5 e e & ",
"%.' ' ' # ) ) b . @ $ p = : ; ; 0.8 ' ' ' ) ) ' , $ $ , E _ n O G G F F N a.b.z 4.c.d.e.e.f.f.f.g.h.G N 5.i.N N k 5   5 , ' ' ' ' } } / / 9 f 9 : b , > $ $ $ j _ o %.) & ",
"  , ' h 8 4 ) . . , # p / T ; ; ^ ' ' ' > ) # . . $ 8 , w ~ n 9 j.k.b.b.l.b.a.z e.c.R l.m.m.m.m.3.n.N 8./.6 , ' 5 5     > $ ' ' } h } t / f 9 f : ' , , 8 $ $ _ p   ) 5 * ",
"  ' ' , 8 # ) . . $ $ & / - ; ; - > ' ' . ) ) . . $ 8 > E g n 9 9 _ _ o.p.q.r.#.e.e.s.s.s.m.s.m.m.t.u.N N 6 ' > k   e   > , ' 8 , 8 } / / ; 9 9 ; 8 , . , # @ _ p 5 %.5 n ",
"%.8 ' > } # ) . > } # { p - ; ; ] ' ' ' 8 ) ) . . 6 6 $ w _ n 9 9 t / 6.v.v.U 5.e.e.s.w.K m.s.K x.k.a.~.Z ' @ 8 5 5 e 5 > , ' > 8 , @ t / i f ; : b , + $ , @ _ _ 5 5 5 { ",
"  ' ' > 8 # ) . . # , n = c ; ; ^ > , ' 8 6 ) . > $ . $ w 3 n 9 9 g / 6.g.g.Z 5.e.e.s.'.K s.m.K x.K a.N U 6 ' ' 5 e k   ' , ' ' ' 8 } _ / i ; ; ; b , , , # [ _ & e 5 l < ",
"  > ' > 8 6 ) b . , # p * - - ; ^ , , , ' ) 6 . > $ 6 > [ d n ] 9 / g N y.b.N z.d.e.s.A.B.s.m.t.K C.N N N 8 ' ' 5 5 5 l ' ' $ ' 8 8 } / / f ; ; : ' > . 8 } [ _ { 5 5 l * ",
"  8 ' . , ) 6 . > , $ & { - ; ; - ' . > 8 ) ) . > 8 8 > @ 3 n H O g g D.E.a.4.z.f.f.s.s.s.s.c.m.m.s.N F.G.n.' ' 5 5 5 5 ' , ' @ 8 , @ { / i : ; : . > , 8 # $ _ p e l e | ",
"  ' , , ' ) ) . . } # p ( c ; ; ] ' 8 > > ) ) . > $ $ > w N H.H.H.I.O D.,.6.5.e.c.f.J.s.s.H K.m.m.s.F F.L.M.N ' 5 5 5 5 ' , ' ' 8 8 , / / i ; ; ^ b > , } , $ g { 5 5 5 * ",
"  ' > ' ' ) # . . $ # p p N.^ ; - > > > > ) ) . > $ 8 > O.P.K Q.R.R.S.T.N z a.b.c.f.c.m.s.s.m.m.m.s.O.~.r.U.M.~.  5 ) ) 8 ' , 8 b $ } / _ i ; ; s b , , $ # [ _ { 5 e e * ",
"0.8 > > ' ) ) . > $ , n _ s : ; ] > > 8 > ) ) . > > 8 @ w.=.P Q.Q.V.].W.N N B.X.5.Y.Y.Z.z.c.j.`.`.Z.R D.O. +.+++R )   ) ' , , , 8 } } t / f ; ; ; . . + , $ @ _ 1 e 5 5 * ",
"@+' , ' ' # ) . . $ $ p p N.; ; ^ ' , , > ) 6 > > $ 8 [ #+>.R.Q.].]./.N i.$+O X.X.%+8.I.X X X #.f.&+l.D.D.$.z M.*+l ) 5 ' $ > $ 8 # $ / / i ; ; ^ . > , , } } _ * 5 ) 5 | ",
"@+> ' , ' ) ) * . $ $ p p N.; ; - ' > ' , 6 ) . . , , $ =+>.R.Q.].t.-+-+` $+N X.X.%+;+y.X X X 5.z.&+R >+>+$.C M.h.=+l l , , $ ' , # $ / / i ; ; ; . , > $ $ } _ | o 5 5 | ",
"@+' ' . ' ) ) b . $ @ & = N.; ; ^ ' > ' $ # ) > > } 8 , r.,+'+,+3.k.)+)+N $+~.N ;+!+X.X.C X &.~+{+B.C ]+^+z D./+G.&.e ) > $ ' > , , $ / / - ; ; ; . , h # $ ! g 1 e 5 5 { ",
"- ' ' . 8 6 ) . . $ @ & = N.; ; - ' > > > ) 6 > . $ ' } r.(+(+4.K _+)+)+:+F x ~.O 6.<+X.z z N [+X.F i. +}+v.~.N |+M.O >+{ * > $ 8 , $ / / f ; ; ; . , > , } $ d m e 5 5 n ",
"T > ' ' 8 # ) b . $ $ p ~ N.^ ; ^ ' > > > ) 6 . > , $ $ x.1+o.k.)+2+)+~+y.z z N 4.!+3+!.!.4+4+5+C !.i.6+(+Z.v.N :+M.O V * 1 $ > $ $ , { / @+; ; : b > , } } , m d k 5 5 h ",
"@+' ' > ' ) ) . . , $ p = N.: ; ^ ' , > ' ) 6 . . $ , $ }+T.k.7+8+2+~+<+9+z K./.9+0+a+>+5.8.:+N q.b+>+B ..v.v.E. +'+c+i.= { > $ ' 8 @ _ / ; ; ; ^ , , > , $ } d j e 5 5 | ",
"- ' > , ' ) ) . . $ $ n p N.; ; ^ > , , $ 8 $ . ' @ , $ 6.)+)+2+<+<+y.d+0+z 5.++e+8+8.b+N N 3+ +f+W F ^+]+3.g+p.h+G.U.i+* p $ > > $ } / / i ; ; ; ' , > } $ , j m k 5 5 | ",
"0.' , ' 8 ) 6 . . $ $ p p N.; ; ^ , > > > 8 ) . . } , } 4.j+k+k+<+<+l+d+0+N N ++m+_+5.f+F N 3+N f+W F 1+Q.3.g+g+{+G.M.n+O.* @ , ' $ } / / - ; ; : $ , > $ # , j j e 5 5 2 ",
"0.. ' ' 8 ) ) . > $ , p p N.; ; ^ > > > > ) ) . . @ 8 8.o+p+i+q+r+E._._.q+N O s+s+}+5.x.O N 3+N t+5.F 7.]+3.g+v.{+r.u+v+3.* [ > ' # @ / / : ; ; : , , + $ $ , j j k 5 5 > ",
"- > > > ' ) 6 . . $ $ p p c ; ; ] > $ > > ) $ . w $ 8 Z 8+p.~+l+l+N O.0+N w+~.z N ` *.*.O F t+N *.x+y+z+z+A+v.v.{+B+u+p+n.D.$ , , # @ / / T ; ; : 8 , , , $ } j m   ) 5 { ",
"0.' ' 8 8 6 ) . . $ $ | _ N.; ; - . > > > $ ) > . $ , 4.j+j+~+l+h.0+9+9+^.^.N C+D+Z E+=.F N t+5.E+-.q+D+D+A+g.v.{+B+G.F+j+H , > $ $ @ / / c ; ; ; , , ' } $ } m m <.e 5 * ",
"- ' > ' 6 6 6 . ' $ 8 { ~ N.; ; ] . 8 > > ) $ . + $ 8 4.k+k+g.h.h.0+q+F G+w+N N #.H+=.x+N N t+5.*.x+x+#+$+h.v.g+h+B+8.F+j+O $ , ' $ } ( g : ; ; : 8 > > } , , j m e %.5 + ",
"- > , , 8 ) 6 ' > $ 8 n p c ; ; - $ @ w > $ ) . + @ 8 z I+J+J+J+J+j.j.N N 8.8.5.3+3+3+3+F H t+N :+:+:+z K+I+I+I+j.9.5.L+M+O , > ' # } _ / : ; ; : 8 > > $ [ [ m j e ) 5 h ",
"- ' ' , 8 # ) > . $ $ p _ ^ ; ; ; > > w 8 ) 8 . > } 8 N+=.-.E+E+x+O+O+4.d+P+Q+Q+R+S+R+R+F H t+8.5+5+5+N T+O+U+U+V+9.N L+M+F , > ' # $ { / f ; ; ; ' > > $ $ , j j o 5 5 2 ",
"- . > > [ 7 7 > ' $ 8 | _ c ; ; ; & a q q q 7 7 q , , N+=.-.E+E+E+O+W+4.d+Q+Q+Q+R+R+R+R+F H t+N 5+5+5+O T+O+-.-.V+9.N L+M+O } + $ $ ! / / i ; ; 9 D m v m m m v j k 5 5 { ",
"- ' > , $ q a > ' $ 8 { _ c ; ; : p a q q q q 7 v ! [ V X+X+X+X+Y+Z+Z+ +K+K+`.K+).I+).).z H t+N I+I+).J+`+Z+ @ @.@9.N +@M+N , ' , # } / ( - f 9 9 @@j u j u u j g k 5 5 { ",
"- , ' , w u j , > , 8 n ~ c ; ] - . * w 2 w > 2 * @ ' N )+M+[+l+<+Q+P+K.^.W+#@O+O+z+U+E+O ~.t+N =.U+U+E+$@v.Z.Z.h+9.N L+M+5.$ > $ # @ / / i ; ; ; @@J J v v v j 3 k e ) { ",
"- . , , $ u u , ' $ $ { p s : ; ] > > , > 5 5 . > @ ' $ %@)+{+l+&@Q+0+` ^.W+W+W+W+#@-.E+O N t+N =.-.=.E+$@g+v.v.B.B+N L.M+N , . $ # @ t / - ; ; ; b , , $ } [ _ _ k 5 e { ",
"- ' ' > [ u j > ' 8 , | p c ; ; ^ > > > ' 5 5 8 ' # $ $ n.8+~+<+*@Q+P+z z z O O F z ~.~.F ~.x.N F ~.F F N y.g.g+h.B+F L.M+N , + ' # ! / / i 9 ; ; h , , , , @ _ _ e l e * ",
"- ' > 8 , u u w ' $ , n _ ^ ; ; ^ > 8 8 '     > > ' ' B+T./.x.x.`+ +O c+P+P+P+P+P+d+d+W z N `+C ;+f+f+f+'.N F ~.x.F |+F+%+` , > $ # @ / / i ; ; : < , + , , $ _ :.5 e e p ",
"- > ' , > 7 a > > $ $ { _ c ; ; ] 8 . 8 8 ) l . ' $ $ B+N =@R+R+R+#+C c++.Q+Q+P+P+P+-@ +N Q+S+N b+f+b+f+'.$+$+y ;@4.|+>@&.{ , > , # } _ t : ; ; ; < , , , } [ p ! 4 %.5 & ",
"- > ' ' w a a w , , $ h _ c ; ; - ' ' > . l   8 > $ $ V 5.,@,@R+S+R+R+z P+P+Q+Q+-@Q+Q+Q+P+4.8.R+4.b+b+F `+R+R+>+i.z |+>@&.{ , > $ $ $ p / i ] ] ; < , + > 8 ! _ :.o %.e p ",
"0.> , ' @ q a w , $ , { p : ; ; - 8 8 > .     . ' , $ B+4+4+4+R+'.'.R+N '@'@'@'@'@'@'@'@9+o.0+/+u.u.u.y.a+R+)@R+a+.+M.e+#.{ , w $ $ } / / i ] ; : < > , , 8 [ t ! 5 ) 5 & ",
"- ' , ' > q q E > $ $ * ~ ; ; ; ] ' > > '   l . ' $ >+N =@R+R+R+y z >+N ~.N N N N N N 5.z N z z z z F z n.R+)@R+=+|+M.y.{ 1 , ' 8 # 4 g / - ; ] ; < , , , 8 [ t ! 5 e e _ ",
"- > , ' w 7 7 > > $ , | _ c ; ; ; ' ' > .     . ' $ >+N !@;@,@R+y C N c+P+P+P+P+P+Q+F N F N N N Q+P+P+F O $+R+$+i.~@e+y.1 * w > 8 $ @ _ / - ; : ; < , , ' 8 ! _ !   5 5 d ",
"- , ' , [ 2 > > > > @ * _ c ; ; - . ' , >     b . ,.z F.~.;@x R+y F z N N F F F F F O  +c+Q+0+8.N &@l+H F $+~.$+#.'+~.>+v m , . $ $ } p / - ] ; : < + ' 8 , [ g ! 5 %.5 d ",
"- , > , > ) # > > $ ' 2 p c ; ; : ' > > . 5 l . . s+++>@N >+>+>+r+>+z K.Q+5+{@f+5+{@{@4.c+Q+Q+5.P+f+f+X (.~.F }+*+~.u m m v [ > 8 $ ! _ / - s 9 ; < + , . 8 [ t o e e e m ",
"- > ' $ > # ) ' > ' ' . _ ^ 0.; ; ' 8 , > ) 5 . N m+U.U.z z z O 4.4.V 4.P+b+5+5+b+q.{@ +c+P+P+5.Q+f+f+f+(.N 6.++]@m D D D m } ' 8 # ! { / i ; ; ^ < , , . 8 ! t ! o %.5 d ",
"- ' > , ' 6 ) > > ' > | _ c ; ; - ' ' > , ) ) z G.m+m+F 1 g } 9 9 N P+U Q+b+5+5+f+q.(.O c+q+Q+F P+f+f+f+f+R ++M.~.e e e . ' ' h $ $ } _ / - ; ; : < > . 8 ' , t [ 5 5 l & ",
"- > , , , # # . > $ @ | _ N.; ; ; ' ' > > ) '@*+++B+8 @ + g } 9 9 N d+^@]@=+d+d+d+=+{@O c+Q+Q+N P+f+f+b+h+l.-@x 4 e     . , , > $ # [ _ / i : ; 0 < , , h ' ! t ! 5 l e & ",
"- > , , ' ) 6 , > $ $ < _ N.; ; ; ' ' , > z ]@++~.} 8 $ 1 g } 9 9 O p+&.+@]@+@+@+@+@[+O B+P+Q+N P+f+%+%+-+n.> , 4 e e e ' . ' , @ # ! g / i ; 9 : < , , } ' , t [ o e l { ",
"- 8 > ' ' # # , > ' , h ~ ^ 0.; ; ' > > N F.U.&.. # , $ 1 _ } 9 s U /@F ~./@/@/@(@(@]@N c+P+P+P+4.%+%+%+{@O . > ) k e %.+ , h ' $ # ! / / - ; ; 0 < , , ' , [ d } 5 l e p ",
"- , , , , ) # ' , , $ 2 p c ; ; ; b ' $ 4.m+_@b . # 8 $ | g @ 9 9 O (@/@v+v+v+v+v+/@(@F B+G.L.L.+@(@k+k+7+&.> . @       > > > > $ $ } p _ : ; : : < , , ' } } d } o ) l | ",
"- , ' ' ' # ) ' > > > | _ c 0.; 0.b ' c+F.M._@. . $ $ $ = a } 9 9 U N 5.4.N O O O O N N F H F N z 4.K. +H ~., . 5   k   > > > > $ $ ! _ { : ; ; ; < > , ' ' + d } o 5 e | ",
"c $ > ' ' # $ > , $ $ | _ c ; ; ; ' ' /.m+u+_@. . $ $ , 1 g , 9 ; O W+O+#@=.=.=.=.=.;.d+&@:@:@O+O+<@=.*.Y+O.> > 5 k 5   > . > > $ # @ _ _ : ] ; : < , , } ' } t ! o l 5 | ",
"- > > , ' # # > > , ' | p c ; ; ; ' > '@m+>@_@. . $ $ $ 1 g } 9 s 4.O+O+O+-.-.-.=.E+=.a+9+^.:@#@W+<@=.E+ @D.. > 5 5   5 . > > > $ # } _ _ c 9 ; : < , > ' ' + t ! e %.e > ",
"- ' ' , ' 6 # > > $ , | t ^ ; ; ; > > T.c+m+'+>@V c+V B+` Z Z Z ` F T.D.,.=@=@=@=@=@,@V o.x #+D.D.w.=@[@[@D.. > 5 k     + > h , } # 4 _ _ c ; ] ^ < $ w , ' + t E o ) 5 n ",
"N.> , , @ 6 ) > , ' , + _ ; ; ; ; ' ' , , N m+m+m+m+m+7+7+8+7+7+~.x #+y }@;@!@!@)@)@y $+x x $+y y )@)@)@!@3.> > )     5 h , > > $ # 4 / / c ; ; ^ < , , , h } t t o ) ) n ",
"- > ' , 8 8 ) . > $ , | t N.; ; ; ' ' , ' #+i+m+m+m+'+++*+m+++m+z >+r+R+=@Q =@,@=@=@)@y x $+$+$+!@'.,@,@,@,@O , 5 e e e h > h > $ # ! _ t : ] ; : < h , } ' } d t o # 5 p ",
"- > ' ' > # ) > , $ , + t 0 ; ; 0., > , , #+c+N ~.N 8.O ~.N N ~.C V r+T.;@R+;@;@)@)@)@c+c+` F $+x R+R+R+R+x O + ! ) 5 ) | + . + , # ! / _ : ; ] : < , + ' ' + d t <.) 5 p ",
"- > , , , ) $ . , , 8 > / s ; 0.] ' > > > # $ d j m m m m j , 9 O O c+$+y x y x $+$+x O F N ~.O V R+R+R+'.x N , } 5 4 ) h | + > # # ! _ _ : ; ] : < . > , , + t g k ) 5 & ",
"  , @ > , $ ) . ' $ ' + / s ; ; 0.' > $ ' $ # & g [ ! :.1 g E 9 s t t O z O 4.N  +N N > ' $ @ |@N N /.5.4.N h , } ) 4 ) h 1 + . } # ! / / : ] ; ^ < > > , ' } d 3 k 4 5 p ",
"- , ' > , ) # > . 8 $ > { c ; ; ] $ ' ' > # # 7 j @ $ $ | g } 9 s t g , > , $ # ) . < 2 $ $ } :.j t 9 ; f 8 . + } 5 l o h | h + @ # 4 / / c ; 9 : < , , , , } t 3 :.@ :._ ",
"  > 8 > $ 4 4 > > $ , + t - ; ; ; > > ' > # # 3 j @ $ # { _ + 9 0 3 _ [ $ > , # # . | > $ $ 4 ! g _ ; ; 9 6 > ' # 5 4 ) h + > ' @ # 4 / / ; ; ; : < h , , , + j g j j j 7 ",
"- > ' [ 7 u a j p ' $ w { c ; ; - ' > $ $ $ # 3 j $ $ } { g } 9 s t j , $ , $ # # h | | $ $ } ! a g f 9 9 ' + , 4 5 4 5 h h + . $ 6 4 ( _ : ; ; ^ , , , + , , _ 3 j m u j ",
"  ' , w q a j 3 p $ , , { c 0.; ] ' > > , $ # 3 3 ! # } { g ! 9 9 g t , ' , 8 6 4 6 | h $ # $ ! j _ ; ; 9 ' . + 4 4 ) 5 | 2 + . , # ! / / : ; 9 : > , , , , , t 3 5 k <._ ",
"  ' ' > [ 5 :.h > 8 ' + t : : ; ^ ' , , > 6 $ d j ! # $ / g } 9 ; t 3 $ $ , , # ) > | 2 # $ @ |@r t 0 9 f ' h , # o 5 4 | h + > # # } / ( : 9 ; : > , , , , , j j <.# 5 t ",
"  > > > @ ) e . ' ' , > { : ; ; ^ ' ' > $ $ $ _ j # # } { g } ; 9 3 3 , , $ $ # # > * | # $ # ! a j i : 9 ' > , # e 4 5 h 1 + . $ # ! / ( s ; ; ^ , > , + , , g d 5 5 5 t ",
"  > , > 8 e ) , . 8 8 > & c ; ; 0.$ > > > # $ _ 3 @ ) $ p _ ! ; 9 d _ , , $ 8 # } > | | $ 6 $ ! ~ g : ; 9 ' > > 4 5 # ) | > + > , # ! ( ( 0 ; ; : , , , , , , t g 5 5 o t ",
"e ' ' > 8 ) e . , , , + { c 0.0.] ' $ > , # $ _ m @ $ $ 2 j ! ] ; t _ , , , ' # # ' | | # $ # ! ~ t f ; : ' , > } 5 4 o { { > . } $ ! / ( i 9 ; : , + , + , , m g o # 5 & ",
"%.. ' > ' ) 5 . , 8 , w { - ; ; - $ > > > $ @ 3 g ! # @ h j } 9 ; _ g , , } , # $ . | 2 # $ @ ! j g : ; ; h > > # 5 4 5 h | + h $ # } ( ( i ; 9 : < + , , , } m j o 5 5 t ",
"%.' ' > 8 e %.. . 8 8 > / : ; ; ; , > , , | . 3 j @ # @ | j } ] ] / g , , , , # ) > | * $ @ } ! ~ 3 ; ; s b > w # o o 4 | h > 2 @ 6 ! ( ( 0 ; ; ^ < , , . } ' m t o 5 e t ",
") ' ' > 8 ) 5 . , 8 ' + { : ; ; ; , ' , , d 3 g j } } } 1 g } 9 ; t g } , , ' # # . { 2 $ 6 $ [ j g : ; : b , $ # 5 4 e | + h . $ $ } { 1 s 9 ; : < 8 > 8 ' } m g <.5 5 t "};
