/* XPM */
static char *various_red_color_brick_wall_seamless_pattern_251819_23811737543724[] = {
/* columns rows colors chars-per-pixel */
"85 85 250 2 ",
"   c #554E3E",
".  c #5D4C3E",
"X  c #53503C",
"o  c #6C4634",
"O  c #6B4934",
"+  c #664739",
"@  c #6E463A",
"#  c #634B3D",
"$  c #6C4A3A",
"%  c #704436",
"&  c #744E34",
"*  c #794E33",
"=  c #734839",
"-  c #6D503A",
";  c #745235",
":  c #74513A",
">  c #7B563A",
",  c #564D42",
"<  c #5B4C43",
"1  c #5B4C49",
"2  c #5C5348",
"3  c #624740",
"4  c #644B42",
"5  c #694E43",
"6  c #764F4D",
"7  c #655143",
"8  c #6B5446",
"9  c #6C5A46",
"0  c #65554B",
"q  c #6C564A",
"w  c #655A4A",
"e  c #6D5A4C",
"r  c #735545",
"t  c #7C5446",
"y  c #725946",
"u  c #73574B",
"i  c #79564C",
"p  c #72594B",
"a  c #655853",
"s  c #6D5B50",
"d  c #725B51",
"f  c #755951",
"g  c #74604F",
"h  c #7C6355",
"j  c #786658",
"k  c #9C372E",
"l  c #9E3633",
"z  c #9E3A30",
"x  c #AD2E25",
"c  c #A73625",
"v  c #A43B24",
"b  c #AB3A25",
"n  c #A2352C",
"m  c #AA362A",
"M  c #A43C2D",
"N  c #AA3B2A",
"B  c #B23D26",
"V  c #B7382A",
"C  c #B23F29",
"Z  c #A43833",
"A  c #A43C32",
"S  c #A93E33",
"D  c #C53E24",
"F  c #854E39",
"G  c #8D4E3B",
"H  c #924E3C",
"J  c #885339",
"K  c #8B513C",
"L  c #915137",
"P  c #90523C",
"I  c #A8472B",
"U  c #B14026",
"Y  c #B2412A",
"T  c #BC432C",
"R  c #AB4338",
"E  c #B34533",
"W  c #B64B35",
"Q  c #BB4B36",
"!  c #B74838",
"~  c #BB4D3A",
"^  c #AE563E",
"/  c #B45236",
"(  c #B65537",
")  c #B4543C",
"_  c #BC533D",
"`  c #B5583C",
"'  c #C64226",
"]  c #C84227",
"[  c #C5432A",
"{  c #C94329",
"}  c #CA4A2E",
"|  c #D0432A",
" . c #C5502E",
".. c #C54A36",
"X. c #C24C34",
"o. c #CC4C34",
"O. c #CD4E3C",
"+. c #D14E36",
"@. c #D34E3A",
"#. c #D94F3D",
"$. c #C75634",
"%. c #CC5135",
"&. c #C4523C",
"*. c #CD533A",
"=. c #CD5A3C",
"-. c #D25335",
";. c #D2533B",
":. c #D8523C",
">. c #D35B3D",
",. c #D85C39",
"<. c #CD663D",
"1. c #D4613E",
"2. c #DB673B",
"3. c #DC643D",
"4. c #E46336",
"5. c #EA6537",
"6. c #E6653A",
"7. c #EA673A",
"8. c #E66A3D",
"9. c #EA693C",
"0. c #E7723F",
"q. c #865141",
"w. c #8C5243",
"e. c #945945",
"r. c #BC4D42",
"t. c #B65442",
"y. c #BC5442",
"u. c #B95646",
"i. c #B45D4D",
"p. c #81675A",
"a. c #AF6454",
"s. c #9F7F70",
"d. c #A57E6F",
"f. c #CB4F44",
"g. c #C25442",
"h. c #CD5B42",
"j. c #C85945",
"k. c #D35641",
"l. c #D55D41",
"z. c #D75B46",
"x. c #D95F41",
"c. c #C96548",
"v. c #D76142",
"b. c #D86142",
"n. c #D46A45",
"m. c #DC6A45",
"M. c #D5644A",
"N. c #DB664A",
"B. c #D66B4B",
"V. c #DC6B4D",
"C. c #DB7549",
"Z. c #DC734D",
"A. c #C86E54",
"S. c #D56A52",
"D. c #DD6D51",
"F. c #DE7254",
"G. c #D87656",
"H. c #DD7559",
"J. c #E46546",
"K. c #E36D44",
"L. c #EC6D43",
"P. c #E16B4C",
"I. c #EC6E4A",
"U. c #F16D44",
"Y. c #E67345",
"T. c #EA7445",
"R. c #E97847",
"E. c #E5744B",
"W. c #EC734B",
"Q. c #E37A4D",
"!. c #EB7B4D",
"~. c #F17145",
"^. c #F0754C",
"/. c #F3794E",
"(. c #E16D52",
"). c #E27254",
"_. c #ED7551",
"`. c #E57B52",
"'. c #ED7D52",
"]. c #E27659",
"[. c #E9765A",
"{. c #E37A5C",
"}. c #EB7D5A",
"|. c #F27553",
" X c #F17B54",
".X c #F37C5D",
"XX c #E47B61",
"oX c #F97F64",
"OX c #9E826C",
"+X c #9E8471",
"@X c #9F8973",
"#X c #A2836F",
"$X c #A6886E",
"%X c #A38572",
"&X c #A68873",
"*X c #AE9076",
"=X c #DE8453",
"-X c #ED814F",
";X c #E4894D",
":X c #E48357",
">X c #EE8054",
",X c #ED835B",
"<X c #EE895D",
"1X c #F18255",
"2X c #F2855B",
"3X c #F9855E",
"4X c #F2895E",
"5X c #E69253",
"6X c #ED9655",
"7X c #ED9956",
"8X c #EB965A",
"9X c #ED9B5C",
"0X c #F09856",
"qX c #F09C5C",
"wX c #EBA15B",
"eX c #DE8562",
"rX c #ED8460",
"tX c #E88565",
"yX c #EE8A62",
"uX c #F98563",
"iX c #F28B63",
"pX c #F58865",
"aX c #FA8A63",
"sX c #E89662",
"dX c #EE9D63",
"fX c #F19E62",
"gX c #F4936B",
"hX c #F8956A",
"jX c #E99676",
"kX c #F99D73",
"lX c #F69F7D",
"zX c #ECA264",
"xX c #EEA369",
"cX c #F1A164",
"vX c #F3A36A",
"bX c #EFA676",
"nX c #F4A57C",
"mX c #F8A379",
"MX c #F7AA7D",
"NX c #F0A586",
"BX c #F5A484",
"VX c #F6AA83",
"CX c #F8AA87",
"ZX c #F6AE8A",
"AX c #F6B184",
"SX c #F6B38A",
"DX c #FBB68A",
"FX c #FBB58D",
"GX c #FCB592",
"HX c #FEB992",
/* pixels */
"* * * * * ; ; ; ; O p * * * * * * ; ; > ; ; ; : * * ; ; ; ; > p q.: & : ; ; : ; ; & & & & ; & : & & & & q.w & & ; : * * * : > ; ; * ; ; ; : * : * ; r ; ; ; ; & O ; * * O ",
"b.b.N.V.v.B.m.m.).G.u P.D.N.l.>.1.1.J.V.1.v.b.b.b.N.v.v.V.H.F.p t.T.W.L.L.L.8.6.7.9.7.7.L.~.U.L.J.T.W..Xt.u :XiX,X'.'.>X>X2X<XY.1X!.'.1X`.1X1X2XpXN.y ).V.N.M.Z.v.b.N.b.v.",
"x.v.v.v.b.b.b.b.V.).e z.).N.b.x.1.N.N.b.b.b.b.v.v.v.v.>.v.m.F.p _ L.7.9.9.7.7.7.7.7.7.7.7.7.7.7.5.L.K.W.) p `.<X'.>X>X1X`.,X'.'.1X-X1X>X X1X1X>X2X>.p D.,.b.b.b.b.b.F.b.b.",
"b.l.x.v.v.v.D.D.F.).p z.D.V.x.b.N.V.1.b.>.1.3.v.x.b.v.v.b.V.F.y ~ |.L.4.9.7.7.7.7.6.7.4.7.7.7.7.L.W.I.!.) p iXiX>X>X>Xm.>X1X1X'.!.1X'.>X1X'.>X1X2X%.p ).B.N.v.b.N.B.1.>.b.",
"x.x.b.1.b.].x.V.F.F.u l.F.D.M.b.V.b.b.b.l.x.x.x.v.v.l.V.V.(.F.p _ |.L.L.7.T.6.,.9.7.9.9.9.7.5.L.J.9.W._.) y iXiX<X X'.'.'.>X'.1X X>X>X>X1X4X2X4XiX%.p ].D.S.1.b.m.b.1.b.b.",
"V.V.V.P.F.D.D.P.D.D.u *.).F.).).V.V.V.D.V.D.S.V.S.D.D.D.[.{.F.r _ !.^./.'.W.!.W.L.9.K.Y.T.L.L.W.L.~.W. X) i iXyXpXiXiX2X2X2X2X2X2X3X4X2XiXpXhXiXiXo.u F.D.).(.G.F.V.V.V.V.",
"4 4 4 5 4 4 4 4 4 7 p 4 $ $ # # # $ $ $ $ 4 4 4 f < 4 3 4 4 1 e 8 $ @ y $ $ o @ . # # # # # 4 4 4 # # # y p 4 5 i 7 # $ # $ = 5 4 4 4 f # $ + + O # r $ $ @ @ @ $ o # < # ",
"w q 8 q 8 9 8 y w w e w e 8 p 9 q q e q 6 d q d 0 s s s s s s s q s s 8 8 8 8 9 9 9 u q 0 0 a e e s e w e w a j s w s s 0 e q e u 9 j e 8 r 9 q w 9 9 9 e q 9 y 8 w 9 q 9 ",
"P dX5X7X7X7X9X7X0X0X7XqXcXqX5X7X6X9X6XdX;.e ].F.V.N.b.P.b.1.1.1.x.v.v.v.b.b.>.b.).).i xX9XqX7X7X7X7X7X7X7X7XfX9XC.qX7X0X6XfXqXp :.>.;.-.o.} } { { { ' { ] ] { { { } *.x.J ",
"K 9X9X7X7X7X7X7X0X7XfX7X7X7X7X7X7X7X6XfX#.p.F.N.b.x.b.1.v.b.b.b.x.v.v.>.1.b.b.m.Z.F.y xX9X8X7X7X7X7X7XE.7XdX7X7X7X7X0X7X6X9XzXp *.%.[ { { { ' { D { { { { =.{ { { { %.k.J ",
"P dX7X7X7X7X7X7X7X7XzX7X6X6X;X0X6X7X7X9X#.p F.D.v.b.b.1.b.b.x.b.b.b.b.b.b.b.b.N.F.].g vX9X7X7X7X6X6X6X7X7X7X7X7X7X0X0X7X7X9XdXp ;.;.] { { { { { { { O.{ { { D { { { %.>.e.",
"G fX9X7X7X7X7X7XdX9X7X7X6X7X7X7X6X7X9XsXO.i H.D.V.D.b.N.x.b.D.x.1.>.b.v.b.b.1.V.F.XXp zXdX7X7X7X6X6X9X7X7X7X7X7X7X7X7X7X7X9XzXi *.>.;.;.{ +.{ { { o.D { { D { { { { O.>.P ",
"w.fXfXdXqXqXqX7X7X9X7X9XfX9XqXqX9XfXfXfX;.y ).{.).F.V.V.m.].V.V.P.P.F.P.V.D.(.{.].F.p sXcX8X9XdX7X9X9X9X7X7X9X9X9X9XdX9X9XtXxXi %.>.>.V.=.-.@.;.M.:.@.*.*.O.o.o.;.x.>.l.G ",
"w.V V x m N N m m m M A A S S S S S c c E i b v v v v c E N N c c b v v v I M I v v p x m m c N c v m S S N N N I N v v ! m M e T c c c c c c E m c c c m c I v I A M c G ",
"p e u d p e e e e e e p s e e s j p e p e e p p d p s j e e e p e p p e e p d s e e d d i d e d j s e s s d s s d s e j s s d p p e e p p p e d g s p e s e s e s s s g 9 ",
"V.m.N.V.V.B.N.V.D.).p E.E.'. X`.`.'.!.Y.!.Y.!.'.'.!.'.}.'.,X,Xd t.).).V.M.>.m.D.V.V.B.m.N.m.D.).M.V.N.).X.q dXdX9X9XkX9X9X5X9X9X9X9XdXdX9X:XdXdX5X2.u ).F.m.V.V.M.v.V.V.V.",
"l.v.v.v.M.v.b.v.v.D.p E.Y.Y.!.R.T.T.T.Y.T.Y.T.Y.R.T.T.0.-X'.>Xp t.D.v.v.b.b.v.v.b.b.b.1.>.x.V.N.v.v.l.V.g.u 8X6X7X6X7X6X7X7X7X7X7X6X7X7X7X7X9X9XdX1.9 Z.N.v.N.b.l.x.v.x.1.",
"b.b.m.v.v.v.b.1.N.F.p b.'.Y.Y.T.T.Y.R.T.T.T.R.T.T.T.T.0.!.>X'.p t.D.N.V.1.1.=.b.b.b.b.b.b.V.b.b.v.b.b.V.r.u fX9X6X6X7X7X7X7X5X7X6X7X7X7X7X7X7X9XdX$.p F.D.V.B.,.b.v.x.b.b.",
"b.M.F.1.b.b.1.b.V.).p 1.'.>XY.Y.T.Y.Y.T.Y.Y.!.T.T.T.K.T.!.:X>Xp t.F.F.x.x.b.b.b.1.b.1.b.b.1.b.b.b.1.V.(.g.u eXdX9X7X7X7X;X7X0X0X;X7XqX7X7X;X7X9XzX%.p Z.].m.b.b.b.b.b.v.1.",
"x.V.b.V.P.V.V.b.F.).p -.'.,X>X>X>X'.!.Y.!.0.,X!.R.!.!.!.>X>X2Xe t.H.(.P.).P.P.V.P.b.N.1.v.N.B.V.V.V.F.).y.p dXdXfXdX9XdX9X6X7X8X9XcX7X9X9X9X9X:XdXO.y V.v.V.(.V.P.D.J.N.N.",
"k z z z A A R R R R p r.M Z l l l A A S R u.! ~ g.g.r.E E N c y a.M Z z k n n A Z Z M Z n n n S I S S E i.g S z Z Z Z A Z S S S r.~ f.f.f.~ E S S R i c z M M n n n n n n ",
"p e p p p p p e i p.p p p p e 9 s e d s j 9 s e p 9 p p u p p i e 9 9 y y 9 9 9 9 p y e e e p 9 p u p e h e p y 9 e i p e s d p e p d d p d s d s e d p d p p e d e e e f ",
"q.!.~.L.9.9.8.9.T.9.9.9.9.8.L.L.T.L.I.}.;.i pXiX1X>X2X2X2X2X2X2X2X2X4XQ.,X1X>X}.gXyXi yXiX2X2X>X>X1X>X4X1X1X1X1X1X2X1X2X4XiXyXi :.F.D.V.N.V.D.N.).V.V.P.D.B.V.N.V.D.).{.F ",
"q.|.T.9.9.9.5.n.9.9.9.9.5.9.7.5.7.7.6.I.:.p 2X1X1X>X>X X1X1X!.>X1X1X-X1X>X1X'.,X2X:Xf iXpX>X'.'.>XE.1X1X>X>X>X>X1X2X>X>X-X>X<Xi @.V.b.b.b.b.v.V.v.l.b.b.b.b.b.b.1.b.{.).K ",
"G !.L.6.5.9.T.L.5.9.9.5.7.7.7.7.7.7.9.W.:.u yX1X X>X>X>X1X1X1X-X1X-X-X1X1X'.4X>X<XZ.i iXyX>X'.1X1X!.1X1X-X-X1X1X X-X>X1X>X4X4Xy +.V.b.b.1.b.b.V.b.b.1.b.b.b.;.b.b.b.N.V.J ",
"K _.W.9.7.5.5.5.5.9.7.9.7.7.7.4.7.L.L.!.:.u yX,X1X-X'.1X>X4X-X1X-X X-X X-X2X,X>X,Xn.p yXyXpX1X'.1X1X-X1X>X X'.}.1X!.>XpX1X4XiXy ;.D.V.b.b.P.N.M.b.x.b.b.1.b.v.b.1.b.N.E.J ",
"G |.!.W.W.T.L.T.L.L.L.L.I.L.T.T.I._.W._.:.i yXiXQ.4XpX,X>X>X>X>X>X2X1X1X1X1X2X2X,X>.i tXiX,X4X2X,X!.,X1X1X2X2X1X2X2X4X4X:X,XhXu +.F.V.V.(.N.N.M.b.x.b.b.b.N.J.V.).D.V.).G ",
"w.o.T m c N V V V ..f.@.;.-.,.-.-.-.,.,.;.i X.o.*.&.X.X.T T T U B B B B V T [ X.X.&.p :.T C E B V C V X.X.*.@.*.>.N.,.>.=.1.n.u :.%.o.o.o.} [ D T T V B B B C V [ [ ..[ H ",
"i u r p p p e y i d u s u h p y y y y i y y u u u e p i p p i i p p p p y p p p p p p u p h 9 9 e p p p p p p p f p 9 y 9 9 9 y y y y u y y y p r p p p f h f u r u p i r ",
"2XpXE.2X<X,XpX2X,XpXu &.A.g.g.&.Q Q ~ ~ / T Q X.Q Q ~ ~ W Q g.p u.9XcXfX9X9X7X9XqX7X7XfXfX9XwX7X9X9X9X9Xt.i F.F.].V.V.D.V.V.V.V.V.V.V.P.m.V.V.(.V.N.i yXyXiXiX!.3X4X2X2X1X",
",X1X-X1X'. X>X1X,XiXu j.~ ~ E C C C Y B C B U C C C &.C Y E ~ p c.dX9XdX0X7X7X7X9X6X7XvX7X7X7X8X7X7X9X9X` u H.V.P.b.b.,.1.1.1.3.m.v.3.b.b.b.1.b.V.M.d gXyX4X-X>X>X>X'.>X1X",
">X1X-X1X>X>X>X>X2XiXq *._ ~ C C C C B Y C C Y C C C C C C ! &.j i.dX9X7X0X9X6X7X6X7X7X7X6X9X7X8X7X7X9X9X) u ).V.N.b.b.b.b.b.b.(.b.P.v.b.1.v.v.b.V.v.h yX<X1X>X1X>X>X>X>X1X",
"!.1X1X X-X-X1X4XiXyXp O.~ ~ C Q Y C C Y j.C C C C C C C Q ( S.p ^ dXdX7X6X6X7X7X6XQ.7X7X0X6X7X7X6XqXdXsX` p F.H.v.b.>.b.1.1.).N.x.v.x.l.x.x.P.V.).>.i yX4X2X1XP.-X1X>X>X1X",
"1X'.1XrX4X2X4X4XiXpXe O.y.) W C C Y Y W T C N C E M.~ ~ _ j.u.p t.=XdXqX7X9X8X6X9X9X5X7X7X6XfX9X9XfXvXvXt.e F.F.D.v.v.N.x.V.V.x.v.v.M.D.N.(.V.).).>.p yXiX4X>X>X>X>X>XiX>X",
"[.P.M.h.h.f.~ &.j.M.p =.g.f.*.O.*.g.j.=.&.&.*.g.f.*.&.X.~ &.k.u u.`.,XiXhXhXhXhXhXyX,X`.V.n.l.=.X.Q g.M.t.9 M.N.(.D.(.(.).(.(.P.M.b.l.*.&.X.~ X.=.=.p B.).XX.XoXuXaXaX.X.X",
"u u u u u r h i u i p p y y y u r h p p i p i p u q 8 8 e i i u p p q p i y p.p d d u d e e e 8 9 j 9 i p p i i u i i y i r u r r y p y y 9 r y i i u e p q i u p h d p p ",
"w.).(.V.V.).V.V.V.P.P.P.P.P.V.V.V.P.).F.k.i ).V.V.V.V.V.V.V.S.P.D.D.D.V.V.).H.).).).i W.^.U.~.~./.T.I.~.U.I.L.T.L.L.U.U.T.|.^.p *.*.+.+.O.l.@.@.o.;.-.:.:.:.:.;.z.l.z.l.G ",
"w.).N.b.G.N.b.b.1.b.b.,.b.b.x.b.b.b.P.).@.f (.P.b.m.E.N.b.x.b.1.x.x.v.b.V.v.x.D.D.(.u ).I.9.7.7.U.5.5.9.5.9.7.9.6.5.9.9.6.W.!.u ;.;.o.' o.{ { { { ] { { { ] ] { ' O.O.;.L ",
"w.m.V.b.P.b.b.1.b.b.b.b.v.b.b.l.b.x.N.F.O.i D.m.V.v.v.v.b.x.N.b.x.v.v.V.1.N.v.D.D.D.i b.W.9.7.7.5.7.7.5.9.7.9.9.L.I.9.7.9.L.!.i %.%.} o.{ { { { +.{ ] ] { { ] ] { [ ;.>.G ",
"w.).V.b.b.b.x.b.b.1.>.P.b.b.x.x.l.N.V.Z.O.i H.].F.v.v.l.x.b.x.b.b.b.b.v.b.;.l.V.D.m.p x.W.9.7.5.7.7.7.7.5.6.9.L.9.7.5.7.T.T.!.u O.l.@.l.{ { D { { { { ;.] { { { { { %.;.J ",
"w.H.D.D.S.N.1.v.n.V.V.b.B.v.x.V.V.V.V.F.@.i {.H.D.V.V.).N.1.b.l.b.N.b.b.v.v.N.V.F.=.i >.!.I.E.U.9.7.7.T.T.L.L.W.7.6.T.W.I.W.!.u ;.k.h.%.%.;.:.[ } { { { { { { { { %.=.h.K ",
"q.].).F.).P.E.Z.N.N.v.c.;.=.j.*.X.*.h.M.f.u D.M.=.l.M.M.V.V.F.).).(.P.P.F.).).).).>.y $.^._.|.|.|._.W.J.8.m.b.-.*.%.*.*.&.v.0.u *.=.;.;.;.;.>.l.k.k.k.N.k.;.k.l.>.>.>.;.H ",
"e e i p p e p q q s d 8 q 8 8 5 7 8 r u 9 i p p q 8 8 5 5 8 5 q q q e e e p i i d p h p e y e i d u u u q q q 8 9 9 4 7 9 p w p e e q 8 7 7 7 7 8 8 f e q d e p p i i p u ",
"S.(.D.D.D.B.].].).XXe I._.!.I.I.T.I.I.U.L.U.U.T.K.I.I.I.W.E.}.i t.E.W.~.I.|.I.I.W._.W.~.W.L.W.I.|.|..X_.` r zXzXdXsX9X7X0X0XcXsXdX9XdX7XwXdXdXdXxX{.u ).D.D.V.V.D.S.V.V.(.",
"x.b.b.b.v.l.1.V.N.H.e J.^.T.U.7.9.5.5.9.7.9.9.7.9.7.7.7.5.'.!.p t.I.L.7.7.9.7.7.7.7.9.9.U.7.7.9.7.L.I.W.t.p dXfX7X7X6X6X9X7X9X6X7X7X6X0XqX7X6X7XdX<.p ).V.V.v.b.b.b.b.1.b.",
"b.b.1.1.v.b.1.V.V.G.p b.W.L.7.7.5.L.9.9.7.7.7.7.5.9.7.U.L.W.W.p r.T.9.7.7.7.9.9.4.7.9.5.7.7.7.7.7.L.T.W.` i cX9X7X7X0X6X9X7X7X6X7X7X0X0X6X6X6X7XqX$.p F.V.x.x.b.b.v.b.1.b.",
"b.x.b.b.1.,.x.N.D.H.u ,.!.L.7.9.L.9.5.9.L.7.7.9.7.5.9.9.7.W.W.i y.!.L.L.7.5.9.9.7.9.9.b.7.7.7.5.L.L.W.W.) q cX9XqX7X7XxX7X9X;X7X7X6X7X0X7X7X7X7XcX .e F.D.).V.l.b.l.v.b.1.",
"l.x.v.b._.N.b.V.D.Z.u >._.I.~.!.L.9.5.5.U.L.~.U.5.7.5.T.P.T.R.i ~ !.|.L.T.^. X~.7.5.5.9.7.7.7.L.L.L.W.I.) u cXzX:XqXfX7X8X7X7X7XqX6X0X0X9X8X=X7XzXX.p ).).D.V.(.).x.b.b.b.",
"F.F.V.F.G.).).).`.V.p -._.P.M.j.=.>.J.J.P._._.|.|./.!.!.!.!._.p ^ !._.P.[.(._.'.!.^.W.T.W.T.!.'._.^. X_.` p kX4XG.h.h.v.B.`.<XiXgXvXvXfXvXkXfXvXzX..p F.).V.D.{.D.).).F.].",
"5 5 q h 0 8 - 9 y p p p y - 5 4 # < # 4 4 5 5 7 8 8 8 r y - r y 9 p 9 7 4 . 4 # # # 7 7 8 5 8 9 8 9 q q q.h p 8 7 . . # 7 # 4 7 4 5 5 h 7 9 8 i u 9 y p p 9 q 4 # # # 4 4 ",
"w.xXbXdXdXdXdXzXdXdXdXdXdXdXdXdXdXdXdXdXf.d G.G.n.n.v.N.N.N.N.n.n.A.eXG.C.n.B.C.Z.P.p ( c.` ` ( ` ( I I I I / / ( / / / / ) ) e o.E.`.K.K.P.L.U.L.Y.Y.C.C.,XQ.C.C.E.W.W.P ",
"G 9X9X7X7X8X8X7X7X6X9X8X7X8X8X9X6X9XsXwX@.p H.D.N.b.1.1.v.3.1.v.3.V.v.x.b.b.(.v.Z.F.y _ _ Y U C U Y Y Y Y N ~ Y Y U C C Y ~ _ u *.'.I.7.7.7.7.5.6.9.9.6.5.8.9.6.5.8.L.!.K ",
"P dX7X7X6X7X7X7X7X7X7X7X7X7X6X7X7X7X7XdX;.d D.(.1.b.v.v.b.b.b.b.1.v.b.b.b.x.x.P.(.Z.p u.Q U C C Y U C C C ~ C B B U U B C Q g.i z.W.L.7.7.9.5.7.7.7.7.5.7.7.9.7.9.9.W. XJ ",
"G sX9X7X7X7X7X7X;X0XwX7X7X7X7X7X7X7X7XdXc.i H.D.b.1.b.N.l.b.b.b.J.b.v.x.b.b.b.D.).Z.p ` / B C C Q C =.C W Y C U U C C C U Q y.i @.^.L.6.7.5.9.7.7.5.7.3.7.7.7.5.5.L.W./.e.",
"q.cXfX9X9X8X7X7X9X7X7X7XC.7X6X7X7X7X7XdXf.i F.].m.S.b.b.1.N.V.V.V.>.x.x.l.V.V.N.XX`.y _ y.~ C Y C Y Y W N C N Y Y B C B Q W g.i +.^.T.P.I.6.7.7.I.W.L.9.7.5.5.L.~.K.L.}.J ",
"q.fXfXzXzXwXzXzXzXwXwX7XwX7XwX7XwXwXzXxX@.f ).].H.).).).F.F.F.F.).F.S.H.M.M.v.{.XXV.p $.g.` y.y.( _ u.y.t.~ ! W Q ! Q ~ _ c.y.9 =.'.|._.I.|.'._._.|._.`.E.E.K.J.b.K./.`.J ",
"p 8 q w 7 9 8 7 < # # # < # . . # 4 4 5 q y 8 7 8 4 7 7 7 < 4 4 # 4 < . # . 7 q 7 p i e q 9 8 0 0 7 7 4 7 4 < 4 < # 4 < 7 5 4 p p 9 7 7 4 5 q q # # 4 < < . # # # # # 9 e ",
"aXaXaXaXhXhXhXkXkXmXp uX4X3X4X3X2X2X4X4XiX4X2XhXaXhXuXaXuXuXpXp r.pXrXrX,X{.{.).).}.:X}.rXXXaXgXgXgXkXlXi.y 1X'.>X'.'.1X'.'.1X1X1XaXuXuX.X}.,X,X}.!.r <XaXpXuXaXaX2X4X3XuX",
"R.R.Y.T.Y.Y.R.Y./.>Xp ).4X2X>X4X>X'.>X'. X-X-XY.>X>X2X'.2X2XiXe t.D.V.x.b.b.b.b.l.v.v.v.b.b.v.>.x.x.N.V.y.i 1X'.Y.!.C.T.W.R.Y.R.Y.Y.Y.R.R.R.!.'.`.1.i ,X>X!.T.R.T.!.T.Y.T.",
"T.T.!.Y.T.R.T.T.R.>Xp P.2X1X4X-X1X'.>X!.-X1X-X!.'.2X>X>X>X4XyXp r.D.v.v.b.b.1.b.b.v.x.b.x.x.D.b.v.v.x.D.g.u :XY.Y.!.T.T.Y.T.Y.T.T.T.T.T.T.T.0.!.!.>.e >X!.T.!.R.T.T.T.T.Y.",
"E.T.m.Y.T.T.R.T.'.>Xi N.iXpXY.:X>X>X>X1X>X>XY.>X1X X-X1X1XpXiXp ) V.v.b.1.3.x.b.b.b.b.x.l.m.b.>.v.v.v.B.g.u >X'.Y.R.T.Y.T.T.Y.T.6.T.T.T.T.T.T.'.'.*.p >X'.!.T.T.R.T.T.T.Y.",
"T.!.R.Y.Y.T.Y.'.'.,Xp b.gX2X2X>XQ.'.1X'.>X>X'. X>X!.!.-X1X2XiXs r.H.D.l.b.b.b.1.b.,.b.b.M.1.b.l.x.v.V.H.g.u ,X'.'.T.!.I.R.T.T.T.0.Y.T.R.0.T.R.'.'.o.p `.,X!.Y.R.T.Y.T.Y.T.",
"2X:X-X-X!.>X:X>X:X>Xy v.4X4XiX4X4X4X4X4X2X2X2X2X2X2X4XiXpXiXhXp u.H.(.D.D.V.V.V.N.V.V.F.G.F.F.F.Z.F.(.F.g.u >X>X:X,X>X:X>X'.'.!.:X2X>X!.>X>X1X,X1X%.e :X2X'.'.'.!.>X'.'.'.",
"5 # 4 . 3 $ 4 4 $ 8 9 e 7 . # . . # # # . 7 # 3 4 # 4 < 4 4 4 f d < < 4 3 . + # . # # # . . # # $ $ # 4 p p 7 # # . . < . # # 0 q . # + # # 4 # 4 7 e 4 < . # # # # + # # ",
"G jXBXNXSXGXGXHXHXGXCXCXNXjXjXjXjXBXNXZXtXu HXHXFXFXFXFXFXSXHXSXVXNXbXnXVXNXVXDXDXjXr nXnXVXAXDXDXFXHXGXHXAXVXnXlXlXnXMXCXCXAXj NXHXGXDXDXGXGXDXSXFXVXVXNXbXVXBXZXZXSXAXw.",
"w.].V.N.l.b.b.x.x.b.b.b.x.l.,.b.b.b.F.XX;.e D.).b.x.b.1.x.,.v.x.b.l.v.N.1.v.v.[.V.B.y pXiX1Xm.>X>X>X'.<X'.>X-X'.-Xm.'.1X2X2XyX9 h.I.L.7.7.6.7.8.5.9.9.7.8.L.7.7.8.9.W.'.G ",
"G ].V.l.1.b.,.D.1.x.b.b.v.b.b.b.b.b.V.D.;.e D.l.b.b.b.b.x.v.x.v.v.b.v.x.b.b.b.V.V.n.p pXiX,X>X>X>X1X4X>X1X-X X>X>X-X>XY. X2X4Xi O.T.7.6.7.9.7.7.9.9.7.7.7.9.7.7.7.7.Y.W.G ",
"K H.V.N.b.v.).b.b.x.b.b.v.1.1.b.1.b.V.D.;.u D.D.,.b.b.x.b.x.v.v.b.b.v.v.b.b.N.>.S.n.p iXiX2X1X1X>X<X>X'.V.>X>X>X>X>X>X1X1X2XiXp O.L.7.7.7.7.L.6.,.7.7.7.7.7.5.7.7.E.6.L.K ",
"w.).D.N.V.V.v.v.l.x.b.b.>.b.b.v.b.b.Z.).=.i D.D.N.x.N.x.x.b.b.b.x.x.x.v.x.V.1.V.V.l.y pXiX<X4X1X>X'.'.>X'.>X'.2X1X1X1X4X<X4XyXi O.^.T.7.7.W.9.9.6.7.5.7.9.5.7.7.^.7.L.~.w.",
"G H.F.F.].G.F.D.D.(.F.D.F.F.F.F.F.F.H.).=.p F.).H.].[.D.(.V.P.V.V.D.P.V.H.V.P.S.D.=.y <XpXiXiXiXiX<XuX<X4XiXiX4X4XgXiX4XiXiXiXp *.W.!.W.,XW.L.W.W.L.I.L.~.T.~.W.T.W.!.W.K ",
"p < < < , 2 , < < < , , < < < . < < < , 0 p < < a a < 4 < 1 < < 1 < < < < 1 < < X < y 2 , < , < < < . . 1 1 < < 2 , < 2 , , < p 7 . . w   < < < . . < < , < , < < , < , a ",
"ZXZXZXCXCXBXBXBXBXmXp gXMXAXVXVXVXVXVXMXMXVXAXAXVXBXMXMXMXnXnXi i.MXVXVXBXVXBXSXSXAXAXCXVXVXZXVXVXMXmXmXA.y MXMXMXMXMXMXSXAXAXAXAXVXVXVXBXBXVXBXmXlXi BXBXBXBXVXBXZXZXZXSX",
"{ { { | ' | { [ N.h.u 1.<X`.!.T.T.T.R.T.T.T.T.T.Y.0.Y.R.Y.!.,Xp ) W.W.L.L.7.7.L.3.6.7.9.I.7.7.9.7.7.L..Xy.8 :X,X!.!.Y.!.R.2.R.0.R.0.T.R.Y.R.Y.!.E.E.u l.l.O.[ o.D } +.] { ",
"O.] ] ] { ' { { ] ;.u b.`.R.T.Y.T.T.T.T.0.T.Y.Y.T.T.Y.Y.Y.T.>Xp t.W.L.7.7.7.7.7.7.7.7.L.9.7.7.7.7.9.7.L.t.r iX'.Y.R.T.Y.T.T.Y.T.0.T.T.T.Y.T.T.T.R.m.8 M.%.{ [ { { { { ] { ",
"{ { ] ] { { ' [ >.k.h %.:X!.T.Y.0.R.R.T.2.R.T.T.T.T.T.T.Y.>X:Xp.t.!.~.L.5.5.7.7.7.,.I.7.7.7.7.7.5.,.T.^.t.p >X}.!.T.Y.T.T.T.K.T.W.T.R.0.T.T.1.!.>Xn.p.l.;.+.{ ' { { ] { } ",
"] { { | -.' ' +.>.>.e o.>X'.R.R.Y.T.Y.T.R.T.R.Y.8.n.W.T.!.>XiXy ) _.W.7.7.6.6.5.5.T.7.7.7.6.,.4.9.L.I.'.y.r ,X`.!.T.R.T.T.T.!.Y.T.T.8.R.3.R.W.!.>Xv.u k.=.%.' } { { ] ] ] ",
"-.-.@.;.>.>.;.z.J.k.p %.:XQ.'.!.-X-X>X!.'.!.!.'.'.}.'.:X:XtX,Xp ( _.!.R.T.W.W.W.Y.W.!.L.W.!._._.^.^._.'.t.r :X'.>X>X>X'.!.<X'.:X'.!.1X>X>X>X}.,X,X*.r l.*.l.=.=.>.+.-.+.*.",
"4 < < < , < < < 1 , 9 4     X   . 2 2     < , 1 1 < < , 2 , 2 p e X   ,       X .           . . , 2 2 , u u X   ,     . e   .   ,     X , , , < , 7 r X < , , , < < , , , ",
"y d.#X%X%X%X&X&Xs.#XOXOXOX%Xs.s.%X&X%X%X$Xp &X%X&X%X$X&X$X#XOX%X%XOX+X%X%X%X%X%X%X#Xp d.%X#X#XOX%X+X@X+X+X+X+Xd.d.#Xd.%X+X#X%Xe &X%X$X&X%X%X&X%X%X%X%X%X+X+X+X%X$X*XOX$X8 ",
"K c.~ ~ N E B Y C C Y Y N Y C ~ W Y W ! :.p (.F.m.v.N.v.v.N.v.v.v.v.v.N.v.D.N.V.).).p h.;.@.} [ o.{ { ' { ' ] ] { { ] { { O.V.i -.V.V.v.N.v.x.v.1.b.b.1.v.m.v.v.{.B.V.F.J ",
"P &.! Y _ Y C C C C C C E C C T C C ~ g.;.q D.b.x.b.x.v.b.v.M.b.v.v.b.N.V.v.v.N.D.D.e *.o.{ o.o.{ { { { { { { { >.[ [ { { O.v.u +.N.b.l.D.x.b.v.b.v.v.v.b.b.b.V.b.l.V.(.J ",
"K g.~ N C C C C C C C Q C C C C C C ~ y.k.p ).D.v.l.v.x.b.x.x.x.v.b.x.D.v.v.v.m.).B.d *.*.[ ' ] ] { { { { { D { { @.{ { -.;.l.i -.F.V.b.v.v.x.x.v.b.b.;.x.x.N.x.b.P.V.).J ",
"P g.A.! ! Y C C C C C C C N Y Y Y E ~ y.#.q {.XXV.v.v.v.l.x.v.x.x.l.V.3.>.J.v.V.D.M.i *.>.o.%.{ -.{ [ [ { { { *.{ { D [ %.;.>.i ;.).H.M.v.x.b.l.b.x.x.x.v.x.x.b.l.V.V.).J ",
"P u.j.S.~ &.&._ ~ ~ ~ ~ ~ ~ j.X._ &.&.y.:.u XXD.D.D.D.F.D.D.D.D.V.V.V.N.V.F.V.F.F.l.i *.>.l.l.;.;.;.;.k.*.O.;.=.k.;.>.=.>.l.>.i ;.H.F.F.S.H.Z.m.(.D.(.(.V.(.(.S.V.V.).{.G ",
"y = % $ $ @ @ % % % : r o @ o @ $ o o o = j o @ @ o o o o $ O O O O O o o $ o o o o p @ % % % % % % @ o o : o o o o O O $ o o p & o o O o o o o o o o o o % % % o o % @ t "
};
