/* XPM */
static char *wooden_bucket_1_png1736886832[] = {
/* columns rows colors chars-per-pixel */
"85 85 247 2 ",
"   c #030103",
".  c #0C0003",
"X  c #02010C",
"o  c #0A010C",
"O  c #0A0A0C",
"+  c #13000C",
"@  c #160208",
"#  c #040115",
"$  c #0B0214",
"%  c #04011A",
"&  c #0A021A",
"*  c #0D0A1A",
"=  c #080A15",
"-  c #140419",
";  c #19151E",
":  c #2A0303",
">  c #290216",
",  c #360816",
"<  c #380B0C",
"1  c #070624",
"2  c #180724",
"3  c #161627",
"4  c #111332",
"5  c #230B23",
"6  c #261428",
"7  c #36162A",
"8  c #291D34",
"9  c #37162F",
"0  c #1C273C",
"q  c #272429",
"w  c #2B2937",
"e  c #352637",
"r  c #3B3238",
"t  c #322A31",
"y  c #4B1511",
"u  c #441829",
"i  c #581725",
"p  c #431C37",
"a  c #4A102D",
"s  c #5B242A",
"d  c #47283A",
"f  c #5B2A38",
"g  c #433437",
"h  c #692A39",
"j  c #732A38",
"k  c #693439",
"l  c #7A3739",
"z  c #6E312A",
"x  c #79261D",
"c  c #774232",
"v  c #192B4B",
"b  c #272949",
"n  c #28344B",
"m  c #333A4E",
"M  c #343B54",
"N  c #363C58",
"B  c #32334E",
"V  c #343560",
"C  c #241D46",
"Z  c #4B2743",
"A  c #483949",
"S  c #583749",
"D  c #5A3C52",
"F  c #50354B",
"G  c #682F42",
"H  c #623343",
"J  c #623D4B",
"K  c #6A3848",
"L  c #743B45",
"P  c #7B3C44",
"I  c #723C48",
"U  c #773746",
"Y  c #653D53",
"T  c #782F41",
"R  c #3B445C",
"E  c #35425C",
"W  c #2E4053",
"Q  c #3C4A65",
"!  c #3A4565",
"~  c #3B586D",
"^  c #46465A",
"/  c #584957",
"(  c #554E52",
")  c #674347",
"_  c #7D4346",
"`  c #68495A",
"'  c #79565A",
"]  c #735057",
"[  c #474B64",
"{  c #4A536A",
"}  c #44536C",
"|  c #575568",
" . c #495872",
".. c #53556F",
"X. c #785C64",
"o. c #665668",
"O. c #4B697B",
"+. c #536479",
"@. c #576678",
"#. c #5A6162",
"$. c #686869",
"%. c #76736D",
"&. c #666C77",
"*. c #756D74",
"=. c #6B7178",
"-. c #787877",
";. c #7B656D",
":. c #863A38",
">. c #9A3837",
",. c #89443A",
"<. c #944739",
"1. c #9D553B",
"2. c #96482B",
"3. c #A4533A",
"4. c #A74F3D",
"5. c #B26939",
"6. c #C76A39",
"7. c #843E43",
"8. c #873C45",
"9. c #8B4244",
"0. c #854446",
"q. c #964A45",
"w. c #9A5346",
"e. c #83565B",
"r. c #9A5856",
"t. c #91504D",
"y. c #A24E44",
"u. c #A55444",
"i. c #AA5A45",
"p. c #A55949",
"a. c #AB5B4A",
"s. c #A65648",
"d. c #B15E49",
"f. c #AB5C58",
"g. c #9C645B",
"h. c #9F7752",
"j. c #AB6449",
"k. c #B4644C",
"l. c #BD6E4D",
"z. c #B86647",
"x. c #BC724C",
"c. c #B76855",
"v. c #B57157",
"b. c #865862",
"n. c #956365",
"m. c #856F75",
"M. c #827679",
"N. c #8F6B6B",
"B. c #B47369",
"V. c #AF586C",
"C. c #C46A4A",
"Z. c #C5754B",
"A. c #C77956",
"S. c #CD7650",
"D. c #C77A67",
"F. c #C9747A",
"G. c #89867C",
"H. c #978F7A",
"J. c #B08776",
"K. c #CB8559",
"L. c #D3895A",
"P. c #D7955D",
"I. c #CF905D",
"U. c #EB9457",
"Y. c #CD8466",
"T. c #D68D63",
"R. c #D59462",
"E. c #DA9564",
"W. c #DB9A66",
"Q. c #DC9C6A",
"!. c #D9966B",
"~. c #DD9B75",
"^. c #E39A6A",
"/. c #E39C75",
"(. c #D8A26A",
"). c #DAAA71",
"_. c #E1A572",
"`. c #E6A47B",
"'. c #EDAA75",
"]. c #556B88",
"[. c #5A728C",
"{. c #54718D",
"}. c #676E81",
"|. c #697A8A",
" X c #637B91",
".X c #75788C",
"XX c #847A82",
"oX c #6D8393",
"OX c #778997",
"+X c #7A939C",
"@X c #7A9399",
"#X c #77838E",
"$X c #7B97A2",
"%X c #8E9192",
"&X c #A89C90",
"*X c #8598A3",
"=X c #92AAAB",
"-X c #AEB4AF",
";X c #A9A399",
":X c #CA9586",
">X c #D3B491",
",X c #F3B68E",
"<X c #CDBBA6",
"1X c #E8C494",
"2X c #F8CB90",
"3X c #DBC2A6",
"4X c #C8C7B7",
"5X c #D6C9B7",
"6X c #FCDCA4",
"7X c #FAD9A8",
"8X c #FCDCB3",
"9X c #F9DCB5",
"0X c #E9CFB5",
"qX c #FCE4A9",
"wX c #FEE4B4",
"eX c #FEECBC",
"rX c #F9E6B6",
"tX c #FFF8B9",
"yX c #A5B7C3",
"uX c #B7C6C4",
"iX c #CBD2C4",
"pX c #D4DCCB",
"aX c #D7DACA",
"sX c #D6DFD1",
"dX c #D8DBD4",
"fX c #CDCDC7",
"gX c #E5DCC5",
"hX c #EDD7CF",
"jX c #D7E0CF",
"kX c #D7E0D2",
"lX c #DAE1D3",
"zX c #D6E6D9",
"xX c #FCE7C5",
"cX c #FFF5CA",
"vX c #E9E4D8",
"bX c #F5EBD7",
"nX c #FEFDDC",
"mX c #FCF7D8",
"MX c #EDE7CD",
"NX c #FDFCE5",
"BX c #FEFDEC",
"VX c #F8F5E6",
"CX c #FEFEF4",
"ZX c #FFFFFC",
"AX c #FDF6F4",
"SX c #F1ECE3",
"DX c None",
/* pixels */
"DXDXDXDXDXDXDXDXDXDXDXDXDXDXDXDXDXDXDXDXDXDXDXDXDXDXDXDXDXDXDXDXDXDXDXDXDXDXDXDXDXDXDXDXDXDXDXDXDXDXDXDXDXDXDXDXDXDXDXDXDXDXDXDXDXDXDXDXDXDXDXDXDXDXDXDXDXDXDXDXDXDXDXDXDX",
"DXDXDXDXDXDXDXDXDXDXDXDXDXDXDXDXDXDXDXDXDXDXDXDXDXDXDXDXDXDXDXDXDXDXDXDXDXDXDXDXDXDXDXDXDXDXDXDXDXDXDXDXDXDXDXDXDXDXDXDXDXDXDXDXDXDXDXDXDXDXDXDXDXDXDXDXDXDXDXDXDXDXDXDXDX",
"DXDXDXDXDXDXDXDXDXDXDXDXDXDXDXDXDXDXDXDXDXDXDXDXDXDXDXDXDXDXDXDXDXDXDXDXDXDXDXDXDXDXDXDXDXDXDXDXDXDXDXDXDXDXDXDXDXDXDXDXDXDXDXDXDXDXDXDXDXDXDXDXDXDXDXDXDXDXDXDXDXDXDXDXDX",
"DXDXDXDXDXDXDXDXDXDXDXDXDXDXDXDXDXDXDXDXDXDXDXDXDXDXDXDXDXDXDXDXDXDXDXDXDXDXDXDXDXDXDXDXDXDXDXDXDXDXDXDXDXDXDXDXDXDXDXDXDXDXDXDXDXDXDXDXDXDXDXDXDXDXDXDXDXDXDXDXDXDXDXDXDX",
"DXDXDXDXDXDXDXDXDXDXDXDXDXDXDXDXDXDXDXDXDXDXDXDXDXDXDXDXDXDXDXDXDXDXDXDXDXDXDXDXDXDXDXDXDXDXDXDXDXDXDXDXDXDXDXDXDXDXDXDXDXDXDXDXDXDXDXDXDXDXDXDXDXDXDXDXDXDXDXDXDXDXDXDXDX",
"DXDXDXDXDXDXDXDXDXDXDXDXDXDXDXDXDXDXDXDXDXDXDXDXDXDXDXDXDXDXDXDXDXDXDXDXDXDXDXDXDXDXDXDXDXDXDXDXDXDXDXDXDXDXDXDXDXDXDXDXDXDXDXDXDXDXDXDXDXDXDXDXDXDXDXDXDXDXDXDXDXDXDXDXDX",
"DXDXDXDXDXDXDXDXDXDXDXDXDXDXDXDXDXDXDXDXDXDXDXDXDXDXDXDXDXDXDXDXDXDXDXDXDXDXDXDXDXDXDXDXDXDXDXDXDXDXDXDXDXDXDXDXDXDXDXDXDXDXDXDXDXDXDXDXDXDXDXDXDXDXDXDXDXDXDXDXDXDXDXDXDX",
"DXDXDXDXDXDXDXDXDXDXDXDXDXDXDXDXDXDXDXDXDXDXDXDXDXDXDXDXDXDXDXDXDXDXDXDXDXDXDXDXDXDXDXDXDXDXDXDXDXDXDXDXDXDXDXDXDXDXDXDXDXDXDXDXDXDXDXDXDXDXDXDXDXDXDXDXDXDXDXDXDXDXDXDXDX",
"DXDXDXDXDXDXDXDXDXDXDXDXDXDXDXDXDXDXDXDXDXDXDXDXDXDXDXDXDXDXDXDXDXDXDXDXDXDXDXDXDXDXDXDXDXDXDXDXDXDXDXDXDXDXDXDXDXDXDXDXDXDXDXDXDXDXDXDXDXDXDXDXDXDXDXDXDXDXDXDXDXDXDXDXDX",
"DXDXDXDXDXDXDXDXDXDXDXDXDXDXDXDXDXDXDXDXDXDXDXDXDXDXDXDXDXDXDXDXDXDXDXDXDXDXDXDXDXDXDXDXDXDXDXDXDXDXDXDXDXDXDXDXDXDXDXDXDXDXDXDXDXDXDXDXDXDXDXDXDXDXDXDXDXDXDXDXDXDXDXDXDX",
"DXDXDXDXDXDXDXDXDXDXDXDXDXDXDXDXDXDXDXDXDXDXDXDXDXDXDXDXDXDXDXDXDXDXDXDXDXDXDXDXDXDXDXDXDXDXDXDXDXDXDXDXDXDXDXDXDXDXDXDXDXDXDXDXDXDXDXDXDXDXDXDXDXDXDXDXDXDXDXDXDXDXDXDXDX",
"DXDXDXDXDXDXDXDXDXDXDXDXDXDXDXDXDXDXDXDXDXDXDXDXDXDXDXDXDXDXDXDXDXDXDXDXDXDXDXDXDXDXDXDXDXDXDXDXDXDXDXDXDXDXDXDXDXDXDXDXDXDXDXDXDXDXDXDXDXDXDXDXDXDXDXDXDXDXDXDXDXDXDXDXDX",
"DXDXDXDXDXDXDXDXDXDXDXDXDXDXDXDXDXDXDXDXDXDXDXDXDXDXDXDXDXDXDXDXDXDXDXDXDXDXDXDXDXDXDXDXDXDXDXDXDXDXDXDXDXDXDXDXDXDXDXDXDXDXDXDXDXDXDXDXDXDXDXDXDXDXDXDXDXDXDXDXDXDXDXDXDX",
"DXDXDXDXDXDXDXDXDXDXDXDXDXDXDXDXDXDXDXDXDXDXDXDXDXDXDXDXDXDXDX& # $ DXDXDXDXDXDXDXDXDXDXDXDXDXDXDXDXDXDXDXDXDXDXDXDXDXDXDXDXDXDXDXDXDXDXDXDXDXDXDXDXDXDXDXDXDXDXDXDXDXDXDX",
"DXDXDXDXDXDXDXDXDXDXDXDXDXDXDXDXDXDXDXDXDXDXDXDXDXDXDXDXDXDXX BXCXhXo DXDXDXDXDXDXDXDXDXDXDXDXDXDXDXDXDXDXDXDXDXDXDXDXDXDXDXDXDXDXDXDXDXDXDXDXDXDXDXDXDXDXDXDXDXDXDXDXDXDX",
"DXDXDXDXDXDXDXDXDXDXDXDXDXDXDXDXDXDXDXDXDXDXDXDXDXDXDXDXDX$ ;XCXo vXhX- DXDXDXDXDXDXDXDXDXDXDXDXDXDXDXDXDXDXDXDXDXDXDXDXDXDXDXDXDXDXDXDXDXDXDXDXDXDXDXDXDXDXDXDXDXDXDXDXDX",
"DXDXDXDXDXDXDXDXDXDXDXDXDXDXDXDXDXDXDXDXDXDXDXDXDXDXDXDXDX&.-X-.- $.%.$ DXDXDXDXDXDXDXDXDXDXDXDXDXDXDXDXDXDXDXDXDXDXDXDXDXDXDXDXDXDXDXDXDXDXDXDXDXDXDXDXDXDXDXDXDXDXDXDXDX",
"DXDXDXDXDXDXDXDXDXDXDXDXDXDXDXDXDXDXDXDXDXDXDXDXDXDXDXDXDX| ..# .Xs # & bXMXvX4X&X$.` ( g r g r t q DXDXDXDXDXDXDXDXDXDXDXDXDXDXDXDXDXDXDXDXDXDXDXDXDXDXDXDXDXDXDXDXDXDXDX",
"DXDXDXDXDXDXDXDXDXDXDXDXDXDXDXDXDXDXDXDXDXDXDXDXDXDXDXDXDX{ | V.XX<.X & bX- = & $ $ $ $ $ * o $ $ $ & - # O DXDXDXDXDXDXDXDXDXDXDXDXDXDXDXDXDXDXDXDXDXDXDXDXDXDXDXDXDXDXDX",
"DXDXDXDXDXDXDXDXDXDXDXDXDXDXDXDXDXDXDXDXDXDXDXDXDXDXDXDXDX& w , c.wXrXwX0X< mX9XcXeXh.wXeXeXeXnXnX. cXmXcX$ xXeXwXX DXDXDXDXDXDXDXDXDXDXDXDXDXDXDXDXDXDXDXDXDXDXDXDXDXDXDX",
"DXDXDXDXDXDXDXDXDXDXDXDXDXDXDXDXDXDXDXDXDXDXDXDXDXDXDXDXDX% % % # 7XeXxXCX% NX1X>XBXy (.NX>X>XCX:X. >X,Xo % xX1XeX$ X # A DXDXDXDXDXDXDXDXDXDXDXDXDXDXDXDXDXDXDXDXDXDXDXDX",
"DXDXDXDXDXDXDXDXDXDXDXDXDXDXDXDXDXDXDXDXDXDXDXDXDXDXDX& 8XwX6XcXnX8XX a.<.$ d.p.i.L.<.k.Y.w.3.Y.i.- y.:.% F s s @ eXmX6XxXMX$ ; DXDXDXDXDXDXDXDXDXDXDXDXDXDXDXDXDXDXDXDXDX",
"DXDXDXDXDXDXDXDXDXDXDXDXDXDXDXDXDXDXDXDXDXDXDXDXDX3 X 7X8XxXCXmX0Xk.# p.q.X a.p.a.D.<.k.Y.1.p.Y.u.o u.:.$ D s Z d _ N.CXcXxXxX& &XDXDXDXDXDXDXDXDXDXDXDXDXDXDXDXDXDXDXDXDX",
"DXDXDXDXDXDXDXDXDXDXDXDXDXDXDXDXDXDXDXDXDXDXDXX 2 6XwX#   j.u.a.i.k.# a.<.e d.p.p.v.,.k.A.u.<.A.i.X s.:.& / G G d P f l l tX# 7XrXcXg DXDXDXDXDXDXDXDXDXDXDXDXDXDXDXDXDXDX",
"DXDXDXDXDXDXDXDXDXDXDXDXDXDXDXDXDXDXDXDXDXDXDXn.h.cXwX>.= k.3.k.d.k.# i.u.i i.s.p.A.9.k.v.u.p.8.p.o 4.:.& Y h S Z L h L L P /.cXBXrX  - DXDXDXDXDXDXDXDXDXDXDXDXDXDXDXDXDX",
"DXDXDXDXDXDXDXDXDXDXDXDXDXDXDXDXDXDXDXDXDXO 2X2X2XNXq d * k.w.j.d.k.# a.a.% :.u.p.A.d.d.c.u.p.8.i.+ y.:.$ F f h L I U L L P 7 p 2X6X1X2X  DXDXDXDXDXDXDXDXDXDXDXDXDXDXDXDX",
"DXDXDXDXDXDXDXDXDXDXDXDXDXDXDXDXDXDXDXDX%.2X6XqXy P @ l * k.f.a.k.c.# i.i.% T y.u.v.a.j.l.u.p.9.i.- y.,.$ S h S L _ # L P U U % h F.7X6X. X DXDXDXDXDXDXDXDXDXDXDXDXDXDXDX",
"DXDXDXDXDXDXDXDXDXDXDXDXDXDXDXDXDXDXDX# A.6.^.,.$ P I 0.= a.d.k.a.c.# p.:XbXZXZXX.n.b.g.e.' X.` X.e ZXCXAX<XS G f f # L I I 8.= K * c `.2.2.DXDXDXDXDXDXDXDXDXDXDXDXDXDXDX",
"DXDXDXDXDXDXDXDXDXDXDXDXDXDXDXDXDXDXDX. qXcXmX_ 0.T P 0.= a.f.a.d.VXSXZXCXw ( g.' g.' g.] e.X.o.X.e X./ # * CXNX;X) 1 K P P 8.1 U D U 0XwXwXo DXDXDXDXDXDXDXDXDXDXDXDXDXDX",
"DXDXDXDXDXDXDXDXDXDXDXDXDXDXDXDXDXDX& 6XqXCXr._ _ h _ k = 0.AXZXm.m.^ M.m.B ' N.' n.X.g._ ' X.;.X.w ` Y 2 0 m M R ^ ZXmXS K 5 & G A $ 9 wXqX. $ DXDXDXDXDXDXDXDXDXDXDXDXDX",
"DXDXDXDXDXDXDXDXDXDXDXDXDXDXDXDXDXDX# BXNXZXl L L _ _ k m.ZX<Xm.m.m.( M.M.n ] *.N.N.' n.X.e.B b.;.w J.` 3 8 N N A [ n D dXNX9 Z T S & 9 CXBXX o DXDXDXDXDXDXDXDXDXDXDXDXDX",
"DXDXDXDXDXDXDXDXDXDXDXDXDXDXDXDXDXDX$ bXxXMX% L L L ] r M m.XXm.*.( | CXCXCXCXZXCXZXZXZXX.;.o.o.=.E &.| NXNXVXB N ^ v F [ [ { mXH I K - wXwX&X$ DXDXDXDXDXDXDXDXDXDXDXDXDX",
"DXDXDXDXDXDXDXDXDXDXDXDXDXDXDXDXDXDX% 9X7XnX% U U AXt [ m m.m.;.ZXCXZXZXZX| OX@XOXoX&.&.( 4X-X%.}.Q &.{ M M BXCXBX#.v A ^ ^ A b 2 K K - 7X7X-X$ DXDXDXDXDXDXDXDXDXDXDXDXDX",
"DXDXDXDXDXDXDXDXDXDXDXDXDXDXDXDXDXDX$ 5.x._.$ H SX| | | ^ dXCXiX@XZX~ $X+XO.+X@XoXoX|.#X.XoX|.|.|.[ }.#.M E { { } [ b NX.X| [ [ b CXK 7 S.6.(.$ DXDXDXDXDXDXDXDXDXDXDXDXDX",
"DXDXDXDXDXDXDXDXDXDXDXDXDXDXDXDXDXDX& & $ $ - AXA | | =.CXCX=X@X@XZX~ $X+XO.+X+X+XoX@XOXOXoXoXoXoX~ &.@.M E } ~ { { n R A dX[ ^ b V r % $ & # # DXDXDXDXDXDXDXDXDXDXDXDXDX",
"DXDXDXDXDXDXDXDXDXDXDXDXDXDXDXDXDXDX= u 9XwX2Xw | | SX+XO.*XpX+X@XZX].zXvXO.$X+X+X+X+XOXOXOXBXZXZXbXoX@.R R [.oX;X .n ^ } }  .vX}  .% >X6X6X$ $ DXDXDXDXDXDXDXDXDXDXDXDXDX",
"DXDXDXDXDXDXDXDXDXDXDXDXDXDXDXDXDXDX% t cX1X8X$ | VX#X@XO.*X*X+X@XZXZX$X$XO.$X+X+X+X+XOXOXOXaXjXgX%XoX@.R Q oX{.-X} n ^ { [ ].V $.[ 2 qX6XVX% % DXDXDXDXDXDXDXDXDXDXDXDXDX",
"DXDXDXDXDXDXDXDXDXDXDXDXDXDXDXDXDXDXDX= H CXNXNXbX@X@X$XO.$X+XZXZXZXZXZX*X].zXzXzXdXsXdXkXkX@XOXoX#.jXlX~ ].{. X].].{.{.[.].].].# $ VXAX: # % # DXDXDXDXDXDXDXDXDXDXDXDXDX",
"DXDXDXDXDXDXDXDXDXDXDXDXDXDXDXDXDXDXDX% J x.1Xw.h.X = iXSXCXZXZXZXZXZXZXZXZXZXkXkXsXsXZXjXkXpXpXpXpXpXpX4XO. XoX].].{.[.[.[.].0 O J.c.,X  aXCX4X* DXDXDXDXDXDXDXDXDXDXDXDX",
"DXDXDXDXDXDXDXDXDXDXDXDXDXDXDXDXDXDXDX% Y / % 7X7XxXxX. # dXfXZXZXZXZXZXCXpXpXpXpXkXpXbXpXjXjXpXkX=X=X=X=XkXiX4X-XyX[.-X% & 6X6XrXNXCX0X5X0X. &X&X% DXDXDXDXDXDXDXDXDXDXDX",
"DXDXDXDXDXDXDXDXDXDXDXDXDXDXDXDXDXDXDX% ) Y % c 7XNXrX9X9X% $ ZXZXZXZXZXsXsXsXpXkXsXsXdXkXkXjXjXjX-XuXuXuXiX4XiXuXiXX # # 9XxX6XCXgXcX1.%X;X4X* %.% DXDXDXDXDXDXDXDXDXDXDX",
"DXDXDXDXDXDXDXDXDXDXDXDXDXDXDXDXDXDXDX$ D Y X t.] P :.ZX$ wXxXo # % # q q kXjXkXkXkXkXkXkXkXkXjXkXjXjXpXpXpX( # 1 # 2XeX= X tXrXj J.^.j.[.Q V _ # # DXDXDXDXDXDXDXDXDXDXDX",
"DXDXDXDXDXDXDXDXDXDXDXDXDXDXDXDXDXDXDX% - D # r.5 P P B.+ BXrX# . wX9X$ $ $ $ & lXlXlXlXdXlXkXzXkXBX= # = 1 t 6X7X7XeXxXCXX W.R.t./.W.5.].N V _ # % DXDXDXDXDXDXDXDXDXDXDX",
"DXDXDXDXDXDXDXDXDXDXDXDXDXDXDXDXDXDXDX% % Y * K 5 P P f.* 0.@ '.ZXCX<XCXw.,XwXmX$ rXxXxXeX  eXrXo % 8XxXrX( VXCXNXnX5.,X(.. !.R.D.^.W.j % % 1 B.# DXDXDXDXDXDXDXDXDXDXDXDX",
"DXDXDXDXDXDXDXDXDXDXDXDXDXDXDXDXDXDXDX# OXp $ K % P P _ 7 7.+ 9.l i.x ,.,.x.,X. xXCXZXCXCXbX3XCXmXX U.U.VXC.:X_._._.Z._.W.O Q.R.,XE.A.s $ M $ '.% DXDXDXDXDXDXDXDXDXDXDXDX",
"DXDXDXDXDXDXDXDXDXDXDXDXDXDXDXDXDXDXDX% % 1 F H # F.P P 7 7.> q.l s.x l 9.w.A.@ ' (.).2.Z.W.!.j.l.o z.z.Q.z.:X_._._.v._.P.- Q.R.`./.A.> C 3 & 5.% DXDXDXDXDXDXDXDXDXDXDXDX",
"DXDXDXDXDXDXDXDXDXDXDXDXDXDXDXDXDXDXDX% 1  X*XZ # L I U 9 0.s q.j p.<.:.,.w.A.. e.<.Q.y.T.!./.3.A.. !.d.Q.Z.:X_._.).Q.(.K.& Q.I.A.Z.% VX1 I qXv.DXDXDXDXDXDXDXDXDXDXDXDXDX",
"DXDXDXDXDXDXDXDXDXDXDXDXDXDXDXDXDXDXDX1 % 0 *X# % I I l 7 0.f q.G a.v.l :.y.A.@ b.A.B.4.E.^._.E.:.- D.T.Q.Z.:X_._.(.W.(.K.$ W.K.x.,.AX-Xn.tX'.~.$ DXDXDXDXDXDXDXDXDXDXDXDX",
"DXDXDXDXDXDXDXDXDXDXDXDXDXDXDXDXDXDXDXDX$ b *X .;X% $ P 0.8.P 9.9.k.l l :.4.L.@ b.A.<.3.E.j._.W.E.w.T.!.E.z.B._.(.(.W.W.j $ Q.: . AX% `.2X2X2.i $ DXDXDXDXDXDXDXDXDXDXDXDX",
"DXDXDXDXDXDXDXDXDXDXDXDXDXDXDXDXDXDXDXDXDX% N v v aXe - u 0.7.8.9.k.l.l :.3.K.: e.A.q.3.W.T./.^.P.y.E.W.,.z.B.A.W.P.W.W.h & @ # fXX v.2X2X2.j $ DXDXDXDXDXDXDXDXDXDXDXDXDX",
"DXDXDXDXDXDXDXDXDXDXDXDXDXDXDXDXDXDXDXDXDX% % v v M M 4X0X3 # % h q.q.,.:.l ,.< ' Z.<.3.^.T.`.W.E.y.W.E.P.^.P.P.U.2.<.6 O CX#.#.8 . K.,X:.i . DXDXDXDXDXDXDXDXDXDXDXDXDXDX",
"DXDXDXDXDXDXDXDXDXDXDXDXDXDXDXDXDXDXDXDXDX% & % ! E E ! E %XMXfXX > S l l l z y ] S.<.1.L.T.`.W.T.w.R.W.2.U.L.z.@ O O G.5XH.&.&.6 X q q.7 o DXDXDXDXDXDXDXDXDXDXDXDXDXDXDX",
"DXDXDXDXDXDXDXDXDXDXDXDXDXDXDXDXDXDXDXDXDXo X B # # 4 Q Q Q Q &.Q VXgXVXCX$ & & $ y , i z k ) z < $ $ $ # % CXBX4X&X%.G.H.=.$.[ % $ G o g DXDXDXDXDXDXDXDXDXDXDXDXDXDXDXDX",
"DXDXDXDXDXDXDXDXDXDXDXDXDXDXDXDXDXDXDXDXDX$ % F % * & 4 { Q [ .X} } } -XBXZXZXZX& * * * * * = * $ $ BXNXCXBX4X-.nX%.%.G.*.=.# % 2 % % % DXDXDXDXDXDXDXDXDXDXDXDXDXDXDXDXDX",
"DXDXDXDXDXDXDXDXDXDXDXDXDXDXDXDXDXDXDXDXDXDX% S 6 K S p 9 % % R ! ~ } +.@. .@.CX5X+.@.+.@.$.&.&.$.4XvX%.M.&X.X&.G.%.%.^ % % i = h 8 y.% DXDXDXDXDXDXDXDXDXDXDXDXDXDXDXDXDX",
"DXDXDXDXDXDXDXDXDXDXDXDXDXDXDXDXDXDXDXDXDXDX% D Z J J K S p $ % # W V }.{  . .-.* +.+.+.@.$.=.=.^ 4 ; R G.m %XG.^   & % % d Y.- T T i * DXDXDXDXDXDXDXDXDXDXDXDXDXDXDXDXDX",
"DXDXDXDXDXDXDXDXDXDXDXDXDXDXDXDXDXDXDXDXDXDX% % D S J K I K I % p & $ $ & % & E W E N N R N R N N [ [ % # & % % 2 k l c.% L.z.2 C.C.& & DXDXDXDXDXDXDXDXDXDXDXDXDXDXDXDXDX",
"DXDXDXDXDXDXDXDXDXDXDXDXDXDXDXDXDXDXDXDXDXDX% % # f S ) I L L % 7.p & p 5 5 # % % % % % % % # % % % $ & % $ l l r.w.T.I.% P.z.7 C.: | & DXDXDXDXDXDXDXDXDXDXDXDXDXDXDXDXDX",
"DXDXDXDXDXDXDXDXDXDXDXDXDXDXDXDXDXDXDXDXDXDX* R *X% F S K L L % k 7.% ,.8.p.$ r.$ 9.i y P _ P z B.7 ~.!.Y.# I.1.I.T.I.W.$ Z.3.6 # vX# % DXDXDXDXDXDXDXDXDXDXDXDXDXDXDXDXDX",
"DXDXDXDXDXDXDXDXDXDXDXDXDXDXDXDXDXDXDXDXDXDX$ b &.# * S K % % # f P & 8.9.p.* s.+ z.9.i.z.C.u.:.T.l R.R.T.X L.8.R.P.l.Z.* A.a & xX*.# # DXDXDXDXDXDXDXDXDXDXDXDXDXDXDXDXDX",
"DXDXDXDXDXDXDXDXDXDXDXDXDXDXDXDXDXDXDXDXDXDXDXw n 4 +X# # A U # p U & 8.8.s.- s.@ z.:.l.$ C.c.L.P.j 4.T.T.@ L.<.R.i Z.Z.1 * BXMX . .# DXDXDXDXDXDXDXDXDXDXDXDXDXDXDXDXDXDX",
"DXDXDXDXDXDXDXDXDXDXDXDXDXDXDXDXDXDXDXDXDXDXDXX n 0 ].OX#X$ 1 # u I ] 9.9.s.O u.@ z.:.l.* Z.c.L.T.j y.P.A.$ P.<.T.o >.+ X vX&.%X..@.( DXDXDXDXDXDXDXDXDXDXDXDXDXDXDXDXDXDX",
"DXDXDXDXDXDXDXDXDXDXDXDXDXDXDXDXDXDXDXDXDXDXDXDX% % n .XE +.;XSX$ 5 u G j a.- i.@ d.i.x.9.S.A.L.K.z E.P.4.X <., X # AX4X]. .+. .% % DXDXDXDXDXDXDXDXDXDXDXDXDXDXDXDXDXDXDX",
"DXDXDXDXDXDXDXDXDXDXDXDXDXDXDXDXDXDXDXDXDXDXDXDX# 1 1 N W W ~ ;X&XsXdX$ % t.X :.@ d.3.x.9.A.c.Y.L.h z.d.7 # # % AXmX&.$.&.+.+.% 1 % DXDXDXDXDXDXDXDXDXDXDXDXDXDXDXDXDXDXDX",
"DXDXDXDXDXDXDXDXDXDXDXDXDXDXDXDXDXDXDXDXDXDXDXDXX D $ # # E E #X%X} }  . .<XgX0XX O X X X X   X # X bXbXaXaX*.=.VX%.&.&.R % $ S ] & DXDXDXDXDXDXDXDXDXDXDXDXDXDXDXDXDXDXDX",
"DXDXDXDXDXDXDXDXDXDXDXDXDXDXDXDXDXDXDXDXDXDXDXDXo F o e % # 2 N } } ~ }  . . .4X<X;X>X<X3X3X3X3X3X3XSXG.M.#X-.=.=.-.=.=.# # G d.q.& DXDXDXDXDXDXDXDXDXDXDXDXDXDXDXDXDXDXDX",
"DXDXDXDXDXDXDXDXDXDXDXDXDXDXDXDXDXDXDXDXDXDXDXDXDX& $ J D $ 8 # # # N N }  .V =.4 #.@.@.+.$.&.&.@.4 w B G.G.( w # # % k G c.c.Z.# # DXDXDXDXDXDXDXDXDXDXDXDXDXDXDXDXDXDXDX",
"DXDXDXDXDXDXDXDXDXDXDXDXDXDXDXDXDXDXDXDXDXDXDXDXDX% $ D J = 6 9 % # # % B N Q 4 1 +.#X@.@.&.&.=.&.1 1 @.Q # % 1 2 - l c A.v.C.Z.# DXDXDXDXDXDXDXDXDXDXDXDXDXDXDXDXDXDXDXDX",
"DXDXDXDXDXDXDXDXDXDXDXDXDXDXDXDXDXDXDXDXDXDXDXDXDXDX& & D ) - U % I K & p 9 % $ = # $ $ % $ = & % % # # o d :.:.<.B.z.2.S.s > # DXDXDXDXDXDXDXDXDXDXDXDXDXDXDXDXDXDXDXDXDX",
"DXDXDXDXDXDXDXDXDXDXDXDXDXDXDXDXDXDXDXDXDXDXDXDXDXDXDX$ $ Y % I # I I & T d % p - Z Z Z d ) H G k $ l l o e.K.A.- P.C.z Z.u % XXDXDXDXDXDXDXDXDXDXDXDXDXDXDXDXDXDXDXDXDXDX",
"DXDXDXDXDXDXDXDXDXDXDXDXDXDXDXDXDXDXDXDXDXDXDXDXDXDXDXDXDX% # H $ I L L P P # 9., 9.T :.V.x.B.A.K.- K.A.+ N.S.(.) S.a % % # DXDXDXDXDXDXDXDXDXDXDXDXDXDXDXDXDXDXDXDXDXDXDX",
"DXDXDXDXDXDXDXDXDXDXDXDXDXDXDXDXDXDXDXDXDXDXDXDXDXDXDXDXDXDX% # & H ) L L P % 9., q.T l v.A.B.L.L.- l.L.@ n.Z.Z.n.z.% & DXDXDXDXDXDXDXDXDXDXDXDXDXDXDXDXDXDXDXDXDXDXDXDXDX",
"DXDXDXDXDXDXDXDXDXDXDXDXDXDXDXDXDXDXDXDXDXDXDXDXDXDXDXDXDXDXDXDXDX& % 1 $ P X 9., P j :.l.f.B.j u.> l.C.O t X # # # DXDXDXDXDXDXDXDXDXDXDXDXDXDXDXDXDXDXDXDXDXDXDXDXDXDXDX",
"DXDXDXDXDXDXDXDXDXDXDXDXDXDXDXDXDXDXDXDXDXDXDXDXDXDXDXDXDXDXDXDXDXDX# % % $ % & X 7.9 s k.q.c.7 w.$ $ $ $ % # # DXDXDXDXDXDXDXDXDXDXDXDXDXDXDXDXDXDXDXDXDXDXDXDXDXDXDXDXDX",
"DXDXDXDXDXDXDXDXDXDXDXDXDXDXDXDXDXDXDXDXDXDXDXDXDXDXDXDXDXDXDXDXDXDXDXDXDXDXDXDX& $ % % $ % & % # $ DXDXDXDXDXDXDXDXDXDXDXDXDXDXDXDXDXDXDXDXDXDXDXDXDXDXDXDXDXDXDXDXDXDXDX",
"DXDXDXDXDXDXDXDXDXDXDXDXDXDXDXDXDXDXDXDXDXDXDXDXDXDXDXDXDXDXDXDXDXDXDXDXDXDXDXDXDXDXDXDXDXDXDXDXDXDXDXDXDXDXDXDXDXDXDXDXDXDXDXDXDXDXDXDXDXDXDXDXDXDXDXDXDXDXDXDXDXDXDXDXDX",
"DXDXDXDXDXDXDXDXDXDXDXDXDXDXDXDXDXDXDXDXDXDXDXDXDXDXDXDXDXDXDXDXDXDXDXDXDXDXDXDXDXDXDXDXDXDXDXDXDXDXDXDXDXDXDXDXDXDXDXDXDXDXDXDXDXDXDXDXDXDXDXDXDXDXDXDXDXDXDXDXDXDXDXDXDX",
"DXDXDXDXDXDXDXDXDXDXDXDXDXDXDXDXDXDXDXDXDXDXDXDXDXDXDXDXDXDXDXDXDXDXDXDXDXDXDXDXDXDXDXDXDXDXDXDXDXDXDXDXDXDXDXDXDXDXDXDXDXDXDXDXDXDXDXDXDXDXDXDXDXDXDXDXDXDXDXDXDXDXDXDXDX",
"DXDXDXDXDXDXDXDXDXDXDXDXDXDXDXDXDXDXDXDXDXDXDXDXDXDXDXDXDXDXDXDXDXDXDXDXDXDXDXDXDXDXDXDXDXDXDXDXDXDXDXDXDXDXDXDXDXDXDXDXDXDXDXDXDXDXDXDXDXDXDXDXDXDXDXDXDXDXDXDXDXDXDXDXDX",
"DXDXDXDXDXDXDXDXDXDXDXDXDXDXDXDXDXDXDXDXDXDXDXDXDXDXDXDXDXDXDXDXDXDXDXDXDXDXDXDXDXDXDXDXDXDXDXDXDXDXDXDXDXDXDXDXDXDXDXDXDXDXDXDXDXDXDXDXDXDXDXDXDXDXDXDXDXDXDXDXDXDXDXDXDX",
"DXDXDXDXDXDXDXDXDXDXDXDXDXDXDXDXDXDXDXDXDXDXDXDXDXDXDXDXDXDXDXDXDXDXDXDXDXDXDXDXDXDXDXDXDXDXDXDXDXDXDXDXDXDXDXDXDXDXDXDXDXDXDXDXDXDXDXDXDXDXDXDXDXDXDXDXDXDXDXDXDXDXDXDXDX",
"DXDXDXDXDXDXDXDXDXDXDXDXDXDXDXDXDXDXDXDXDXDXDXDXDXDXDXDXDXDXDXDXDXDXDXDXDXDXDXDXDXDXDXDXDXDXDXDXDXDXDXDXDXDXDXDXDXDXDXDXDXDXDXDXDXDXDXDXDXDXDXDXDXDXDXDXDXDXDXDXDXDXDXDXDX",
"DXDXDXDXDXDXDXDXDXDXDXDXDXDXDXDXDXDXDXDXDXDXDXDXDXDXDXDXDXDXDXDXDXDXDXDXDXDXDXDXDXDXDXDXDXDXDXDXDXDXDXDXDXDXDXDXDXDXDXDXDXDXDXDXDXDXDXDXDXDXDXDXDXDXDXDXDXDXDXDXDXDXDXDXDX",
"DXDXDXDXDXDXDXDXDXDXDXDXDXDXDXDXDXDXDXDXDXDXDXDXDXDXDXDXDXDXDXDXDXDXDXDXDXDXDXDXDXDXDXDXDXDXDXDXDXDXDXDXDXDXDXDXDXDXDXDXDXDXDXDXDXDXDXDXDXDXDXDXDXDXDXDXDXDXDXDXDXDXDXDXDX",
"DXDXDXDXDXDXDXDXDXDXDXDXDXDXDXDXDXDXDXDXDXDXDXDXDXDXDXDXDXDXDXDXDXDXDXDXDXDXDXDXDXDXDXDXDXDXDXDXDXDXDXDXDXDXDXDXDXDXDXDXDXDXDXDXDXDXDXDXDXDXDXDXDXDXDXDXDXDXDXDXDXDXDXDXDX"
};
